<?xml version="1.0" encoding="utf-8"?>
<!-- Generator: $$$/GeneralStr/196=Adobe Illustrator 27.6.0, SVG Export Plug-In . SVG Version: 6.00 Build 0)  -->
<svg version="1.1" id="Calque_1" xmlns="http://www.w3.org/2000/svg" xmlns:xlink="http://www.w3.org/1999/xlink" x="0px" y="0px"
	 viewBox="0 0 440.2 166.4" style="enable-background:new 0 0 440.2 166.4;" xml:space="preserve">
<style type="text/css">
	.st0{fill:#F4EAD0;}
</style>
<g>
	<path class="st0" d="M261.6,121.1c0.3-1-0.2-1.7-0.8-2.4c-2.2-2.9-2.2-6.1-0.1-8.8c2.3-3,6.4-4.2,9.6-3.1c5,1.8,7.5,5.6,8.5,10.4
		c1.2,6-3.5,10.5-8.7,11.3c-2.8,0.5-5.3-1.7-7.6-3c-5.7-3.1-10.2-8.8-9.3-16.1c0.6-5,4.4-8.9,9.7-9.6c8.9-1.2,16.2,1.7,22.6,8.2
		c4.7,4.8,8.1,10.2,10.2,16.4c0.7,2.2,1.2,4.5,1.7,6.7c0.7,3,1.4,6,2.2,9c1.2,4,3.4,7.3,7.6,8.8c2.4,0.8,4.6,2.2,7.2,1.6
		c7.4-1.6,12.4-2.6,12.4-12.6c0-5.3-0.9-10.3-3-15.4c-3.2-8-8.1-14.3-14.3-20.1c-4.9-4.5-10.8-6.8-16.9-8.9
		c-5.6-1.9-11.5-3-17.3-4.1c-5.2-1-10.5-1.3-15.7-2.1c-15.4-2.5-30.8-1.5-46.3-1.6c-25.2-0.2-50.5,0.3-75.7,0.3
		c-37.1-0.1-74.2-0.3-111.4-0.6c-8-0.1-16-0.6-24.1-1c-0.6,0-1.4,0.2-2.1-0.8c2.2-0.7,4.2-0.8,6.2-0.8c16.8-0.1,33.6,0.5,50.4-0.4
		c22.1-1.2,44.2-0.7,66.3-1.1c29.4-0.4,58.7,0.3,88.1,0c15.4-0.1,30.8,1,46.1-0.1c6.8-0.5,13.8-0.7,20.5-2.4
		c4.9-1.3,10-1.6,14.8-3.4c5.2-2,10.7-3.9,14.8-7.4c6-5.2,11.5-11.1,15-18.4c3.6-7.5,5.7-15.4,3.8-23.8c-0.8-3.4-3.1-5.2-6.1-6.8
		c-4.1-2.2-8.3-3.1-12.6-1.8c-2.1,0.6-4,1.9-5.2,4.2C299,28,298,35,296.3,41.8c-1.4,5.6-4,10.6-7.5,15.2c-4.1,5.5-9.9,8.6-15.8,11.4
		c-6,2.8-15.3-0.1-18.6-5.8c-2.3-4-2.2-8.3,0.3-12.3c3.6-5.8,8.4-9.8,15.7-10.2c4.4-0.2,6.2,3,7.8,6c1.3,2.5,0.9,5.3-0.5,7.8
		c-0.2,0.4-0.8,0.8-0.9,1.2c-0.5,2.5-1.7,4.1-4.2,5.1c-3.6,1.5-7,1.7-10.4-0.1c-3-1.5-4.1-6.8-1.9-9.8c0.9-1.3,2-2.4,3-3.8
		c-6.1,1.7-9.6,8.4-7.2,13.9c1.6,3.6,7.7,5.3,12.5,3.6c7.4-2.6,11.1-8.3,14-15.2c3.1-7.3,1.9-14.9,2.6-22.3
		c0.9-9.3,4.2-17.5,12.1-22.9c5.8-3.9,12.4-4.8,19.2-2.3c4.4,1.6,8.6,3.6,12.3,6.7c5.1,4.2,7.7,9.8,8.5,16.1
		c0.6,5.3-0.4,10.4-2.5,15.3c-1,2.3-1.3,4.8-2.7,7.2c-2.7,4.7-5.5,9.2-9.2,13.3c-0.5,0.6-1.7,1.2-1.1,2.2c0.5,0.9,1.7,0.5,2.5,0.5
		c7,0,14.1-0.2,21.1,0.1c7.1,0.3,14.2,0.6,21.3,1.5c5.6,0.7,11.2,1.8,16.9,2.1c2.9,0.2,5.7,1.1,8.4,2c0.4,0.1,0.8,0.4,1.1,0.4
		c3.7-0.4,7,1.5,10.5,2c6.8,1,13,3.8,19.5,5.8c5.4,1.7,10.4,4.2,15.6,6.3c0.5,0.2,1.2,0.5,1.2,1.2c0,0.8-0.7,1.3-1.3,1.5
		c-8.2,3.1-16.2,6.5-24.6,9c-7.2,2.1-14.5,3.6-21.7,5.3c-7.1,1.7-14.4,2.6-21.6,3.6c-15.9,2.3-31.7,2.2-47.7,2.2c-0.5,0-1,0-2,0
		c1,1.4,1.7,2.5,2.5,3.5c5.5,6.3,9.4,13.3,12,21.4c1.5,4.9,2,9.6,1.7,14.5c-0.3,5.1-2.4,9.7-6.1,13.2c-8,7.5-18,9.7-28.1,6.9
		c-8.1-2.2-13.7-8.3-16.4-16.7c-2-6.5-1.1-13.1-2-19.6c-0.8-6.4-2.6-12.6-7-17.9c-2.9-3.5-6.1-5.7-10.3-7.2c-4.1-1.5-9,0.6-11,3.3
		c-2,2.8-1,8.7,1.5,11.4C259.2,119.5,260.5,120.2,261.6,121.1c3.7,2.7,7.5,2.7,8.9-0.3C267.4,122,264.5,121.4,261.6,121.1z
		 M273.9,83.6c4.6,2.8,10,1.8,14.8,3.8c4.7,2,9.5,4,14.2,5.9c4.1,1.7,7.5,4.9,11.4,6.7c5.1,2.3,10.7,3.2,16.3,3.2
		c9.9,0,19.7-1.7,29.4-3.4c6.8-1.3,13.7-2.6,20.2-5.1c2.3-0.9,4.7-1.8,7.1-2.4c5.9-1.5,10.8-5,16.3-7.3c1.2-0.5,1.5-1.2-0.1-2
		c-2.8-1.3-5.4-2.9-8.2-4.1c-3.9-1.7-7.8-3.4-11.8-4.7c-4.7-1.6-9.5-2.8-14.3-4c-6.4-1.6-12.8-2.8-19.2-3.9
		c-9.1-1.5-18.2-0.6-27.4-0.7c-3.1,0-5.9,0.9-8.4,2.5c-5.7,3.6-11.3,7.5-17.7,9.8c-5.4,2-10.9,3.9-16.7,4.8
		C277.8,83.1,275.8,83.3,273.9,83.6z"/>
</g>
</svg>
