<?xml version="1.0" encoding="UTF-8"?>
<svg id="Calque_1" data-name="Calque 1" xmlns="http://www.w3.org/2000/svg" viewBox="0 0 100 100">
  <defs>
    <style>
      .cls-1 {
        fill: #0071bc;
      }

      .cls-2 {
        fill: #fff;
      }
    </style>
  </defs>
  <circle class="cls-1" cx="50" cy="50" r="50"/>
  <g>
    <path class="cls-2" d="m34.68,26.65c3.05.04,5.81.93,8.28,2.76.68.5,1.4,1.04,2.08,1.58,2.62,1.97,5.77,1.97,8.39,0,1.72-1.29,3.37-2.69,5.45-3.41,5.13-1.76,9.82-.93,14.05,2.47.47.36.93.72,1.43,1.08,1.15.9,2.44,1.29,3.91,1.33,2.15.04,3.84,1.76,3.73,3.76-.11,2.08-2.01,3.69-4.16,3.55-3.3-.18-6.2-1.36-8.75-3.48-1.58-1.33-3.23-2.4-5.48-2.26-1.51.07-2.8.47-3.98,1.4-1.54,1.22-3.05,2.51-4.91,3.23-5.13,1.97-9.89,1.36-14.27-1.97-.54-.43-1.11-.82-1.61-1.25-2.08-1.83-6.13-1.79-8.24-.04-1.54,1.29-3.12,2.51-4.98,3.3-1.61.68-3.33,1-5.05,1.11-2.22.07-4.05-1.61-4.12-3.73-.04-1.94,1.65-3.66,3.76-3.66,1.76,0,3.19-.68,4.48-1.76,1.94-1.58,3.94-3.01,6.45-3.58,1.18-.25,2.33-.43,3.55-.43Z"/>
    <path class="cls-2" d="m48.76,75.44c-3.44.11-6.67-1.51-9.5-4.01-2.44-2.15-6.45-2.4-9.11-.07-1.29,1.15-2.72,2.15-4.3,2.87-1.79.82-3.69,1.22-5.66,1.22s-3.58-1.43-3.76-3.37c-.18-1.79,1.15-3.44,3.08-3.84.07,0,.11-.04.18-.04,2.58.22,4.45-1.25,6.31-2.76,4.95-4.01,12.37-4.01,17.28-.07.5.39,1.04.72,1.51,1.15,2.4,2.22,6.52,2.19,9.18-.14,2.08-1.83,4.41-3.26,7.24-3.69,3.94-.65,7.6.07,10.86,2.47.65.47,1.29.97,1.94,1.47,1.22.97,2.58,1.54,4.19,1.58,1.83,0,3.08,1,3.62,2.55.47,1.4.04,2.94-1.15,3.94-1.04.9-2.29.9-3.55.79-3.26-.25-5.99-1.68-8.42-3.76-1.94-1.65-4.09-2.29-6.56-1.72-1,.25-1.86.75-2.69,1.4-2.01,1.61-4.09,3.15-6.67,3.73-1.22.14-2.37.36-4.01.32Z"/>
    <path class="cls-2" d="m49.09,57.55c-3.33.11-6.27-1.15-8.93-3.23-1.33-1.04-2.62-2.15-4.41-2.4-2.04-.29-3.84.18-5.45,1.47-1.83,1.47-3.66,2.87-5.95,3.55-1.47.43-2.98.65-4.52.57-1.83-.07-3.41-1.79-3.41-3.62s1.58-3.55,3.37-3.55c2.01-.04,3.69-.75,5.2-2.04,2.69-2.26,5.66-3.69,9.25-3.73,3.69-.07,6.85,1.11,9.64,3.44,1.25,1.04,2.51,2.01,4.23,2.22,1.68.22,3.3,0,4.7-.97,1.11-.75,2.12-1.65,3.26-2.37,4.84-3.23,11.18-3.08,15.88.36.65.47,1.33.93,1.94,1.47,1.33,1.11,2.87,1.61,4.62,1.68,1.9.07,3.51,1.79,3.44,3.66-.04,1.94-1.65,3.48-3.58,3.55-3.23.11-6.09-.93-8.64-2.9-.68-.5-1.33-1-2.01-1.51-2.4-1.76-5.52-1.79-7.92-.04-.72.5-1.4,1.04-2.08,1.58-2.51,1.83-5.34,2.87-8.64,2.8Z"/>
  </g>
</svg>