<?xml version="1.0" encoding="UTF-8"?>
<svg id="Calque_1" data-name="Calque 1" xmlns="http://www.w3.org/2000/svg" viewBox="0 0 100 100">
  <defs>
    <style>
      .cls-1 {
        fill: #fff;
      }

      .cls-2 {
        fill: #c16e32;
      }
    </style>
  </defs>
  <circle class="cls-2" cx="50" cy="50" r="50"/>
  <path class="cls-1" d="m50.48,68H16.19c-.44,0-.92,0-1.36-.07-3.2-.48-4.64-3.68-2.87-6.36,5.15-7.76,10.3-15.53,15.49-23.25,1.77-2.65,5.11-2.65,6.88,0,1.84,2.72,3.64,5.45,5.45,8.17.81,1.21.77,1.18,1.55,0,5.15-7.91,10.26-15.82,15.42-23.73,1.29-1.99,3.27-2.61,5.22-1.69.88.4,1.47,1.1,1.95,1.88,5.52,8.5,11.04,17,16.59,25.53,2.76,4.27,5.56,8.54,8.31,12.8.63.96,1.1,1.91.96,3.09-.29,2.24-1.91,3.64-4.34,3.68-2.21.04-4.41,0-6.62,0-9.38-.04-18.84-.04-28.33-.04Z"/>
</svg>