<?xml version="1.0" encoding="UTF-8"?>
<svg id="Calque_1" data-name="Calque 1" xmlns="http://www.w3.org/2000/svg" viewBox="0 0 100 100">
  <defs>
    <style>
      .cls-1 {
        fill: #fff;
      }

      .cls-2 {
        fill: #c8646d;
      }
    </style>
  </defs>
  <circle class="cls-1" cx="50" cy="50" r="50"/>
  <path class="cls-2" d="m17.6,46.24c.27-6.73,2.85-12.26,8.69-15.9,5.86-3.67,13.34-2.94,18.55,1.59,1.28,1.11,2.36,2.34,3.31,3.74q.41.63.82,0c2.44-3.64,5.72-6.2,10.04-7.19,6.25-1.42,11.53.46,15.78,5.14,3.55,3.91,4.99,8.66,4.66,13.9-.19,3.09-1.28,5.96-2.77,8.66-2.49,4.54-5.86,8.35-9.58,11.87-5.28,5.02-11.12,9.31-17.32,13.1-.8.48-1.57.51-2.36.02-7.36-4.49-14.23-9.6-20.19-15.85-3.23-3.4-6.08-7.07-7.94-11.44-1.11-2.51-1.64-4.99-1.66-7.65Z"/>
</svg>