<?xml version="1.0" encoding="utf-8"?>
<!-- Generator: $$$/GeneralStr/196=Adobe Illustrator 27.6.0, SVG Export Plug-In . SVG Version: 6.00 Build 0)  -->
<svg version="1.1" id="Calque_1" xmlns="http://www.w3.org/2000/svg" xmlns:xlink="http://www.w3.org/1999/xlink" x="0px" y="0px"
	 viewBox="0 0 605.6 580.5" style="enable-background:new 0 0 605.6 580.5;" xml:space="preserve">
<style type="text/css">
	.st0{fill:#F4EAD0;}
</style>
<g>
	<path class="st0" d="M527.1,502.1c4.5,0.7,8.7,0,12.7,1.7c2.4,1.1,5,2,7.6,3c2.4,0.9,2.5,3.1,1.8,5.1c-2.2,6.5,0.9,10.3,6.2,13.6
		c3.2,2,5.7,5,7.2,8.5c1.5,3.4-0.7,6.6-1.1,9.9c-0.1,0.7-0.5,1.5-0.8,2.2c-1.4,3.3-1.2,6.3,1.4,9.1c2.1,2.2,0.6,4.6-0.4,6.6
		c-4.9,9.3-12.3,15.3-23,17.2s-21.3,1-31.9,0.2c-10.3-0.8-20.6-0.9-30.8,1c-7.1,1.3-13.5-1-19.1-5.3c-2.3-1.8-4.5-3.6-6.6-5.6
		c-5.9-5.6-16.1-4.8-21.8-1.6c-2.8,1.6-5.2,3.2-6.7,6.3c-1.3,2.5-4.3,2.4-6.2,0.2c-3.4-4.2-6.6-8.5-7.7-14c-0.5-2.3-1.8-2.8-3.7-2
		c-6.4,2.4-13.4,2.2-19.9,4.2c-5.2,1.6-10.8,0.4-15.8,2.6c-0.7,0.3-1.6,0.3-2.3,0.3c-20.1,0.8-40.2,2.2-60.3,0.1
		c-3.4-0.3-4.5-1.7-4.2-4.7c0.5-4.7,1.4-9.4,1.8-14.1c0.7-7.8,3.1-15.3,5-22.8c1.7-6.3,4.7-12.3,7.2-18.3
		c5-11.9,11.7-22.7,19.5-32.9c3.6-4.7,7.8-8.8,11.9-13c2.2-2.2,2-3.7-0.5-5.3c-8-5.1-15.1-11.2-22.1-17.5c-0.8-0.7-1.3-2.3-2.8-1.8
		c-1.4,0.6-0.9,2.2-0.9,3.2c0.2,6.1-1.4,11.9-2.2,17.9c-1,7.6-3.3,15-5,22.5c-3.3,13.8-8,27.1-14.5,39.7c-2.3,4.4-4.5,9-8,12.8
		c-3,3.2-4.8,3.6-7.7,0.5c-5.4-5.6-10-11.8-14.4-18.1c-6.6-9.5-12.5-19.5-16.7-30.3c-4.1-10.6-8.6-21-11.2-32.2
		c-3.4-14.4-5.6-28.8-7.5-43.4c-0.2-1.7-0.2-1.7-2.1-4.1c-1.4,0.8-1,2.3-1.1,3.5c-1.4,16.2-7.5,30.4-18,42.8
		c-3.8,4.5-9.5,5.6-14.3,8.3c-5.7,3.3-11.5,6.4-15.3,12c-3.4,5-5.4,10.1-2.5,16.1c5.5,11.3,11.4,22.3,21.6,30.4
		c3.1,2.4,6.5,4,10.1,5c4.4,1.2,8.5-1.3,12.3-3.2c5.4-2.6,10.5-5.8,15.6-8.8c13.6-7.9,24,1.6,28.2,11.8c1,2.5,2.9,3.9,4.3,5.9
		c3.1,4.6,4.8,9.5,4.6,15.1c-0.2,5.3-0.1,10.6,0.7,16c1.1,7.1-3.6,14.3-11.2,16.7c-8,2.5-16.2,4.4-24.7,3.6
		c-7.2-0.7-14.4-2-21.5-3.6c-15-3.5-29.2-9.4-43.8-14.1c-3.3-1.1-7.1-1.7-10.9-0.7c-2.7,0.7-4,2-3.2,4.8c0.5,1.8,0.3,3.2-1.3,4.1
		c-1.5,0.9-2.8,0.5-4.3-0.6c-6.2-4.5-8.6-9.5-6.1-17.8c2.2-7.4,0.7-15.2-4.5-21.9c-5-6.5-11.1-11.9-16.9-17.6
		c-5.8-5.7-11.7-11.3-15.6-18.6c-2.6-5-1.7-9.4,1.8-13.5c4.5-5.4,10.5-9.1,15.6-13.7c9.2-8.3,12.5-15.7,9.6-25.6
		c-2.5-8.7-7.4-16.4-12.5-23.8c-8.6-12.3-17.5-24.4-26.1-36.7C95,369.3,88.5,359,82.6,348.2c-5.1-9.3-10.4-18.6-13.9-28.5
		c-3.7-10.7-7-21.6-9-32.8c-1.5-8.5-1.2-16.9-2.2-25.4c-1.5,0.2-2.3,1-2.7,2.4c-2.3,6.9-4.7,13.7-7,20.6c-0.2,0.5-0.5,1-0.4,1.4
		c1.7,5.4,3.1,10.9,5.4,16.1c1.5,3.5,1.8,7.2,3.3,10.7c2,4.6,3.7,9.4,5.1,14.2c1.9,6.7,5.3,12.8,7.2,19.5c1.8,6.2,4.1,12.4,6.3,18.6
		c3,8.7,5.3,17.5,7.2,26.5c1.6,8,3,16,4.3,24c1.6,9.8,2.2,19.6,3.5,29.4c1.9,14.9,1.7,29.8,1.2,44.7c-0.5,16.3-1.7,32.6-4.5,48.7
		c-1.1,6.5-1.8,13.2-3.1,19.7c-0.5,2.5-1.3,5-1.9,7.5c-0.7,2.9-3.2,3.2-5.4,0.6c-4.5-5.3-9.1-10.6-13-16.3
		c-4.5-6.5-8.7-13.4-12.6-20.3c-4.7-8.1-9.1-16.4-12.7-24.9c-3.8-9.1-7.6-18.2-10-27.7c-2.6-10-4.9-20.1-6.7-30.3
		c-4.4-24.9-4.6-50.1-5.8-75.3c-0.7-13.7,0.4-27.5,1.5-41.2c0.9-11.6,1.4-23.4,4.3-34.9c1.3-5.1,2.3-10.6,2.4-15.9
		c0.1-4.3-1.8-8.6-2.9-12.9c-1.8-6.6-3.1-13.4-4.4-20.1c-1.5-7.6-1.6-15.4-2.8-22.9c-2.7-16.2-1.2-32.3-0.9-48.5
		c0.1-6.8,1.1-13.9,2.3-20.7c1.4-7.5,3.6-14.9,5.7-22.2c2.5-8.8,4.9-17.5,7.8-26.1c1.1-3.3,3-6.3,4.2-9.7c0.9-2.6,1.1-3.7-2.3-3.2
		c-5.4,0.7-10.7-0.9-16.1-1c-3.6-0.4-7-1.1-10.4-2c-2.5-0.7-3.1-2-3.3-4.1c-1-9.3,0.6-18.1,4.9-26.3C12.6,45.3,24.6,36.2,39.3,30
		c9.2-3.9,18.7-6.8,28.4-8.3c5.1-0.8,10.1-3,15.4-2.4c2.5,0.3,3.9-1.9,5.7-3.1c8.7-5.7,17.5-10.6,27.8-13.4c7.7-2,15.2-2.9,23-2.8
		c6.9,0.1,8.9,2.5,6.6,8.9c-1,2.7-0.9,5.6-2.5,8.2c-1.4,2.2,0.2,3.6,2.8,3.8c5.5,0.4,11,0.4,16.5,1.6c8.8,2,17.8,2.9,26.5,5.9
		c5.7,1.9,11.8,2.8,17.6,4.4c3.6,1,7.1,2.3,10.6,3.7c6.3,2.5,13.1,3.9,19.1,7.1c1.3,0.7,2.5,1.5,2.3,2.8s-1.5,2-2.9,2.3
		c-2.7,0.6-5.5,0.6-8.2,0.8c-5.9,0.5-11.8,1.7-17.6,2.5c-6.8,1-13.6,2.3-20.3,4.2c-4.7,1.3-9.6,1.8-14.4,3.2
		c-8.3,2.4-16.5,5.2-24.5,8.4c-6.4,2.5-12.6,5.4-18.6,8.8c-12.1,7.1-21.9,16.5-30.5,27.4c-6.3,8-11.7,16.3-16,25.4
		c-0.9,1.9-1.4,3.9-2.3,5.7c-1.2,2.2-0.4,4.3,2.5,5.5c9.2,3.6,17.8,8.3,26.3,13.3c3.7,2.2,7.4,0.7,10.4-0.1c5.1-1.5,10.1-1.5,15.2-2
		c6.8-0.7,13.7-0.5,20.6,0.5c4.7,0.7,4.6,0.4,3.3-4.1c-2.2-7.6-3.8-15.3-5.9-22.9c-1.7-6-3-12.2-4.4-18.2c-0.9-3.8-2.4-7.7-2.2-11.8
		c0.2-3.2,2.4-4.6,5.1-2.9c13.2,8.8,26.3,17.5,38.9,27.2c14.9,11.5,27.7,25,40.1,39.1c3.2,3.6,6.5,7.1,9.1,11.3c1.8,2.9,5,4.1,8.3,5
		c12.2,3.4,24,7.8,35.8,12.4c8,3.2,16.4,5.7,24.5,8.7c8.6,3.2,17,7.1,25.7,9.8c11,3.4,21.3,9.4,33.4,8.7c8-0.5,14.2-6.8,16.6-13.1
		c2.3-6,2.2-12.3,1.3-18.3c-0.9-6.1-3.1-12-6.2-17.5c-7.7-13.7-18.4-24.8-30.5-34.5c-2.4-1.9-4.7-3.4-8.7-1.7c-4,1.6-9.1,1-13.7,1.4
		c-10.6,1-21.3,0.4-31.6-1.3c-8.7-1.4-17.5-2.3-26.2-4c-5.1-1-10.6-0.3-15.8-0.4c-8.7-0.2-17.2,1.2-25.7,2.9
		c-11.4,2.2-20.8-3.9-26.1-15.2c-2.5-5.4-1.3-11-1.4-16.7c-6.6,1.7-10.4,6.3-13.6,11.7c-1.9,3.2-3,3.4-4.7,0.3
		c-8.1-14-7.6-31.9,5-44c3.9-3.8,9.2-5.8,14.7-7.2c10.6-2.7,21.4-2.2,31.8-1.2c12.9,1.3,25.7,1.9,38.6,2.4c2.1,0.1,4.1,0.8,6.2,1.2
		c2.6,0.5,3.7-0.1,2.2-2.9c-2-3.6-2.8-7.8-2.7-11.7c0.2-6.3,5.4-9.1,12.6-10.4c14.7-2.6,29.6-0.5,44.3-2.1c15-1.7,30.2-0.2,45.1-2.4
		c5.5-0.8,11-2,16.3-3.8c4.9-1.7,9.9-3.1,14.8-4.8c9.8-3.2,20-4.8,30.4-4.8c13,0,25.3,2.8,37.5,7.3c11.2,4.2,21.4,9.9,31.1,16.6
		c4.4,3.1,8.3,6.8,12.3,10.3c5.4,4.7,4.5,4,7.3-1c5.1-9,11.4-16.9,18.8-24.1c4-3.9,8.6-7.2,13.4-10.1c3.9-2.4,6.5-1.7,8.4,2.5
		c5,10.9,9.4,22,13.5,33.3c2.7,7.5,4.6,15.3,6.4,23c1.7,7.5,4.3,14.9,5.3,22.5c0.7,4.9,1.7,9.8,2.7,14.6c1,5,0.6,10.1,2.2,15
		c1.5,4.6,1.2,9.7,1.3,14.5c0.2,15.8,3.3,31.5,1.8,47.3c-1.1,11.3-1.5,22.6-2.2,33.8c-0.4,6.6-1.1,13.2-2.2,19.6
		c-0.9,5.1-1.2,10.3-2.4,15.4c-1.4,6.1-2.6,12.4-3.5,18.6c-1.4,9.7-4,19.2-6,28.7c-2.4,11.2-5,22.4-8.6,33.3
		c-2.6,7.6-4.1,15.5-6.3,23.2c-1.5,5.3-3.4,10.4-5.2,15.6c-2.8,7.9-5.3,16-8.4,23.8c-3.8,9.6-8,19.1-12.4,28.5
		c-1,2.1-0.6,2.8,1.2,3.5c7.2,3.2,14.5,6.3,21.2,10.5c10.6,6.5,21.3,12.7,30.6,21.1c2.7,2.5,2.2,3.4-0.9,5.9
		c-8.9,7.4-19.3,12.1-29.5,17c-12.9,6.1-26.5,10.3-40.4,13.4C529.2,500.4,528.1,500.4,527.1,502.1z M45.6,273.3
		c3.5-10.2,8-19.7,13-28.9c0.8-1.6,1.9-2.7,3.7-2.3c1.9,0.4,2.1,1.9,2,3.7c-0.1,4.7-0.8,9.4-1.2,14.1c-0.6,6.6,1.8,13,1,19.7
		c-0.1,0.9,0.3,1.8,0.7,2.7c1.5,3.5,1.7,7.3,2.4,10.9c0.9,4.4,1.6,8.9,3.1,13c2.7,7.5,5.6,15,8.8,22.3c5.9,13.2,13,25.7,20.8,37.7
		c7.8,12.1,16,23.9,24.7,35.4c7.5,9.9,14.4,20.1,19.7,31.3c4,8.4,4.6,16.8,0,25.2c-3.2,5.9-8.2,10.1-13,14.6
		c-3.9,3.7-8.6,6.5-11.9,10.8c-1.6,2-1.8,4.2-0.6,6.3c1.4,2.5,2.9,4.9,4.7,7.2c6.7,8.5,15.2,15.2,22.5,23c7.9,8.4,12.8,17.4,11,29.4
		c-0.4,2.6-2.3,4.8-1.7,7.6c0.2,1-0.2,2.4,0.9,2.9c1.3,0.7,1.7-0.9,2.4-1.5c4-3.6,8.5-5.2,13.8-3.9c5.8,1.4,11.3,3.3,17,4.9
		c7.1,2,13.9,4.7,20.9,7c7.9,2.7,15.9,4.5,24.2,5.2c1,0.1,2.1,0.1,3.1,0.4c10.4,2.8,20.3,0.7,29.7-3.7c3.5-1.6,5.8-5.2,5.3-9.3
		c-1-8.5-12.5-16.6-21-14.4c-4.6,1.2-9.5,1.8-13.4,5c-1.4,1.2-3.9,1.9-5.3-0.2c-1.5-2.3,0.7-3.6,2.4-4.6c11.2-6.1,22.4-8.8,33.9-0.8
		c1.6,1.1,2.5,0.6,2.3-1.4c-0.1-0.9-0.3-1.8-0.3-2.8c-0.1-6.7-3.4-11.8-9.3-14.4c-4.9-2.1-10.3-1.6-14.9,2.1
		c-1.7,1.4-3.7,2.6-5.6,3.6c-5.5,2.8-11,5.3-17.3,5.4c-1.9,0-2.8-1.1-2.9-2.6c-0.1-1.7,0.9-2.9,2.9-3c6.8-0.2,12.6-3.1,18-6.9
		c4.7-3.3,9.6-5.8,15.6-5.1c0.7,0.1,1.5,0.1,1.7-0.6c0.1-0.5,0-1.3-0.4-1.8c-2.2-3.1-9.2-5-12.9-3.7c-6.3,2.3-11.5,6.5-17.4,9.5
		c-5,2.6-10.2,5.2-16,4.6c-5.5-0.5-10.4-3-14.8-6.7c-9.5-8-15.8-18.4-21.4-29.3c-5.4-10.5-2.9-21.3,6.1-28.9
		c5.4-4.6,11.1-8.3,17.8-11c7.4-3.1,12.1-9.1,15.9-16.4c5.6-10.5,8.5-21.7,9.7-33.1c1.2-11.9,0.7-24-2.6-35.9
		c-3-11.3-7.2-22-12.8-32.1c-5.1-9.3-11.3-18.1-19.6-25c-4.7-3.9-10.3-5.9-16.2-7.9c-13.5-4.5-25.4-2.5-37,4.3
		c-9.3,5.4-19.1,22-14.2,34.8c2.6,6.6,5.3,12.7,10.8,17.1c14.2,11.4,26.4,12,38.9-1.8c2.1-2.3,3.5-5.8,3.4-9
		c-0.5-10.4-10.2-15.2-19.1-9.6c-1.6,1-3,1.3-4.1-0.3c-1-1.5-0.6-2.8,0.9-4.1c4.5-4.1,12.5-5.6,17.6-2.2
		c10.1,6.7,13.9,17.8,4.9,29.3c-8.7,11-18.2,12.5-32.2,9.6c-8.9-1.9-15.1-8.2-20.5-15.1c-5-6.5-7.6-14.1-7.5-22.5
		c0-1.9-0.1-3.4-2-4.7C103.8,319,95.4,309.6,89,298c-6.3-11.4-9.8-23.5-9.6-36.5c0-2.8-0.1-5.6,0-8.3c0-3.8-0.5-7.8,0.4-11.5
		c1.6-7.2,2.7-14.6,5.9-21.4c2.9-6.3,6-12.6,10.5-17.9c5.4-6.4,11.5-12.4,19-16.5c1.4-0.8,1.7-1.1,0.1-2.3
		c-6-4.7-12.7-8.3-19.1-12.4c-1.7-1.1-2.8-0.6-4.3,0.2c-11.1,6.2-20.3,14.9-28.6,24.3c-8.4,9.5-15.2,20.3-20.2,32
		c-2.7,6.4-5.6,13-4.4,20.3c0.9,4.9,1.4,10.1,3.1,14.7C42.9,266.3,41.4,270.5,45.6,273.3z M323.9,38.6c-10.1-1-20.9,0.6-31.6,1.8
		c-2.8,0.3-5.8,0.9-7.3,4.2c-1,2.3,0.9,3.6,1.1,5.5c0.8,5.2,3,9.7,8.7,11.3c1.5,0.4,3.1,0.2,4.5,1.2c1.7,1.2,2.1,0.4,2.2-1.5
		c0.3-5.4,2.7-9.9,7.4-12.6c6.4-3.7,13.2-1.9,19.3,0.5c7.3,2.9,13,8.1,17.1,15.1c5.6,9.6-1.1,18.7-7.5,20.8c-4.4,1.4-5,2.8-2,6.1
		c3.1,3.4,5.5,7.3,7.9,11.2c3.7,6,6.2,12.6,6.5,19.7c0.1,2.1,1.3,3,2.7,3.9c6.3,4.2,11.9,9.3,16.9,14.8c8.1,8.8,15.4,18.2,19.9,29.6
		c4,10.1,4.8,19.9,3.2,30.6c-1.6,10.7,0,21.2,7.2,30.1c2.3,2.8,5.1,3.9,8.7,3.3c2.4-0.4,4.4-1.9,6-3.5c8.5-8,14.6-17.6,18.8-28.5
		c0.6-1.6,1.5-2.4,3.2-2.4c1.4,0.1,2,0.7,2.2,2.2c0.9,9.3,2.7,18.4,5.9,27.2c2.4,6.6,5.3,13.2,11.1,17.5c6.1,4.5,10.8,7,16.7,3.7
		c4.6-2.6,6.9-7,8.7-11.6c2.2-5.5,2.4-11.5,3.8-17.2c0.3-1.2,0.6-2.6,2.5-2.6c1.6,0,2.6,0.9,3.1,2c4.2,8.2,9.1,16,14,23.7
		c3,4.6,5.9,9.2,9.7,13.2c1.7,1.8,3.1,2.6,4.6-0.6c2.7-5.7,3.4-11.7,3.9-17.8c0.8-9.4-1.5-18.2-4.3-27c-3-9.3-7.3-18.1-11.1-27.1
		c-3.2-7.5-7.7-14.5-11.7-21.6c-8.7-15.4-18.9-29.8-29.9-43.6c-6.9-8.8-14.7-16.8-22.8-24.5c-8.3-7.9-17.2-15-26.8-21.2
		c-4-2.6-8.5-4.5-12.2-7.7c-2.7-2.4-3-5.9-0.7-7.9c1.4-1.2,3-0.7,4.6-0.8c9.1-0.3,18.4,0.6,26.9-3.9c1.7-0.9,2.4,0.5,3.2,1.5
		c0.9,1.1,0.9,2.4-0.2,3.2c-1.2,0.9-2.4,1.9-4.1,2.3c-6.8,1.7-13.7,2.6-20.7,2.4c-0.9,0-2-0.4-2.3,0.8c-0.1,0.4,0.3,1.2,0.6,1.3
		c4.2,1.4,7.3,5.4,12.4,4.9c7.6-0.7,15.1,0.7,22.8-1.4c4.9-1.3,9.4-2.9,13.1-6.3c1.7-1.6,4-3.6,3.2-5.9c-0.7-2-3.5-1.9-5.6-1.8
		c-0.5,0-1.1-0.1-1.6-0.2c-9.8-3-20.1-4.1-30-6.4c-6.3-1.5-12.9-1.7-19-4c-1.5-0.5-3.7-0.6-3.2-2.6c0.4-1.9,2.2-3.2,4.4-3.2
		c11.6,0,23.1-0.2,34.8-2c15.3-2.3,30.1,2,44.1,8.2c11.1,4.9,21,12,29.9,20.5c4.9,4.7,5,4.6,7.7-1.4c1.1-2.4,1.5-4.3-1-6.7
		c-4.3-4.1-8.8-7.8-13.5-11.4c-16-12.2-34.1-19.7-54-23.1c-14.6-2.5-28.9-0.4-42.5,4.2c-13.1,4.5-26.4,8.3-40.1,9
		C357,37.1,340.8,38.1,323.9,38.6z M527.4,252.1c-1.3,2.7-1.9,5.3-3.1,7.7c-4,7.9-9.4,7.1-13.7,2c-3.4-4-6.5-8.2-9.5-12.5
		c-3.5-5-6.5-10.3-9.5-15.6c-0.5-0.8-0.9-1.7-2-1.6c-1.2,0.1-1.3,1-1.4,2c-0.1,4.7-2.2,8.7-4.5,12.7c-6.3,11.2-17.9,13.6-28.5,6.3
		c-8.2-5.6-12.2-14-15.9-22.7c-1.8-4.3-1.7-9-3.6-13.2c-0.4-0.8-0.5-1.9-1.7-1.9c-1,0.1-0.8,1.2-1.2,1.8c-4.8,7.5-9.5,15.1-17.2,20
		c-5.5,3.5-12.9,3.9-18.4-1.4c-5.6-5.3-8-12.1-8.7-19.7c-0.1-1.1,0.7-2.7-0.8-3.2c-1.1-0.4-2,1-2.9,1.7c-4.5,3.7-9.5,5.8-15.7,6.1
		c-8.9,0.4-16.7-2.8-24.5-5.8c-17.8-6.7-35.6-13.4-53.4-20.1c-12.3-4.7-24.8-8.9-37.2-13.5c-0.6-0.2-1.3-0.6-1.9,0
		c-0.8,0.8,0.1,1.4,0.5,2c3.3,4.9,6.6,9.7,9.9,14.5c1.1,1.6,1.6,3.7,3.6,4.6c3.6,1.7,7.2,3.2,10.8,4.9c11.9,5.5,23.9,10.9,35.5,17
		c5.8,3.1,11.5,6.5,17.3,9.6c11.7,6.3,22.7,13.4,33.5,21.1c8.2,5.9,16,12.2,23.2,19.4c7.6,7.7,14.6,15.6,17.8,26.1
		c0.6,1.9,0.9,2.2,2.9,1.4c6.3-2.5,12.7-4.3,19.6-3.5c4,0.5,7.6,2.1,11.5,3c7.7,1.9,12.8,7.1,17,13.1s5.7,13,4.9,20.4
		c-0.6,4.9-2.4,9.4-5.7,13.2c-5.7,6.4-12.7,9.1-21.5,8.3c-8.4-0.7-14.4-6.4-14.7-14.7c-0.2-5.9,4.3-8.4,9.1-10.4
		c2.7-1.1,9.3,1.9,11.1,4.6c0.8,1.1,0.4,1.7-0.3,2.7c-2.5,3.2-4.6,0.1-6-0.8c-3.2-1.9-6-0.3-7.5,1.2c-1.7,1.6-1.4,4.8,0.5,7.2
		c3.9,5.2,11.5,7,17.3,3.9c10.2-5.3,14.5-14.3,10.8-26.7c-3.6-12.2-16.5-19-27.3-19.6c-3.8-0.2-7.5,0.6-11.2,1.3
		c-8.9,1.7-15.8,6.5-20.8,13.2c-7.7,10.6-9.3,22.8-5.2,35.6c2.2,6.9,5.4,13,10.6,18.1c5.5,5.5,11.1,10.5,18.7,13.2
		c4.4,1.6,8.8,2.7,13.3,3.9c9.4,2.5,18.4,0.9,27.2-1.5c9.4-2.6,18-7.1,26.2-12.6c13.8-9.2,25.1-20.6,32.5-35.6
		c3.5-7.1,5.3-14.6,7.7-22.1c2.3-7.2,3.4-14.4,4.4-21.7c1.6-11.3,0.5-22.7,0.4-34.1C529.5,258.6,528.1,255.4,527.4,252.1z
		 M575.6,172.5c0.6,6.6-1,12.7-1.3,18.8c-0.3,5.1-1.6,9.8-2.6,14.6c-2,8.9-5.2,17.6-8.8,26c-2.5,5.6-5.6,10.9-9.2,15.9
		c-1.3,1.7-2.6,2.9-5.2,0.9c-6.5-5.2-11.9-11.3-16.5-18.2c-0.5-0.8-1-1.9-2-1.4c-1.4,0.6-0.2,1.6,0.1,2.3c2.8,8.3,3.3,17.1,5.1,25.7
		c1.1,5.4,0.9,11,0.9,16.6c-0.1,13.4-0.4,26.6-3.6,39.8c-2.8,11.5-6.5,22.5-12.1,32.8c-5.8,10.6-14,19.4-21.9,28.4
		c-10.2,11.4-19.4,23.5-27.8,36.3c-1.4,2.1-1.7,3.2,1.7,3.6c9.9,1.1,20,0.8,29.9,3.1c6.9,1.6,13.8,3.3,20.7,5.1
		c1.8,0.5,2.9-0.6,3.1-1.6c0.5-1.6,1.5-2.8,2.1-4.2c5-10.8,9.5-21.9,14.1-33c2.5-6,4.6-12.1,6.7-18.2c2-5.8,3.9-11.7,5.7-17.6
		c2.7-8.8,5.8-17.5,7.8-26.5c1.8-7.6,4.2-15,5.8-22.7c1.8-8.2,4.5-16.2,6.1-24.4c1.5-7.9,2.7-15.9,4.1-23.9
		c1.6-9.3,2.5-18.7,3.5-28.1c3.4-32.1,1.6-64.1-1.6-96.1c-0.4-4.3-0.9-8.7-2-12.8c-1.9-6.7-1.6-13.7-3.6-20.4
		c-1.8-5.9-2.3-12.2-4-18.2c-2.7-9.4-5.4-18.8-8.1-28.1c-0.2-0.8,0.2-2.1-1-2.3c-1-0.1-1.6,0.7-2.3,1.4c-6.3,6.3-10.1,14.1-14,22
		c-1.8,3.6-0.7,6.2,1.1,9c9.1,14.1,16.2,29.1,21,45.2c2.7,8.9,5.5,17.9,6.5,26.9C574.6,157,577,164.8,575.6,172.5z M220.5,43.8
		c-4.9-1.7-9.8-3.7-14.8-4.9c-12.4-3-24.5-6.9-37.1-9.3c-8.8-1.7-17.6-2.8-26.3-4c-7.4-1-15-0.7-22.6-1c-3.4-0.1-6.8-0.3-9.8,2.1
		c-1.9,1.6-4,2.9-6.1,4.3c-0.7,0.5-1.5,0.8-1.2,1.8c0.3,1.1,1.3,0.5,2,0.6c5.2,0.3,10.4-0.5,15.7,0.6c5.8,1.3,11.9,0.2,17.8,1.1
		c9.1,1.3,18,3.7,27.3,4.2c2.2,0.1,4.6,0.8,4.4,3.5c-0.2,2.4-2.4,3.4-4.6,3.4c-3.6,0.1-6.8,1.5-10.1,2.4c-6.1,1.8-11.9,4.4-17.8,6.9
		c-12.7,5.4-24,12.9-34.6,21.7c-11.5,9.7-20,21.6-27.6,34.3c-7,11.7-11.9,24.2-14.5,37.6c-0.4,2-0.4,3.5,2,3.7
		c6.7,0.4,12.9,3.2,18.9,5.6c17.2,6.7,32.4,16.7,46.6,28.3c12.4,10,23.7,21.2,34.5,32.9c8.9,9.7,17.3,19.9,24.7,30.9
		s14.1,22.4,19.8,34.3c4.5,9.3,8.3,18.9,11.7,28.6c2.8,8.3,5.3,16.7,7.8,25.1c2.3,7.6,3.8,15.4,5.2,23.1c1.9,10.3,4.3,20.6,5.1,31.1
		c0.3,3.4,0.8,7.1,1.7,10.4c1,4,0.4,8.2,1.6,12c2.4,7.3,1.4,15,3.8,22.2c1.3,4,1.2,8.5,2.7,12.5c2.3,6.5,4.1,13.1,6.5,19.5
		c3.5,9.4,7.1,18.6,12.1,27.2c5.7,9.8,11.9,19.2,19.2,27.9c2,2.4,3.6,2.4,5-0.2c2.6-4.6,5-9.3,7.4-14.1c5.1-10,8.7-20.5,11.3-31.4
		c1.8-7.7,4.2-15.4,5.2-23.2c1-7.7,2.4-15.4,2.7-23.2c0.1-2.5-0.4-4.3-1.9-6c-1.9-2.2-3.9-4.3-5.9-6.5c-0.5-0.6-0.8-2-2.1-1.3
		c-0.9,0.5-0.5,1.4-0.4,2.2c0.5,11.8-0.7,23.5-2.4,35c-1.9,13.2-4.6,26.4-9.5,38.9c-1.4,3.6-3.1,7.1-5.8,10.1
		c-2.5,2.8-4.5,2-6.4-0.5c-6.8-8.8-12-18.5-16.2-28.8s-7.8-20.8-10-31.8c-1.2-5.8-2.7-11.7-3.3-17.5c-0.6-5.7-1.9-11.3-2.3-17.1
		c-0.7-9.9-3.3-19.7-4-29.7c-0.3-4.3-1-8.7-2.1-12.7c-1.8-6.4-1.7-13.1-3.5-19.5c-1.6-6-2.8-12.2-4.1-18.3
		c-1.4-6.2-3.5-12.2-5.3-18.3c-2.5-8.7-5.3-17.3-8.8-25.6c-6.7-15.9-14.6-31.2-24.2-45.6c-8.8-13.1-18.6-25.2-29.8-36.3
		c-12.3-12.2-25.8-23.1-40.3-32.7c-15.1-10.1-31-18.5-47.8-25.5c-3.8-1.6-4.9-3.6-3.4-7.4c3.6-9.1,7.4-17.9,12.8-26.2
		c5.9-9,12.8-17.1,20.3-24.5c7-7,15.3-12.7,24.2-17.4c14.3-7.7,29.4-12.9,45.1-16.7c5.3-1.3,10.6-3.4,16-3.8
		c5.1-0.4,9.9-2.3,15.1-2.6C213.3,45.7,217,45.4,220.5,43.8z M85.1,257.4c-1.5,10.1,0.5,20.2,4.4,29.7c5.3,13,13.5,24.2,24.9,32.7
		c3,2.2,4,2.1,5.4-1.4c4.4-10.6,12-18,22.7-22c8.5-3.2,17.3-5.6,26.5-2.4c1.5,0.5,2.5,0,3.4-1.7c4.6-8.7,11.6-14.6,21-17.7
		c1.2-0.4,2-0.6,1-2.1c-3.8-6.1-7.2-12.5-11.4-18.3c-10.6-14.8-22.1-28.9-35.1-41.9c-7.6-7.6-15.5-14.8-23.8-21.6
		c-1.7-1.4-3-1.9-5.1-0.4c-6.8,4.6-13.4,9.1-18.6,15.9c-5.7,7.5-9.7,15.6-12.6,24.2C85,239,84,248,85.1,257.4z M271.6,211
		c5.5,11.6,11.1,22.7,16.3,34c4.3,9.3,7.7,18.9,11.3,28.5c3.6,9.4,6.1,19.2,8.6,29c1.2,4.7,2.4,9.4,3.4,14.1
		c0.8,3.9,2.5,7.6,2.1,11.7c-0.2,1.9,1.5,3.3,3.1,4.3c13.7,8,28.4,13.3,44.2,15.3c3.4,0.4,6.1-1.6,9.3-1.6c3.5,0.1,6.5-1.6,9.5-3
		c1.2-0.6,1.8-1.3,1.7-2.7c-0.2-3.7,0.5-7.3,1.6-10.9c2.3-8.1,6-15.3,12.7-20.7c4-3.2,4.4-5.3,2.5-10.1c-3.2-7.8-8.5-14.2-14.4-20
		c-10.7-10.7-22.9-19.5-35.6-27.7c-9.5-6.1-19.1-12-29.2-17.2s-20.2-10.6-30.6-15.3C282.5,216.1,277.1,213.5,271.6,211z
		 M523.3,574.6c3.7-0.5,9.1,0.6,14.7-1.2c5.6-1.8,10.9-3.7,14.5-8.3c1.9-2.5,6-4.7,3.7-9.1c-1.9-3.5-4.1-6.9-7.1-9.4
		c-6.7-5.6-12.2-7.4-20.2-2.2c-7.3,4.7-14.6,9.2-24,5.8c-1.8-0.6-2.9-1.1-2.8-3c0.1-1.8,1.1-2.9,3.1-2.7c1.3,0.1,2.6,0.1,3.8,0.9
		c1.4,0.9,2.9,0.8,4.5,0.2c5.5-1.8,10.2-5,15.2-7.8c4.1-2.3,8.3-3.6,13.4-1.5c3.8,1.6,7.2,3.5,10.5,5.9c1,0.7,2,2.1,3.4,0.7
		c2.1-2.3,1.4-7.8-0.9-10c-3.5-3.2-7.1-6.2-11.1-8.7c-5.9-3.7-12.4-4.1-18.6-1c-4.4,2.2-8.2,5.6-12.4,8.3c-3.9,2.5-8.3,3.7-13,3.6
		c-2.1,0-3.6-1.4-3.7-3.3c-0.1-1.5,1.3-2.4,3.1-2.3c6.5,0,11.7-3,16.6-7.2c5.3-4.5,11.2-7.6,18.6-6.4c1.8,0.3,3.7,0.1,5.6,0.2
		c1.4,0.1,2.6,0,3.1-1.7c0.4-1.7,0-2.9-1.5-3.6c-2.5-1.1-4.9-2.3-7.7-2.6c-11.7-1.4-22.6,1.1-33.1,6.1c-4.8,2.3-10.1,3.9-15.3,4.6
		c-11,1.4-19.7-2.8-25.6-12.4c-0.9-1.5-1.3-3.9-3.7-4.2c-7-1-13.8-2.8-20.7-4.7c-7.1-1.9-14.1-4-21-6.7c-4.3-1.7-8.3-3.8-12.5-5.7
		c-0.9-0.4-2-1.4-2.9-0.4s0.4,2,0.9,2.7c1.2,1.7,1.5,3.6,2.1,5.4c3.8,11,10.3,20.9,14.7,31.6c1.4,3.3,3.6,6.5,2,10.3
		c-2.3,5.2-4.5,10.3-6,15.9c-1.7,6.5,1.6,11.3,4.1,16.4c0.6,1.2,1.4,1.8,2.9,0.1c6.6-7.4,15.3-8.3,24.4-7c4.7,0.7,8.3,3.8,11.6,6.9
		c6.2,5.9,13.3,9.2,22.1,7.8c3-0.5,5.7-1.5,8.8-1.8C498.7,572.1,510,575.3,523.3,574.6z M514,145c0.6,8.2,0.9,17,2.2,25.8
		c1,6.9,2.4,13.8,4.2,20.5c1,3.5,1.8,7.2,3.2,10.7c2.4,5.9,5.2,11.5,8.1,17.1c4.2,8,9.5,15.3,16.2,21.5c1.7,1.6,2.5,2,4.1-0.5
		c9.6-15.7,14.3-33,16.7-51.1c2.4-18.4,0.3-36.4-3.8-54.2c-1.4-6.1-3.2-12.1-5.3-18.1c-4-11.5-9.1-22.4-15.5-32.8
		c-0.8-1.3-1-3.8-3.3-3.3c-1.9,0.4-0.8,2.5-1.2,3.8c-0.2,0.6-0.7,1.1-1,1.7c-1,2.7-1.6,5.7-0.2,8c7.1,11.7,11.6,24.4,15.6,37.4
		c2.9,9.4,5,19,6.6,28.5c1.1,6.7,1.7,14,0.8,20.9c-0.8,6.1-0.3,12.3-2,18.6c-1.6,6-3.3,11.8-5.7,17.5c-0.8,2-1.7,3.8-3.3,5.2
		c-1.5,1.3-3,1.2-4.1-0.3c-6-8.4-10.8-17.5-13.8-27.4c-1.9-6.1-3.8-12.1-4.9-18.5c-1-5.9-2.5-11.7-2.7-17.7
		c-0.3-9.2-0.1-18.5,0-27.8c0-5.4,1.2-10.8,2.1-16c0.9-4.9,1.7-10,2.8-14.9c1.5-6.5,2.7-13,4.8-19.3c2.9-9,6.5-17.8,11.4-26
		c3.9-6.6,8.7-12.5,14.8-17.1c1.7-1.3,2.8-1,4.4,0.5c2,1.9,1.4,4.4,2.3,6.5c3.6,8.4,6.4,17.1,8.3,26c1.6,7.6,3.4,15.3,5,23
		c3,14.4,5.2,29,6.9,43.5c1,9.1,2.3,18.3,2.1,27.6c-0.3,12.6,0,25.1,0,37.7c0,2.9,0.3,5.8-0.5,8.7c-2.1,8.3-1,17-2.7,25.5
		c-1,5.1-1.1,10.6-2.5,15.5c-3,11.3-3.9,23-6.6,34.4c-2.9,11.9-6.2,23.8-9.2,35.7c-1.3,5.2-3.1,10.4-4.4,15.6
		c-1.7,6.7-3.7,13.2-5.9,19.7c-3.8,11.1-7.6,22.3-12,33.3c-4,10-8.2,20-13,29.6c-1.7,3.5-1.4,4.6,2.1,6.3c1.2,0.6,2.7,0.6,3.6,1.3
		c2.8,2.3,3.6,0.6,4.8-1.8c4.5-9.1,7.9-18.6,11.8-27.9c4.8-11.4,8.6-23.2,12.1-35.1c2.6-8.6,5.4-17.2,7.8-25.9
		c1.9-6.8,3.6-13.7,5.4-20.6c2.4-9.2,4.2-18.8,6.6-28c3.1-12,5.1-24.1,6.8-36.2c1.4-9.8,3-19.7,3.7-29.7c0.9-12.8,1.2-25.6,2.2-38.3
		c0.7-9-0.5-18.1-1-27.2c-0.6-12.4-1.2-24.8-3.1-37c-0.8-4.9-0.8-10.1-2.3-14.8c-1.2-3.6-2-7.4-2.4-11c-0.8-7.9-3.3-15.4-5.2-23
		c-2.3-9.5-6-18.5-9.1-27.8c-2.5-7.3-5.7-14.2-9.1-21.2c-0.6-1.3-1.3-1.9-2.7-0.7c-4.3,3.6-9.1,6.8-12.9,10.9
		c-6.9,7.5-13,15.6-17.7,24.7c-4.5,8.8-8.6,17.9-11,27.4c-2.1,8.1-4.2,16.3-5.5,24.7C515.7,120.8,514.6,132.6,514,145z M27.6,292.1
		c-3.6,7.1-3,14-3.7,20.4c-1.1,10.3-2.2,20.7-2.4,31.2c-0.7,34-0.6,68,5,101.7c1.8,10.7,3.8,21.3,7,31.7
		c3.3,10.8,7.5,21.4,12.3,31.7c6.4,13.9,14.3,26.9,23.1,39.4c2.1,3,4.4,5.8,6.7,8.6c0.4,0.5,0.7,1.3,1.5,0.8
		c0.3-0.2,0.5-0.9,0.5-1.3c0.5-7.4,3.2-14.4,3.6-21.9c0.2-3.5,0.1-7.2,1-10.6c2.4-8.9,1.8-18.1,2.7-27.1c1.1-11.8,0.4-23.8,0.5-35.7
		c0.1-9.4-1.3-18.7-2.5-27.9c-1.1-8.4-1.3-16.9-3.3-25.2c-1.6-6.6-2.8-13.4-4.1-20.1c-1.2-6.4-3.5-12.5-5.3-18.7
		c-2.3-8.4-5-16.6-8.2-24.7c-4.9-12.3-9.3-24.8-13.5-37.4c-2-6-3.5-12.2-5.8-18.1c-1.6-4.2-2.1-8.6-3.5-12.8
		c-1.5-4.4-2.7-9.1-3.6-13.8c-1.7-9.2-4-18.2-5-27.5c-0.6-5.8-2.4-11.6-2.6-17.5c-0.3-12.4-1.1-24.8-0.3-37.3
		c0.3-5.4,1.4-10.7,1.7-16c0.3-5.5,1.9-10.7,2.9-16.1c1.2-6.5,3.1-12.9,5-19.3c1.7-5.3,3.2-10.7,4.7-16.1c1.9-6.6,5.2-12.8,7.9-19.1
		c0.5-1.2,0.7-2-1-2.1c-7.8-0.6-9.7,0.6-12.3,8c-0.2,0.5-0.4,1-0.7,1.4c-3.7,7.4-6,15.3-8.1,23.2c-1.8,6.8-3.8,13.4-5.1,20.4
		c-2.1,11.8-4.7,23.5-5.3,35.5c-0.9,22.3-0.5,44.6,4.1,66.6c1.2,5.8,2.1,11.8,3.8,17.5c2.1,6.9,2.8,14,5.3,20.8
		c1.4,4,2.5,8.3,3.8,12.4c1.7,5.4,4,10.6,5.5,15.9c1.7,6.1,3.8,12,6,17.9c4.3,11.5,9.4,22.6,12.6,34.4c1.6,5.9,4.2,11.6,5.2,17.5
		c1.1,6,2.7,11.8,3.6,17.9c1.1,7.7,2.7,15.4,3.7,23.1c1.2,9.4,2.1,18.9,2.4,28.4c0.7,16.6,1.7,33.3,0.8,50c-0.5,8,0.2,16.1-1.1,24.1
		c-0.2,1.5-0.8,2.6-2.1,3.1c-1.4,0.5-2.7-0.4-3.4-1.4c-5.9-8.9-11.3-18-15.5-27.8c-3-6.9-5-14.1-7.8-21.1c-3.6-8.7-4.5-18-7-26.9
		c-1.2-4.5-1.6-9.5-2.3-14.2c-1.4-10.3-2.8-20.6-3.4-31c-0.9-14.6-0.8-29.3-0.6-44c0.1-8.3-0.4-16.6,0.9-24.9
		c1.1-7,1.8-14.1,2.6-21.2c0.1-1.1-0.2-2.4-0.6-3.5C31.7,307.1,29.1,300.3,27.6,292.1z M223,61.1c-3.6,0-7.2-0.3-10.7,0.1
		c-20.7,2.1-27.5,12-28.3,29.8c-0.1,2.5,2.2,4.3,1.6,6.8c-0.2,0.7-0.3,1.7,0.6,2.1c1,0.4,1.2-0.7,1.8-1.2c7-6.5,15-10.3,24.9-10.1
		c5.2,0.1,10.2,0.8,15.4,1.4c14.7,1.8,29.1,4.5,43.6,7.4c7.5,1.5,14.9,3.3,22.4,5c3.3,0.7,6.5,2.1,9.7,3.4c1.5,0.6,2.1,2,1.9,3.6
		c-0.3,1.9-1.9,2-3.4,2c-2.2-0.1-4.6,0.1-6.7-0.7c-5.6-2-11.5-3-17.3-4.5c-12.2-3.2-24.6-5.9-37.1-8c-2.5-0.4-5-0.3-7.4-1
		c-5.9-1.7-12.1-2.3-18.2-2.6c-4.9-0.2-8.4,3.6-8.4,8.5c-0.1,7.3,3.4,12.7,8.8,17.2c3.5,3,7.7,3.7,11.8,2.6
		c4.7-1.3,9.4-1.1,14.1-1.6c17.5-2.1,35-0.5,52.3,2.2c9,1.4,18,2,27,2.4c6.4,0.3,12.6-1.1,19-1.2c4.1-0.1,5.4-2.2,4.2-6.6
		c-2.1-7.4-5.6-14.1-10.2-20.3c-7.4-10-16.5-18-27.1-24.3c-7.7-4.6-15.7-9-25.3-8.2c-2.6,0.2-5.3-0.4-7.9-0.5
		C257,63.4,240.1,61.5,223,61.1z M164.8,181c-2.4,0-4.8,0-7.1,0c-1.1,0-2.7-0.7-3.3,0.6c-0.7,1.5,1.2,1.8,2,2.5
		c13.2,11.6,25.7,23.9,36.3,38c11.1,14.8,20.8,30.5,28.8,47.2c1,2.1,0.5,5.1,3.5,6.2c2.3,0.8,4.4,2.1,6.6,3.1
		c13.3,6.1,25,14.5,37.1,22.5c5.6,3.7,10.5,8.3,16.6,11.2c0.8,0.4,1.3,1.6,2.3,0.9c0.9-0.7,0.3-1.8,0.1-2.6
		c-1.1-4.2-1.8-8.6-3.4-12.6c-2.8-7-4.2-14.5-6.8-21.6c-2.9-8.2-5.9-16.4-9.4-24.4c-6.3-14.4-13.4-28.5-22.6-41.3
		c-4.3-6-7.1-13.7-15.6-15.9c-7.1-1.8-14-4.6-21.2-6.3c-7.4-1.7-14.6-3.9-22.2-4.8C179.2,182.9,172.1,180.8,164.8,181z M388.8,368.1
		c-0.6,0.9-1,1.3-1.1,1.8c-1,6.7-2.6,13.3-3.1,20.1c-1,13.3-0.4,26.6,0.2,40c0.1,1.6,0.4,3.1,0.7,4.7c0.9,4.3,1.9,8.6,2.5,13
		c0.7,5,1.7,9.4,7.2,11.5c5.4,2.1,10.6,4.7,15.8,7.2c11.6,5.5,24,8.6,36.3,12c1.5,0.4,2.3,0,2.3-1.6c0-1.2,0.1-2.4-0.1-3.6
		c-3-17.8,0.8-34.7,8-50.7c5-11.1,11.5-21.4,19.3-30.8c1.9-2.3,4.5-4.3,5.7-8.6c-16,10.2-32.8,15.4-50.4,12.6
		C414.4,392.8,398.9,384.4,388.8,368.1z M433.9,43.2c1.4,1.8,2.3,1.8,3.2,2c9.6,2.1,19.1,4.3,28.8,6.1c3.7,0.7,3.9,2.9,3.3,5.4
		c-2,9-10.7,16.8-19.9,17.8c-5.2,0.6-10.4,1.6-15.7,1.3c-1-0.1-2.4-0.2-2.9,0.8c-0.5,1.2,0.8,1.7,1.6,2.3c13,10,24.5,21.6,35,34.1
		c11.2,13.3,21.2,27.5,30,42.4c4.5,7.6,9.2,15.2,12.8,23.4c1.3-1.2,1.3-2.5,0.9-3.5c-2.1-4.8-1.1-9.9-1.7-14.8
		c-1.7-12.8,0.5-25.6,0.1-38.4c0-0.8,0.2-1.6,0.4-2.3c1.9-4.8,1.6-10,2.5-15c1.2-6.6,3.2-12.9,4.6-19.4c0.9-4,3.9-8.3-0.3-12.1
		c-4.3-4-8.6-8.2-13.3-11.7c-15.3-11.2-32.2-18-51.3-19.4C446.2,41.8,440.5,44,433.9,43.2z M285.5,499.3c4.5-8.8,6.7-17.7,8.7-26.8
		c2.3-10.6,3.9-21.3,5.3-32c1.3-10,0.5-20.1,0.5-30.1c0-1.7-0.9-2.8-1.8-3.8c-4.5-5.1-7.7-11.1-11.5-16.8
		c-5.8-8.7-10.6-17.9-15.8-26.9c-4.4-7.8-9-15.4-13.6-23.1c-6.1-10-12.2-20-18.5-29.9c-0.4-0.6-0.4-2.7-1.9-1.8
		c-1.4,0.8-0.4,2,0,3.1c1,2.7,1.9,5.4,2.6,8.1c1.8,6.6,2.8,13.4,4.6,20c1.7,6.5,1.9,13.1,3.8,19.5c1.4,4.8,1.1,9.9,2.4,14.7
		c1.5,5.2,1.3,10.6,2.6,15.8c1.4,5.7,1.7,11.6,2.4,17.4c0.5,4.6,1.2,9.3,1.8,13.9c0.6,5.1,1.8,10,2.4,15c0.9,7,3.4,13.6,5.3,20.4
		c2.7,9.3,5.8,18.4,10.2,27C278,488.5,280.9,494.2,285.5,499.3z M371.3,542.1c1.4-0.2,2.9-0.2,4.3-0.6c7-1.9,14.2-2.3,21.1-4.5
		c5-1.6,10.1-3,15.2-4.2c2.1-0.5,2.5-1.8,1.7-3.1c-1.6-2.5-2.4-5.3-3.8-7.9c-6.8-13-12.4-26.5-17.2-40.4c-0.3-1-0.8-1.7-1.8-1.9
		c-5.8-1.5-10.6-4.8-15.8-7.7c-2.6-1.5-4.5-1.5-6.9,0.9c-5.4,5.5-10.2,11.5-15,17.5c-4.9,6.3-9,13.2-12.7,20.2
		c-4.8,9-8.9,18.4-12,28.1c-1.3,4-1.4,4.4,2.8,4.3C344.6,542.7,358,543.9,371.3,542.1z M304.1,372.1c-0.2,0-0.4,0-0.5,0.1
		c0.2,2.1-0.3,4.6,0.7,6.2c2.9,5.1,6.4,9.8,9.7,14.6c0.4,0.6,1,1.4,1.9,1s0.8-1.4,0.5-2.1c-0.8-1.6-1-3.3-0.9-5
		c0.3-9.2-2.3-18.1-2.1-27.2c0-1-0.3-2.1-0.7-3.1c-1.7-4.7-1.4-9.8-2.4-14.6c-0.8-4.2-1.9-8.4-2.3-12.7c-0.6-5.5-2.7-10.8-3.5-16.2
		c-1-6.8-2.9-13.3-5-19.6c-2.8-8.5-5.3-17.2-8.5-25.6c-4.7-12.2-9.5-24.2-15.2-35.9c-6.8-13.8-15-26.8-23.5-39.6
		c-11.5-17.3-24.9-32.9-39.2-47.8c-7.4-7.7-15.4-14.8-24-21.3c-9.6-7.1-19.3-13.9-29.1-20.7c-0.7-0.5-1.4-1.5-2.4-0.9
		s-0.7,1.7-0.5,2.5c1,4,2.5,8,3.1,12c1.5,9.9,4.5,19.4,7.2,29c1.2,4.5,1.4,10.6,9,9.1c0.4-0.1,1,0.4,1.4,0.6c1.9,1,2.6,0,2.3-1.7
		c-0.5-2.6-1.1-5.1-2.1-7.6c-1.8-4.6-2.7-9.4-3.7-14.1c-0.3-1.5-0.9-3.7,1.2-4.6c1.8-0.7,3.3,0.6,4.5,1.7c6.5,6,13.2,11.8,19.4,18.2
		c8.6,8.9,17,18,25.1,27.4c12,13.9,22.8,28.6,32.6,44.1c8.7,13.9,15.1,29,21.6,44c3.4,7.9,5.3,16.4,8.2,24.6
		c4.1,11.6,7,23.5,9.4,35.5c1.4,6.8,3.2,13.7,3.7,20.7c0.2,3.1,0.9,6.3,1.3,9.4C302.1,359.2,303.1,365.7,304.1,372.1z M320.5,378.5
		c0.4,5.6,1,11,1,16.4c0,5.1,0,9.8,4.7,13.4c1.4,1.1,2.9,2.6,4.2,4c8.6,10.2,19.1,18,29.7,25.8c4.6,3.4,9,5.8,13.9,0.5
		c0.8-0.8,1.9-1.5,3-1.8c2.6-0.7,2.4-2.5,2.5-4.6c0.2-7.4-1.9-14.7-1.8-22.1c0.2-12.1,1.5-24.2,3.4-36.2c0.3-2,1.6-4.7,0.8-6
		c-1.8-2.5-3.8,1.2-6,0.8c-0.3-0.1-0.5-0.1-0.8,0c-4.8,1.2-9.7,0.8-14.6,1.3c-13.5,1.5-26.4-1-38.6-6.7c-3.3-1.6-2.8-0.2-2.9,1.9
		C319,369.9,321.9,374,320.5,378.5z M67.9,518.1c1.4-3.1,0.6-5.4,0.6-7.7c-0.3-19.8,0.6-39.6-0.5-59.5c-0.5-8.8-1.5-17.6-2.4-26.3
		c-0.7-7.2-2.3-14.3-3.2-21.5c-0.6-4.7-1.6-9.3-2.7-13.9c-1.3-5.3-3.5-10.5-4.5-15.9c-1.1-5.6-3.1-10.8-4.9-16.1
		c-3-8.9-7.5-17.1-9.8-26.3c-0.2-0.6-0.1-1.4-1-1.3c-0.8,0.1-1,0.9-1,1.5c0.8,6.3-2.1,12.2-1.5,18.5c0.3,3.9,0.1,7.9-0.1,11.9
		c-0.8,20.2,0.6,40.3,1.8,60.4c0,0.4,0.1,0.8,0.2,1.2c2.5,5.5,1.2,11.5,2.1,17.2c0.5,3.3,1.5,6.5,2,9.9c0.7,5.3,1.6,10.7,3.1,15.8
		c2.4,8.3,5.3,16.5,8.3,24.6C57.8,500,62.3,508.8,67.9,518.1z M89.3,81.2c-0.4-0.1-0.7-0.4-0.9-0.3c-8.6,4.4-17.8,6.9-27.3,8.7
		c-2.2,0.4-3.8,1.5-4.7,3.6c-2.9,6.8-5.5,13.8-8.2,20.8c-4,10.2-6.9,20.8-9.4,31.5c-2.3,9.9-4,20-4.9,30.2
		c-1.5,17.4-1,34.9,1.3,52.2c0.1,0.7,0.2,1.4,0.9,1.5c0.8,0.1,0.9-0.7,1.2-1.3c3.4-9.4,8.6-17.7,14.2-25.8
		c8.9-12.7,19.7-23.4,32.6-32.1c1-0.7,2.6-1.2,2.3-2.9c-0.3-1.6-1.8-1.4-2.8-1.8c-8.6-3.2-17-6.8-26.2-7.5c-2.8-0.2-3.4-1.6-3.4-4.1
		c0.1-8,2.3-15.6,5-23c6-16.1,14.8-30.8,25.8-44C86.3,85.1,88.8,84,89.3,81.2z M345,548.5C345,548.5,345,548.4,345,548.5
		c-6.5-0.1-13,0-19.5-0.1c-4.3-0.1-5.3-1.8-4.3-5.9c1.4-5.7,3.6-11.2,5.8-16.5c2.8-6.6,5.5-13.3,9.1-19.4
		c6.2-10.3,12.6-20.4,20.7-29.5c7.1-8,14.7-15.2,23.3-21.5c1.3-1,3.7-1.7,3.3-4c-0.4-2.4-1.3-4.8-1.9-7.2c-0.5-2.3-1.6-2.9-3.6-1.6
		c-0.9,0.6-1.9,1-2.8,1.6c-12.9,8.2-24.4,17.8-34,29.9C336,480.9,331,487.6,327,495c-6.3,11.7-11.2,23.9-14.3,36.9
		c-2,8.2-4.4,16.1-4.8,24.6c-0.1,2.5,0.5,3,2.9,3.3c13.2,1.7,26.4,1,39.6,0.5c5.8-0.2,11.7-0.1,17.4-1c10.3-1.6,20.6-3.5,30.8-5.6
		c3.4-0.7,8-0.2,8.9-5.3c0.4-2.2,1.1-4.3,2-6.4c0.8-1.8,0.3-2.6-1.7-2c-9,2.6-18,5.4-27.4,6.2c-6.9,0.6-13.8,1.8-20.7,2.3
		C354.8,548.8,349.9,548.5,345,548.5z M469.5,429.5c18.1,0.9,35.8,3.8,53.1,9.1c10,3.1,19.6,7.3,29,12c8.3,4.2,16.3,8.8,23.6,14.6
		c2.3,1.9,2.2,3.5-0.4,4.9c-5.7,3-12,4.5-18,6.7c-5.1,1.9-10.5,2.5-15.7,3.9c-2.8,0.7-5.7,1.7-8.6,2c-4.7,0.5-9.4,1.6-14.1,1.9
		c-3.7,0.2-5.6,2.7-7.2,5.2c-1.2,1.8-2.8,3.1-3.8,4.9c-0.6,1-2.5,1.4-1.7,2.7c0.6,1.1,2.1,0.5,3.3,0.3c8.1-1.3,16.3-2.4,24.3-4.4
		c7.4-1.8,14.7-3.8,21.9-6.4c4.8-1.7,9.4-3.8,14-5.8c8.1-3.5,15.6-7.9,23.1-12.4c2.7-1.6,2.3-3.1,0-4.8c-2.8-2-5.4-4.1-8.3-6
		c-11.9-7.8-24.4-14.5-37.5-20.3c-15.2-6.7-30.8-11.6-47.1-14.5c-9.3-1.6-18.8-2.1-28.1-3.3c-4.3-0.5-6.8,0.7-8.6,4.8
		c-1.9,4.5-1.9,4.9,2.8,4.8C466.9,429.4,468.2,429.5,469.5,429.5z M480.2,481.2c2-0.9,5.2,1.6,7.9-1.5c9.8-11,17.7-23.4,25.5-35.8
		c0.7-1.2,0.5-1.6-0.7-1.9c-3.7-1-7.4-2.2-11.2-3c-3.5-0.7-7.1-0.7-10.5-1.4c-9.5-2-19.2-1.5-28.7-2.1c-3-0.2-4.9,1.7-5.4,4.2
		c-1.2,6.4-2,12.9-2.9,19.4c-0.8,6,2,11.6,1.8,17.6c-0.1,1.6,0.9,3.3,2.9,3.1C465.8,478.9,472.4,481.9,480.2,481.2z M5.1,79.8
		c0.8,2-1.2,5.1,2.1,5.4c5.6,0.5,11,2,16.7,1.6c8.8-0.5,17.5-0.1,26.4-1.4c8.5-1.2,16.9-2.6,25-5.3c11-3.6,21.2-9.1,30.3-16.5
		c7.4-6,13.8-12.9,19.2-20.7c0.5-0.7,2-1.4,0.6-2.6c-1.1-1-9-0.8-10,0.2c-2.8,2.7-5.7,5.4-8.5,8.3c-8.5,8.8-18.3,15.7-29.6,20
		c-8.1,3.1-16.5,5.4-25.3,6c-10.4,0.7-20.8,2-31.3,0.9c-2.4-0.3-3-1.2-3.1-3.4c-0.3-6.6,3.5-11.2,7.6-15.5
		c9.9-10.5,23.1-14.8,36.7-18c1.6-0.4,3-0.7,4.2-1.9c2.4-2.6,4.9-5.2,7.3-7.8c0.4-0.5,1.1-0.9,0.8-1.7c-0.3-0.8-1.1-0.6-1.7-0.6
		c-1.1,0-2.2-0.3-3.1,0.1c-6.6,2.7-13.8,3-20.5,5.5c-10.4,3.8-20.1,8.6-28.3,16C11.2,56.8,6.9,67.8,5.1,79.8z M535.9,100.6
		c-11.3,34.9-5.6,90.8,12.6,113.3c3.8-8.1,6-16.6,6.5-25.3c0.6-10.4,0.7-20.7-1.2-31.1c-0.9-4.7-1.5-9.5-2.7-14.1
		c-1.5-6.2-3.1-12.5-5.2-18.6C543.3,116.8,539.5,109.3,535.9,100.6z M247.6,311.6c-0.2,0.2-0.4,0.4-0.6,0.7
		c4.5,7.3,9,14.5,13.4,21.8c6.6,11.2,13.4,22.3,19.7,33.7c8.8,15.9,18.6,31.2,30,45.3c11.6,14.5,25.6,26.7,40.6,37.7
		c2.8,2.1,9.8-0.5,10.7-3.9c0.3-1.2-0.5-1.7-1.3-2.2c-1.9-1.2-3.8-2.3-5.6-3.6c-17.3-12.5-32.2-27.4-44.8-44.7
		c-6.7-9.2-12.6-18.9-18.4-28.7c-4.4-7.5-8.5-15.2-13-22.6c-4.7-7.9-7.5-17.3-16-22.6C257.2,319.2,252.5,315.3,247.6,311.6z
		 M144.8,157.4c-2.6,0-5.3-0.2-7.9,0.1c-3.7,0.4-7.3,1.1-10.9,1.7c-0.8,0.1-1.6,0.5-1.7,1.4c0,0.7,0.6,1,1.2,1.3
		c5.3,3,10.3,6.5,15.2,10.1c1.9,1.4,3.5,3.5,6.4,3.5c10.7,0.3,21.5-1,32.2,1.2c4.7,1,9.4,2.1,14.2,2.5c1.9,0.2,4,0.2,5.8,0.7
		c8.7,2.6,17.3,5.4,26,8.1c0.7,0.2,1.6,0.8,2.2,0c0.8-1-0.1-1.7-0.7-2.4c-2.6-2.9-5.7-5.5-7.7-8.8c-4.1-6.6-10.2-9.9-17.4-10.9
		c-8.5-1.3-16.7-3.8-25.2-5.1C166,159.1,155.5,157.2,144.8,157.4z M375.1,465.3c2.5,1.7,4.1,3.1,6,4c11.7,5.3,22.9,11.8,35.1,16
		c7.6,2.6,15,5.8,22.9,7.1c4.2,0.7,8.6,1.5,12.5,2.9c5.5,1.9,11.3,0.6,16.6,2.9c0.7,0.3,2.1,0.2,2.7-0.3c3.6-3,7.2-6.1,10.4-10.4
		c-17.5-1.5-34.1-3.1-50.3-7.8c-5.2-1.5-10.4-3.1-15.3-5.3c-9.4-4-18.9-8.2-27.9-13.1c-3.5-1.9-5.5-0.8-7.5,1.1
		C378.9,463.5,377.6,464.6,375.1,465.3z M531.4,449c-0.2-0.9-1.1-1.5-2.1-1.9c-1.8-0.8-3.8-1.2-5.5-2.1c-3-1.7-4.3-0.3-5.8,2.2
		c-6.7,11.3-14,22.2-22.3,32.3c-7.6,9.3-15.9,17.7-24.7,25.8c-1.2,1.1-2.6,2-1.3,3.8c2.4,3.3,11.1,4.6,14.1,1.8
		c5.7-5.6,11.5-11.1,16.8-17.1c10.3-11.6,18.6-24.6,26.8-37.7C528.9,453.8,530,451.5,531.4,449z M133,19.3c1.3-0.6,3.8,1.2,4.6-1.7
		c0.8-3,1.6-6,2.7-8.9c0.8-2.3,0.2-3-2.2-3.2c-6.4-0.6-12.6,0.4-18.6,2.1c-12.6,3.4-24.2,9.5-34,18c-13.2,11.5-24.3,25-32.7,40.6
		c-1.2,2.3-0.3,2.9,1.8,2.8c5.7-0.3,10.4-2.3,13-7.9c0.8-1.7,1.9-3.1,3-4.6c6.6-9.2,14.3-17.5,22.8-24.9
		c8.7-7.6,18.5-13.7,29.3-17.7c1.7-0.6,5.9-2.2,5.7,2C128.2,19.8,130.3,19.3,133,19.3z M357.3,365.4c4.8-0.5,12.7-0.8,20.3-3.3
		c6.5-2.2,6.3-1.9,5.2-8.4c-0.7-4-2.4-4.7-5.7-3.2c-9.4,4.1-19.2,3.3-28.6,1.1c-10.3-2.4-20.1-6.3-29.4-11.2c-0.9-0.5-1.8-2.2-3-0.9
		c-0.9,0.9-0.7,2.4-0.2,3.4c1.6,2.9,1.3,6.1,1.4,9.2c0.1,1.6,0.3,3,2.1,3.9C330.3,361.5,341.7,365.6,357.3,365.4z M227.3,282.8
		c1.4,3.8,1.9,7.1,3.6,9.6c1.3,1.9,0.1,4.8,3.1,5.9c8.1,3.2,15.3,7.9,22.3,13.1c11.3,8.3,22.3,17,33.8,25.1c0.9,0.7,1.7,2.3,2.9,1.5
		c1.8-1.1-0.2-2.2-0.5-3.3c-0.2-0.9,0.1-1.9-0.3-2.7c-1.7-3.8-0.6-8.5-5.2-11.4c-12.8-8.3-25.1-17.2-37.7-25.7
		C242.6,290.3,235.5,286.5,227.3,282.8z M567.6,467.1c-9.2-6.7-18.4-11.8-28.2-15.8c-1.8-0.7-3.1,0.3-3.9,1.8
		c-3.9,8-9.5,15-13.7,22.8c-0.4,0.7-1.9,1.1-1.1,2.2c0.7,1,2,0.6,2.9,0.4c5.6-1.1,11.2-2.2,16.7-3.4
		C549.3,473.1,557.9,470,567.6,467.1z M32.9,70.9C32.9,70.9,32.9,70.8,32.9,70.9c2.1-0.1,4.2-0.2,6.4-0.1c3.1,0.1,5.2-0.9,6.6-3.8
		c3.2-6.6,7.7-12.4,11.6-18.6c0.4-0.7,1.2-1.1,0.6-1.9c-0.6-0.7-1.5-0.4-2.2-0.1c-3.6,1.3-7.2,2.4-10.6,4C37.5,54,30.2,58,25.7,65.6
		c-2.8,4.7-2.8,4.8,2.4,5.1C29.7,70.7,31.3,70.8,32.9,70.9z M319.8,59.9c2.3-0.7,4.4,0.8,6.3,2c6.3,3.8,10.4,12.9,1.5,17.2
		c-0.7,0.3-1.5,0.8-0.9,1.8c0.7,1,1.7,2.2,2.9,1.3c1.4-1.1,2.9-0.9,4.4-1.3c5-1.4,8.8-6.9,7.5-11c-1.8-5.7-5.2-10-10.4-13
		c-2.9-1.7-6-2.5-9-3.6c-4.7-1.8-10.2-0.9-13.1,2.4c-2.3,2.7-2,7.5,0.6,11.8c0.4,0.6,0.3,1.8,1.4,1.4c1-0.3,0.6-1.3,0.8-2
		C312.8,62.5,315.8,59.9,319.8,59.9z M205,293.5c-0.2-0.2-0.5-0.6-0.7-1.1c-1.6-3.2-3.7-6.3-4.7-9.8c-1-3.8-3.3-4.1-5.8-2.7
		c-6,3.2-11.8,6.9-15.6,12.8c-1.2,1.9-0.8,3.1,1.3,4c3.5,1.5,7.6,1.7,10.5,4.6c0.5,0.5,1.2,0.4,1.8-0.1c3.5-2.8,7.6-4.4,11.8-5.8
		C204.3,295.2,204.9,294.7,205,293.5z M108.1,38.8c-2.2,0.3-3.6,0.2-4.7,0.4C98.3,40,92.7,39.1,88.6,44
		c-4.9,5.8-10.2,11.3-14.5,17.6c-0.4,0.6-1.4,1.1-0.9,2c0.8,1.2,1.6,0.1,2.4-0.2c8.9-3.4,16.5-8.8,23.7-14.9
		C102.4,45.8,106.2,43.7,108.1,38.8z M219.3,338.8c1.5-1.3,1.1-2.5,0.7-3.8c-1.5-4.5-3-9-4.4-13.5c-2.1-6.5-4.3-13-7-19.3
		c-0.5-1.2-1-2.9-2.7-2c-2.5,1.3-5.3,1.5-7.7,2.9c-2.1,1.3-2.4,2.4-0.7,4.1c2.4,2.4,4.3,5.2,6.6,7.5
		C210.8,321.7,214.9,330.1,219.3,338.8z M203.2,159.5c-0.1-0.3-0.2-0.6-0.3-0.7c-6.3-6.2-12.7-12.4-19.1-18.7
		c-0.4-0.4-1-0.6-1.3-0.1c-0.3,0.4-0.5,1-0.3,1.5c1.5,4.8,3.1,9.5,4.7,14.3c0.4,1.1,1,1.8,2.2,1.9c4.2,0.3,8.1,1.9,12.2,2.8
		C202.3,160.8,203.1,160.8,203.2,159.5z M296.8,366.1c0.4-0.2,0.8-0.5,1.2-0.7c-1.5-2.5-1.2-5.2-1.5-7.9c-0.3-3.5-0.4-7.6-2.4-10.1
		c-3.5-4.3-8.4-7.5-13.8-9.8C285.8,347,291.3,356.6,296.8,366.1z M124,53.5c0.7,0.2,1.2,0.5,1.4,0.4c7.5-3.3,14.6-7.2,22.5-9.5
		c0.4-0.1,1-0.7,1-1.1c0.1-1.1-1-1-1.7-1.1c-3.9-0.5-7.9-0.4-11.7-1.7c-1.4-0.5-2,0.6-2.8,1.6C130,45.8,127.1,49.5,124,53.5z
		 M509.3,504.9c-6.3-2.6-11.8-0.8-15.2,5.5C499.6,508.3,504.3,506.7,509.3,504.9z"/>
	<path class="st0" d="M410.9,155.8c-2.2,9.9-5.2,11.5-13.8,7.2c-5.7-2.9-10.8-6.8-15.3-11.4c-1.1-1.1-1.2-2-0.4-3.1
		c1-1.3,2.2-1.8,3.7-0.7c3.6,2.7,7.2,5.2,10.7,8c1.8,1.4,3.9,2.3,5.9,3.2s2.8,0.2,3-2c0.4-4.8-1.3-9.3-2.3-13.9
		c-0.4-1.9-1.5-4.1,1.3-4.9c2.8-0.8,3.2,1.5,3.9,3.4c3.5,10.4,12.5,14.4,21.5,18.3c2.4,1,3.9-0.8,3.5-2.7c-1.9-8.8-4.1-17.7-9-25.3
		c-1.9-3-6.1-4.7-8.9-7.5c-1.3-1.3-3.5-2.3-1.8-4.5c1.8-2.4,3.8-1,5.4,0.5c3.9,3.6,8.3,6.4,12.8,9.2c1.8,1.2,3.9,2,6,2.7
		c1.5,0.5,3,0.3,4.2-1.3c1.1-1.5,0.9-2.5,0.5-4.2c-1.3-5.3-3.2-10.2-5.2-15.2c-0.5-1.4,0-2.8,1.3-3.4c1.6-0.8,3,0.1,3.6,1.5
		c1.8,3.9,4.6,7.9,4.7,12c0.2,7,4.4,11.5,7.4,16.9c3,5.3,6.1,10.6,6.3,16.8c0.2,6.2-4.7,9.6-10.5,7.5c-1.6-0.6-3.1-1.3-4.8-1.7
		c-1.8-0.4-3-1.8-2.5-3.8c0.5-2.2,2.3-1.9,3.8-1.6c1.3,0.3,2.4,1,3.7,1.3c1.4,0.3,3,1.3,4.2,0.1c1.4-1.4,1-3.5,0.4-4.9
		c-2.3-4.9-4.4-9.9-7.4-14.5c-0.8-1.2-2-2.1-2.8-1.3c-2.7,2.6-5.8,1.6-8.6,1.1c-2.8-0.5-2.7,0.4-2,2.3c1.9,5.3,4.2,10.4,4.5,16.2
		c0.3,6-1.8,9.4-6.5,9.6c-2.5,0.1-4.9-0.7-7.2-1.6C419.3,162.3,415.3,159.1,410.9,155.8z"/>
</g>
</svg>
