<?xml version="1.0" encoding="UTF-8"?>
<svg xmlns="http://www.w3.org/2000/svg" viewBox="0 0 432.63 392.64">
  <defs>
    <style>
      .cls-1, .cls-2 {
        fill: none;
      }

      .cls-2 {
        isolation: isolate;
      }

      .cls-3 {
        fill: #f4a2c6;
      }

      .cls-4 {
        fill: #00abde;
      }

      .cls-5 {
        fill: #f69666;
      }

      .cls-6, .cls-7, .cls-8, .cls-9, .cls-10 {
        fill: #fff;
      }

      .cls-11 {
        fill: #fff47c;
      }

      .cls-12 {
        fill: #ffd900;
      }

      .cls-13 {
        fill: #fff100;
      }

      .cls-14 {
        fill: #f1f1f2;
      }

      .cls-15 {
        fill: #f37b4a;
      }

      .cls-16 {
        fill: #ffd300;
      }

      .cls-17 {
        fill: #6b6c6f;
      }

      .cls-18 {
        fill: #7caf37;
      }

      .cls-19 {
        fill: #8d8f91;
      }

      .cls-20 {
        fill: #8bc53f;
      }

      .cls-21 {
        fill: #cf693f;
      }

      .cls-22 {
        fill: #b271ae;
      }

      .cls-23 {
        fill: #d93a4b;
      }

      .cls-24 {
        fill: #bcd752;
      }

      .cls-25 {
        fill: #c23343;
      }

      .cls-26 {
        fill: #dd7043;
      }

      .cls-27 {
        fill: #db605f;
      }

      .cls-28 {
        fill: #14c2f3;
      }

      .cls-29 {
        fill: #16b0db;
      }

      .cls-30 {
        fill: #6dcef5;
      }

      .cls-31 {
        fill: #894b8e;
      }

      .cls-32 {
        fill: #9c57a2;
      }

      .cls-33 {
        fill: #5a4a42;
      }

      .cls-34 {
        fill: #74a634;
      }

      .cls-35 {
        fill: #7bae37;
      }

      .cls-7 {
        opacity: .13;
      }

      .cls-8 {
        opacity: .16;
      }

      .cls-36 {
        fill: #231f20;
        mix-blend-mode: multiply;
        opacity: .12;
      }

      .cls-9 {
        opacity: .23;
      }

      .cls-10 {
        opacity: .44;
      }
    </style>
  </defs>
  <g class="cls-2">
    <g id="OBJECTS">
      <g>
        <g>
          <ellipse class="cls-36" cx="233.23" cy="379.02" rx="145.38" ry="13.62"/>
          <g>
            <path class="cls-32" d="m276.43,139.96c-2.37.35-4.35.87-6.02,1.52.25-.01,27.15-1.47,29.19,33.76,2.05,35.39-44.91,42.38-57.2,34.78s-19.94-15.09-28.03-36.07c-8.09-20.97-10.14-70.73-10.14-70.73l-5.95-15.19c-.16.29-.32.57-.48.88-9.37,17.6-5.61,69.41,9.47,104.7,15.08,35.29,66.62,36.74,88.37,9.67,21.75-27.07.48-66.23-19.2-63.33Z"/>
            <path class="cls-31" d="m240.79,217.13l-.83,3.26c19.89,4.83,42.91-1.22,55.67-17.1,13.54-16.85,10.41-38.38,1.37-51.54-.83.59-1.16,1.34-.55,2.3,2.39,3.76,9.4,15.9,6.38,30.09-3.02,14.19-10.49,26.16-29.98,32.31-19.49,6.15-32.06.69-32.06.69Z"/>
            <g>
              <g>
                <path class="cls-13" d="m274.47,258.28c24.11,19.02,36.16,39.28,66.42,36.2,30.26-3.08,39.24-28.47,31.8-47.96-7.44-19.49-23.59-14.96-26.61-11.44-2.48,2.9-3.3,6.57-.74,10.67,0,0-2.23-6.07.94-9.43,3.68-3.9,16.37-4.23,21.29,5.93,3.23,6.67,8.38,30.02-15.05,37.96-24.46,8.29-36.5-4.45-67.02-25.91-26.34-18.52-49.22-12.2-55-10.12v1.73c5.13-1.16,23.53-3.74,43.97,12.38Z"/>
                <path class="cls-15" d="m285.5,254.3c30.52,21.46,42.56,34.2,67.02,25.91,23.42-7.94,18.27-31.29,15.05-37.96-4.91-10.15-17.61-9.83-21.29-5.93-3.16,3.36-.94,9.43-.94,9.43-2.99-11.28,9.91-11.8,15.81-4.62,5.9,7.18,4.36,24.88-13.34,30.01-17.7,5.13-29.75-7.95-57.21-26.16-24.16-16.02-53.42-5.45-60.11-2.67v1.86c5.78-2.08,28.66-8.4,55,10.12Z"/>
                <path class="cls-23" d="m290.61,244.99c27.46,18.21,39.51,31.29,57.21,26.16,17.7-5.13,19.23-22.82,13.34-30.01-5.9-7.18-18.8-6.66-15.81,4.62-.04-7.44,4.8-8.55,9.95-4.27,10.05,8.36-3.14,41.28-42.73,8.61-39.59-32.67-82.06-8.8-82.06-8.8v1.02c6.69-2.78,35.95-13.35,60.11,2.67Z"/>
                <path class="cls-32" d="m378.83,243.74c-4.8-7.79-13.66-16.03-23.32-16.02,16.41,1.97,28.72,19.32,25.9,41.63s-16.93,46.68-45.91,44.88c-28.98-1.8-42.57-15.39-65.91-41.96-19.41-22.1-34.55-22.94-39.1-22.6v2.93c36.07,3.14,34.94,35.19,64.45,55.29,19.54,13.31,67.88,27.65,85.47-16.97.37-.94.73-1.89,1.06-2.85,5.06-14.43,5.59-30.96-2.65-44.35Z"/>
                <path class="cls-28" d="m269.6,272.27c23.34,26.57,36.93,40.17,65.91,41.96,28.98,1.8,43.08-22.57,45.91-44.88s-9.49-39.67-25.9-41.63c-1.51,0-3.03.2-4.56.64-3.63,1.04-6.93,3.63-8.26,7.17-1.33,3.54-.37,7.97,2.65,10.23-6.19-6.41,1.19-19.36,14.36-15,13.16,4.36,18.38,16.54,18.89,31.16.51,14.62-8.98,37.96-32.06,42.32-23.08,4.36-34.11-1.28-67.19-31.96-27.6-25.6-44.13-25.51-48.85-24.78v2.18c4.55-.34,19.69.5,39.1,22.6Z"/>
                <path class="cls-20" d="m279.34,272.27c33.08,30.68,44.11,36.32,67.19,31.96,23.08-4.36,32.57-27.7,32.06-42.32-.51-14.62-5.73-26.8-18.89-31.16-13.16-4.36-20.55,8.6-14.36,15-2.56-4.1-1.74-7.77.74-10.67,3.02-3.52,19.17-8.05,26.61,11.44,7.44,19.49-1.54,44.88-31.8,47.96-30.26,3.08-42.32-17.18-66.42-36.2-20.44-16.13-38.84-13.54-43.97-12.38v1.59c4.72-.73,21.24-.82,48.85,24.78Z"/>
              </g>
              <path class="cls-27" d="m274.14,234.51s.35.01,1,.06c.65.06,1.61.14,2.82.34,1.21.19,2.67.45,4.33.85,1.67.37,3.53.88,5.52,1.55,2,.65,4.13,1.48,6.34,2.46,1.11.47,2.21,1.06,3.35,1.61,1.14.56,2.25,1.24,3.4,1.88,1.14.67,2.25,1.42,3.41,2.14,1.13.76,2.23,1.59,3.35,2.4,1.1.84,2.16,1.76,3.25,2.65,1.06.88,2.12,1.77,3.19,2.66,1.06.9,2.16,1.68,3.23,2.53,1.08.82,2.24,1.56,3.34,2.33,1.14.73,2.29,1.41,3.41,2.1,1.17.6,2.29,1.28,3.46,1.8,1.17.52,2.3,1.08,3.46,1.48.58.22,1.15.43,1.71.65.58.17,1.15.33,1.71.5,1.12.37,2.24.52,3.32.76,1.08.18,2.14.29,3.16.38,2.03.06,3.92.01,5.55-.32.41-.08.81-.15,1.19-.22.38-.08.73-.22,1.08-.32.69-.21,1.34-.39,1.88-.66.55-.24,1.05-.46,1.48-.65.41-.23.76-.43,1.04-.59.57-.32.87-.5.87-.5,0,0-.28.21-.81.59-.27.19-.59.43-.98.71-.4.25-.89.5-1.43.8-.53.32-1.17.56-1.86.84-.35.13-.7.3-1.09.42-.39.11-.79.22-1.21.33-1.66.49-3.62.71-5.75.75-1.06-.03-2.18-.07-3.32-.2-1.13-.19-2.33-.31-3.5-.64-.59-.15-1.2-.29-1.8-.44-.59-.2-1.2-.39-1.8-.59-1.24-.36-2.41-.93-3.65-1.43-1.22-.52-2.4-1.18-3.63-1.78-1.18-.68-2.38-1.36-3.56-2.11-1.14-.79-2.33-1.53-3.46-2.37-1.11-.86-2.29-1.68-3.35-2.58-1.06-.9-2.13-1.81-3.19-2.71-1.05-.87-2.07-1.77-3.14-2.6-1.09-.79-2.14-1.63-3.22-2.4-1.1-.73-2.17-1.49-3.26-2.17-1.11-.65-2.18-1.33-3.26-1.94-1.1-.58-2.14-1.2-3.21-1.71-2.12-1.05-4.16-1.98-6.09-2.74-.96-.38-1.89-.74-2.78-1.05-.89-.33-1.73-.63-2.54-.87-1.6-.53-3.03-.9-4.21-1.19-2.36-.58-3.74-.79-3.74-.79Z"/>
              <path class="cls-5" d="m265.77,238.96s.43-.01,1.25.05c.81.07,2.01.18,3.49.51,1.5.29,3.28.77,5.31,1.42,2.01.68,4.27,1.5,6.64,2.63,1.2.52,2.4,1.18,3.66,1.81,1.25.65,2.5,1.41,3.81,2.15,1.27.8,2.58,1.61,3.89,2.48,1.29.9,2.63,1.8,3.93,2.79,2.61,1.98,5.23,4.08,7.92,6.1,2.71,2.03,5.54,3.98,8.44,5.8,2.9,1.84,5.87,3.54,8.9,5.01,3.03,1.46,6.08,2.76,9.12,3.7,3.05.93,6.07,1.55,8.97,1.74,2.89.18,5.65-.05,8.1-.69,2.45-.64,4.57-1.65,6.31-2.77,1.77-1.1,3.08-2.38,4.16-3.42,1.01-1.11,1.81-1.99,2.28-2.66.5-.64.76-.99.76-.99,0,0-.23.37-.67,1.05-.42.7-1.11,1.67-2.07,2.86-1.02,1.13-2.27,2.53-4.02,3.78-1.72,1.28-3.87,2.49-6.42,3.27-2.54.8-5.45,1.19-8.49,1.09-3.05-.09-6.24-.62-9.41-1.53-3.17-.92-6.36-2.14-9.47-3.65-3.11-1.49-6.17-3.21-9.13-5.06-2.95-1.87-5.81-3.88-8.54-5.96-1.37-1.03-2.71-2.1-3.99-3.16-1.29-1.04-2.57-2.07-3.83-3.08-1.26-1-2.57-1.9-3.8-2.84-1.26-.9-2.52-1.74-3.74-2.57-2.5-1.57-4.88-3.02-7.18-4.2-.57-.29-1.13-.58-1.68-.87-.56-.26-1.1-.52-1.64-.76-1.05-.52-2.09-.92-3.06-1.34-1.95-.77-3.69-1.36-5.14-1.74-2.91-.82-4.65-.94-4.65-.94Z"/>
              <path class="cls-11" d="m262.17,245.62s.5.12,1.42.41c.92.3,2.27.74,3.94,1.43,1.67.69,3.69,1.56,5.93,2.7,1.14.54,2.31,1.2,3.56,1.85,1.22.7,2.53,1.42,3.84,2.25,2.66,1.59,5.44,3.5,8.32,5.59,1.42,1.07,2.88,2.16,4.34,3.34,1.45,1.18,2.92,2.39,4.39,3.64,2.94,2.51,6.03,4.97,9.23,7.42,3.19,2.44,6.58,4.72,10.12,6.67,3.53,1.95,7.28,3.51,11.12,4.39,3.84.88,7.76,1.14,11.53.88,3.76-.24,7.44-.9,10.78-1.84,3.32-.94,6.39-2.21,9-3.75,2.59-1.57,4.74-3.37,6.4-5.2,1.67-1.83,2.85-3.66,3.7-5.23.85-1.58,1.35-2.9,1.69-3.8.31-.91.47-1.4.47-1.4,0,0-.13.5-.36,1.44-.28.92-.66,2.3-1.44,3.94-.77,1.64-1.87,3.58-3.47,5.55-1.6,1.98-3.72,3.98-6.36,5.7-2.64,1.72-5.75,3.15-9.2,4.22-3.44,1.08-7.12,1.86-11.06,2.17-3.91.32-8.05.18-12.1-.75-4.06-.9-8-2.51-11.67-4.52-3.66-2.03-7.11-4.39-10.33-6.89-3.23-2.48-6.31-5.08-9.2-7.62-1.46-1.26-2.89-2.49-4.29-3.7-1.4-1.2-2.82-2.32-4.19-3.42-2.79-2.13-5.46-4.13-8.03-5.81-2.56-1.7-4.95-3.19-7.12-4.42-2.16-1.25-4.12-2.23-5.73-3-1.62-.77-2.92-1.33-3.82-1.69-.9-.36-1.39-.52-1.39-.52Z"/>
              <path class="cls-24" d="m265.77,255.2s1.61,1.18,4.36,3.34c2.73,2.18,6.65,5.27,11.24,9.12,2.3,1.92,4.78,4.01,7.38,6.25,2.59,2.24,5.32,4.61,8.15,7.05,2.83,2.49,5.82,4.8,8.97,7.11,3.18,2.23,6.53,4.31,10.07,5.95,3.53,1.67,7.27,2.87,11.06,3.43,3.79.57,7.6.6,11.27.28.92-.05,1.83-.16,2.73-.28.9-.12,1.8-.2,2.68-.36.88-.14,1.75-.28,2.61-.42.8-.16,1.69-.37,2.51-.55.42-.1.84-.18,1.24-.28.39-.12.78-.24,1.17-.36.77-.25,1.55-.44,2.29-.73.74-.29,1.47-.57,2.18-.85.71-.29,1.37-.65,2.04-.96,2.62-1.34,4.92-2.81,6.75-4.36,1.85-1.54,3.31-3.06,4.42-4.4,1.08-1.35,1.86-2.48,2.35-3.28.48-.8.69-1.25.69-1.25,0,0-.18.47-.59,1.31-.43.83-1.1,2.04-2.13,3.47-1.04,1.42-2.43,3.05-4.23,4.73-1.78,1.7-4.05,3.34-6.71,4.82-.67.35-1.34.75-2.06,1.08-.72.32-1.46.64-2.21.97-.75.34-1.57.56-2.37.85-.41.14-.81.28-1.22.41-.41.12-.82.21-1.24.32-.85.21-1.64.43-2.56.64-.87.17-1.75.34-2.64.51-.89.19-1.8.3-2.72.44-.92.14-1.85.27-2.8.34-3.77.38-7.75.47-11.73-.13-3.99-.57-7.94-1.81-11.63-3.53-3.69-1.74-7.13-3.91-10.36-6.21-1.58-1.2-3.18-2.35-4.65-3.62-.75-.62-1.49-1.24-2.23-1.85-.71-.63-1.42-1.26-2.12-1.88-2.82-2.5-5.44-4.96-7.98-7.27-2.53-2.31-4.93-4.49-7.14-6.51-4.43-4.02-8.11-7.39-10.73-9.7-2.61-2.32-4.1-3.65-4.1-3.65Z"/>
              <path class="cls-30" d="m271.75,269.39s1.14,1.3,3.22,3.49c1.04,1.1,2.31,2.42,3.8,3.89.74.74,1.54,1.52,2.4,2.33.85.81,1.74,1.67,2.7,2.54.95.88,1.93,1.79,2.99,2.69,1.05.91,2.11,1.88,3.26,2.81,1.14.94,2.28,1.93,3.52,2.86,1.23.94,2.44,1.96,3.76,2.88,2.57,1.92,5.33,3.78,8.19,5.54,1.44.86,2.87,1.79,4.39,2.55,1.5.79,2.99,1.64,4.56,2.29l2.32,1.06.58.27.56.2,1.21.44c.81.29,1.62.58,2.42.87.8.28,1.6.43,2.4.65.8.2,1.59.42,2.39.6.81.13,1.62.27,2.43.4,1.6.33,3.22.37,4.8.5.79.09,1.58.05,2.36.04.78-.01,1.55-.02,2.32-.03.76-.07,1.51-.14,2.26-.21.74-.08,1.48-.11,2.2-.27,1.43-.26,2.84-.46,4.17-.84.67-.17,1.32-.33,1.97-.49.63-.21,1.25-.41,1.86-.6,2.44-.79,4.59-1.75,6.48-2.63.92-.48,1.8-.93,2.59-1.37.77-.47,1.5-.87,2.13-1.29,1.26-.82,2.22-1.51,2.86-2,.63-.51.96-.79.96-.79,0,0-.31.3-.89.87-.6.54-1.49,1.34-2.71,2.25-.6.46-1.31.92-2.06,1.45-.77.5-1.62,1.01-2.52,1.56-1.85,1.03-3.98,2.15-6.44,3.06-.61.23-1.24.47-1.88.71-.65.2-1.32.4-2,.6-1.35.45-2.79.7-4.26,1.03-.73.18-1.5.25-2.26.36-.77.1-1.55.2-2.33.3-.79.03-1.59.07-2.4.1-.81.03-1.63.08-2.45.01-1.65-.1-3.33-.11-5.01-.42-.84-.12-1.69-.24-2.54-.37-.84-.18-1.69-.41-2.54-.62-.84-.23-1.72-.4-2.54-.68-.81-.29-1.62-.57-2.43-.86l-1.22-.43-.65-.23-.6-.27-2.39-1.08c-1.61-.69-3.13-1.56-4.66-2.38-1.55-.79-3-1.75-4.47-2.64-1.49-.87-2.85-1.88-4.24-2.83-1.4-.93-2.69-1.98-3.99-2.96-1.31-.97-2.53-2.01-3.74-3.01-1.22-.99-2.34-2.03-3.46-3.02-1.12-.98-2.17-1.98-3.18-2.96-1.02-.96-1.97-1.93-2.88-2.86-1.84-1.84-3.44-3.6-4.83-5.18-1.4-1.57-2.59-2.98-3.55-4.15-1.92-2.34-2.92-3.75-2.92-3.75Z"/>
              <path class="cls-22" d="m293.97,301.14s.25.21.71.59c.47.38,1.18.9,2.07,1.57.91.66,2.02,1.43,3.34,2.25,1.32.82,2.84,1.69,4.51,2.6,3.37,1.78,7.44,3.58,11.97,4.95,1.12.39,2.3.65,3.48.94,1.17.32,2.39.54,3.61.76.61.11,1.22.23,1.83.34l1.87.21c1.25.13,2.49.31,3.76.31,1.25.03,2.53.16,3.75.12,1.28-.03,2.55-.07,3.81-.1,1.23-.1,2.45-.2,3.65-.3,1.21-.13,2.4-.33,3.57-.48,1.17-.17,2.3-.46,3.42-.66,1.12-.22,2.18-.55,3.24-.81,1.05-.28,2.04-.65,3.02-.95.96-.34,1.88-.71,2.77-1.04.87-.39,1.69-.77,2.48-1.12.77-.4,1.52-.74,2.19-1.13,1.35-.76,2.5-1.48,3.4-2.14.91-.64,1.6-1.19,2.05-1.58.46-.39.68-.62.68-.62,0,0-.2.25-.6.7-.41.44-1.02,1.1-1.88,1.82-.85.75-1.94,1.58-3.24,2.47-.65.45-1.37.87-2.12,1.35-.77.44-1.6.87-2.46,1.32-.89.4-1.8.85-2.77,1.26-.98.37-1.99.79-3.05,1.13-1.07.32-2.16.71-3.29.99-1.14.27-2.3.58-3.5.8-1.2.2-2.42.43-3.67.6-1.26.13-2.53.26-3.81.39-1.26.05-2.53.09-3.81.14-1.34.05-2.61-.06-3.92-.09-1.31-.02-2.6-.21-3.89-.36l-1.93-.24c-.63-.12-1.27-.25-1.9-.37-.63-.12-1.26-.25-1.88-.37-.62-.13-1.22-.33-1.83-.49-1.21-.34-2.41-.64-3.56-1.07-2.32-.76-4.49-1.69-6.5-2.64-2.02-.95-3.85-1.99-5.5-3-1.66-1.01-3.11-2.04-4.36-2.99-1.25-.95-2.31-1.83-3.15-2.57-.85-.74-1.47-1.37-1.9-1.8-.41-.44-.63-.67-.63-.67Z"/>
            </g>
            <path class="cls-13" d="m232.41,164.15c6.41,23.91,26.52,39.21,47.7,25.45,15.39-10,12.05-31.29,1.54-39.92-7.42-6.09-20.66-1.86-18.41,7.87-1.23-5.89,7.12-11.29,15.08-3.86,7.95,7.44,8.46,30.77-15.13,31.8-23.59,1.03-22.57-36.67-28.54-67.34-5.97-30.67-23.01-40.88-23.01-40.88l-1.93-2.2c-.39.16-.82.37-1.26.62,5.45,6.47,14.44,18.96,16.07,32.61,2.36,19.83,1.49,31.94,7.9,55.85Z"/>
            <path class="cls-1" d="m263.24,157.55s-.27-.62-.54-1.62c.23,1,.54,1.62.54,1.62Z"/>
            <path class="cls-28" d="m214.37,173.95c8.09,20.97,15.73,28.47,28.03,36.07s59.26.61,57.2-34.78c-2.04-35.23-28.94-33.77-29.19-33.76-9.35,3.62-8.58,11.14-7.71,14.45-.63-2.7-.76-8.13,6.89-11.47,10.49-4.57,27.7,10.51,25.9,29.24-1.8,18.72-18.11,37.19-46.76,27.18-28.64-10-31.72-73.09-31.72-73.09l-2.65-31.17-11.11-16.2c-1.53,1.89-3.21,4.37-4.99,7.61l5.95,15.19s2.06,49.75,10.14,70.73Z"/>
            <path class="cls-20" d="m217.02,127.79s3.08,63.09,31.72,73.09c28.64,10,44.96-8.46,46.76-27.18,1.8-18.72-15.41-33.81-25.9-29.24-7.66,3.33-7.52,8.77-6.89,11.47.26,1,.54,1.62.54,1.62-2.25-9.73,10.99-13.96,18.41-7.87,10.51,8.63,13.85,29.91-1.54,39.92-21.18,13.77-41.29-1.54-47.7-25.45-6.41-23.91-5.54-36.02-7.9-55.85-1.62-13.64-10.61-26.14-16.07-32.61-1.47.85-3.22,2.31-5.19,4.73l11.11,16.2,2.65,31.17Z"/>
            <path class="cls-15" d="m234.65,118.15c5.97,30.67,4.94,68.37,28.54,67.34,23.59-1.03,23.08-24.36,15.13-31.8-7.95-7.44-16.3-2.03-15.08,3.86.48-9.96,19.34-3.57,11.12,7.31-8.22,10.88-26.57,8.94-26.59-24.42-.02-33.36-18.37-54.63-34.16-65.58,0,0-1.42-.78-3.9.21l1.93,2.2s17.04,10.22,23.01,40.88Z"/>
            <path class="cls-18" d="m295.5,173.7c.63-6.54-1.07-12.62-3.98-17.59.12.72.32,1.5.65,2.38,4.24,11.46,2.32,36.49-19.66,41.55-21.98,5.06-34.37-9.4-34.37-9.4,0,0-.5.85-1.15,1.98,3.34,3.77,7.23,6.68,11.75,8.26,28.64,10,44.96-8.46,46.76-27.18Z"/>
            <path class="cls-14" d="m72.01,186.01c8.22,24.97,37.96,34.79,70.42,29.7l-7.21-43.81s-64.22,11.02-63.21,14.1Z"/>
            <path class="cls-16" d="m209.71,77.05l-.07.09c5.48,6.78,13.37,18.47,14.88,31.16,1.84,15.44,1.72,26.2,4.6,41.49,1.14,1.61,1.79-1.98.78-18.38-2.54-41.2-20.18-54.37-20.18-54.37Z"/>
            <path class="cls-35" d="m209.71,83.13s12.01,16.16,9.9,42.81c-2.11,26.64-13.53-12.35-13.53-12.35l-4.25-25.56,7.88-4.9Z"/>
            <path class="cls-21" d="m269.95,182.08c-14.85,5.24-19.41-7.73-19.41-7.73l-3.08,2.37c3.52,5.71,8.45,9.09,15.73,8.77,17.82-.77,21.88-14.27,19.38-24.04l-1.68.28s3.91,15.11-10.94,20.35Z"/>
            <path class="cls-12" d="m287.82,157.75c-.51.54-.85,1.35-.6,2.57.64,3.21.77,5.9,1.03,11.8.26,5.9-5.96,18.25-21.03,20.26-15.07,2.01-23.59-11.19-23.59-11.19l-1.84,1.89c9.45,11.61,23.63,16.07,38.33,6.52,11.69-7.6,12.57-21.72,7.7-31.84Z"/>
            <path class="cls-29" d="m299.6,175.23c-.6-10.35-3.35-17.52-6.94-22.5.43,1.24,1.05,2.82,1.9,4.82,8.55,19.92,3.71,42.06-18.76,49.49-22.48,7.43-37.31-2.22-37.31-2.22l-.91,2.03c1.53,1.08,3.13,2.12,4.82,3.16,12.3,7.6,59.26.61,57.2-34.78Z"/>
            <path class="cls-26" d="m232.34,103.77c-6.75-18.07-20.09-28.08-20.09-28.08l-1.31.78.69.79s17.04,10.22,23.01,40.88c.76,3.89,1.4,7.88,2,11.9l2.62-1.38s-.17-6.84-6.92-24.91Z"/>
            <path class="cls-14" d="m216.94,118.92s2.4,10.33,15.39,9.64c12.99-.68,119.17-24.79,123.95-24.79,0,0,3.42,17.78,3.42,21.2s-111.64,58.3-117.12,59.66c-5.47,1.37,4.1,53.34,5.47,60.87,1.37,7.52,51.98,59.5,78.65,115.58h-30.95s-2.56-12.31-23.08-21.88c-20.52-9.57-69.35-32.14-74.68-33.51-5.33-1.37-38.94,22.57-49.49,29.41-10.55,6.84-1.65,25.99-1.65,25.99h-26.69s-13.68-10.26-9.92-30.77,20.86-45.14,25.64-54.03c4.79-8.89-2.74-30.77-8.89-50.61-6.15-19.83-16.03-55.64-5.28-72.27,10.75-16.63,95.21-34.48,95.21-34.48Z"/>
            <path class="cls-36" d="m217.43,132.99c3.7-7.67,10.38-4.19,10.38-4.19l-.12-.5c-8.95-1.62-10.75-9.38-10.75-9.38,0,0-6.53,1.38-16.19,3.73l-37.91,43.7-25.27,31.47-11.93,8.08s1.29,15.45,25.91,14.43c24.62-1.03,23.59-21.88,26.33-30.43s10.95-14.96,19.69-25.74,16.16-23.5,19.85-31.16Z"/>
            <path class="cls-14" d="m205.31,29.05c-3.08-4.45-9.92,12.99-9.57,24.96.34,11.97-4.22,20.3-6.27,20.85,0,0,0,0,0,0-1.18-.42-2.38-.81-3.6-1.16h0s0,0,0,0c-5.75-1.67-11.8-2.59-17.48-2.59-8.87,0-20.65.07-31.03,2.35-7.01-1.62-5.2-15.31-4.19-22.87,1.37-10.26-4.82-21.75-7.18-22.39-6.15-1.68-10.94,12.13-13.68,25.13-2.3,10.93,4.03,22.83,5.13,30.82-2.64,3.44-4.17,7.79-4.1,13.29,0,0,1.37,25.65.34,35.9-1.03,10.26,7.52,16.41,8.21,31.12s2.72,27.05,2.74,36.93c0,6.64,6.15,11.63,14.7,13.68,8.55,2.05,20.86,2.74,26.33-5.47,5.47-8.21,7.18-27.01,14.36-34.88,7.18-7.86,18.47-18.23,25.65-31.8,10.94-20.69,14.03-22.23,10.26-42.74-.48-2.61-3.82-6.88-4.98-9.26,0-.01,0-.03,0-.04-1.56-7.59.2-7.11,6.01-21.82s-8.55-35.56-11.63-40.01Z"/>
            <g>
              <path class="cls-17" d="m155.41,205.85c-2.16,1.58-3.45-1.84-1.24-3.56,2.21-1.72,6.87-.94,7.82,2.23,0,0-2.82-3.6-6.67-.81,0,0,1.53,1.08.09,2.13Z"/>
              <path class="cls-17" d="m136.53,203.24c1.87,1.49,3.01-1.71,1.09-3.34-1.91-1.63-5.96-.92-6.8,2.06,0,0,2.47-3.37,5.8-.72,0,0-1.34,1.01-.09,2Z"/>
              <path class="cls-19" d="m152.13,200.68s4.87-5.02,11.4.37c0,0-5.88-3.88-11.4-.37Z"/>
              <path class="cls-19" d="m129.91,196.61s6.02-3.56,10.89,3.37c0,0-4.65-5.29-10.89-3.37Z"/>
            </g>
            <path class="cls-36" d="m133.91,70.85c-2.81-4.71-1.53-14.35-.75-20.25,1.37-10.26-4.82-21.75-7.18-22.39-.88-.24-1.74-.15-2.56.19,7.99,3.08,3.21,25.5-2.64,32.8-3.22,4.02-6.03,5.09-8.03,5.15,1.28,5.97,3.49,11.66,4.42,16.27l6.12,2.08,10.61-13.86Z"/>
            <path class="cls-36" d="m205.31,29.05c-1.24-1.8-3.11-.01-4.86,3.54,4.28-8.03,5.47.09,10.82,14.96,5.35,14.87.29,20.52-4.15,32.87-4.44,12.35,4.7,23.55,2.58,37.73s-22.37,21.38-22.37,21.38l15.71,7.89c.91-1.46,1.79-2.96,2.61-4.51,10.94-20.69,14.03-22.23,10.26-42.74-.48-2.61-3.82-6.88-4.98-9.26,0-.01,0-.03,0-.04-1.56-7.59.2-7.11,6.01-21.82,5.81-14.7-8.55-35.56-11.63-40.01Z"/>
            <path class="cls-36" d="m124.41,217c.89,3.12,1.78,6.04,2.59,8.68,4.5,14.5,9.73,30.1,10.34,40.91,1.45-9.69-4.77-34.9-6.05-40.54-1.28-5.64,2.56-9.64,2.56-9.64,0,0-7.18-1.13-15.9-3.63-8.72-2.5-3.03-10.94-3.03-10.94,0,0-20.31-5.03-28,1.86-.47.42-.83.95-1.1,1.58,9.85,7.54,23.46,11.45,38.59,11.72Z"/>
            <path class="cls-36" d="m180.02,170.91l-55.98,19.72c.33,3.85.57,7.46.58,10.77,0,.49.05.97.11,1.45,8.23-3.41,38.93-16.07,50.75-20.43,1.26-3.03,2.72-5.7,4.53-7.68.26-.29.54-.58.81-.88-.38-1.65-.8-2.94-.8-2.94Z"/>
            <path class="cls-14" d="m71.35,176.41c.12-26.75,74.31-30.31,96.13-34.02,21.82-3.71,37.67-4.48,37.67-4.48l1.98,26.24s-70.1,31.99-99.66,39.91c-39.28,10.52-36.12-27.65-36.12-27.65Z"/>
            <path class="cls-10" d="m197.58,151.25c-.15-8.27.67-10.18,2.98-13.02-6.22.49-18.27,1.65-33.07,4.17-21.82,3.71-96.01,7.27-96.13,34.02,0,0-1.04,12.68,5.6,21.4-.27-2.87.71-6.3,4.51-9.98,10.26-9.92,11.2-3.42,57.75-14.7,46.54-11.28,58.57-10.94,58.37-21.88Z"/>
            <path class="cls-36" d="m274.66,161.16c-23.25,10.94-56.35,23.59-56.35,23.59,0,0,12.92-2.14,13.6,18.94s-3.42,28.25,7.52,47.4c10.94,19.15,53,59.84,40.69,67.02-12.31,7.18-58.47-19.83-73-20.52-14.54-.68-38.65,6.15-51.04,15.39-12.39,9.23-25.73,18.12-25.04,27.7.58,8.15-11.56,13.77-18.41,10.44,3.12,6.63,7.54,9.96,7.54,9.96h26.69s-8.91-19.15,1.65-25.99c10.55-6.84,44.16-30.77,49.49-29.41s54.16,23.94,74.68,33.51c20.52,9.57,23.08,21.88,23.08,21.88h30.95c-26.67-56.08-77.28-108.05-78.65-115.58-1.37-7.52-10.94-59.5-5.47-60.87,5.47-1.37,117.12-56.24,117.12-59.66s-3.42-21.2-3.42-21.2c0,0-2.98,8.12-3.32,15.14-.34,7.03-55.05,31.3-78.3,42.25Z"/>
            <path class="cls-10" d="m230.5,140.9c2.87,8.46,4.15,19.49-10.47,25.39-14.62,5.9-25.65,7.95-30.01,15.9-4.36,7.95-1.46,33.27-13.3,38.18-11.83,4.91-18.09,4.4-28.94,4.91-10.85.51-8.79,4.62-7,15.9s4.95,24.09-4.62,39.76c-7.26,11.9-11.53,18.21-18.72,33.79-7.19,15.58-8.98,27.84,0,29.85s4.36-5.18,10-15.69,12.82-17.44,30.77-29.49c17.95-12.05,35.9-13.34,49.5-10.77,13.59,2.56,26.67,7.95,45.91,15.13s10.51-9.75-1.28-19.75-28.72-25.13-29.75-44.37c-1.03-19.23,5.28-33.26-4.29-44.84-9.56-11.58-21.08-12.86-17.76-12.86s79.4-31.91,105.61-42.24,34.41-15.57,38.77-21.54c3.14-4.3,4.53-10.09,2.58-12.83-26.61,5.34-104.2,22.65-115.18,23.23-5.88,2.34-4.7,3.88-1.83,12.34Z"/>
            <path class="cls-6" d="m241.06,136.07c-2.82,6.71,16.93-.22,48.73-8.59,31.8-8.37,45.59-10.52,45.39-15.04-.2-4.52-33.57,5.64-46.92,8.72-13.35,3.08-45.34,10.48-47.2,14.91Z"/>
            <path class="cls-6" d="m76.16,178.35c1.26-6.67,1-15.6,34.1-23.32,33.1-7.72,68.3-11.71,66.47-8.43-1.83,3.28-45.84,10.46-64.1,14.31-18.26,3.85-37.06,20.59-36.47,17.44Z"/>
            <path class="cls-6" d="m149.51,235.79c-5.89-.59-.51,13.39-1.8,24.39-1.28,11-4.65,17.17-.91,16.01,3.74-1.16,7.84-9.19,8.09-20.44.26-11.24-.26-19.45-5.39-19.96Z"/>
            <g>
              <path class="cls-33" d="m120.17,361.08s-4.45,10.94,4.79,20.52c0,0,18.81,3.42,31.12,0,0,0,.72-10.6-9.22-20.52h-26.69Z"/>
              <path class="cls-36" d="m138.09,361.08c3.72,0,8.46,3.07,8.72,11.79.26,8.72-18.61,9.22-18.61,9.22,5.92.8,18.7,2.05,27.87-.5,0,0,.72-10.6-9.22-20.52h-8.77Z"/>
              <path class="cls-7" d="m122.25,378.19c2.48,1.13,6.38,1.95,11.61.07,8.66-3.12,8.48-14.25,1.61-17.17h-15.3s-3.46,8.52,2.08,17.11Z"/>
              <ellipse class="cls-8" cx="124.69" cy="369.58" rx="2.37" ry="4.68"/>
            </g>
            <g>
              <path class="cls-33" d="m295.76,361.08c-1.2,8.55-2.22,12.31,0,17.78,0,0,15.56,6.15,34.71,0,0,0,.74-8.77-3.76-17.78h-30.95Z"/>
              <ellipse class="cls-8" cx="300.45" cy="369.58" rx="2.37" ry="4.68"/>
              <path class="cls-36" d="m322.23,374.28c-4.23,7.69-22.2,5.13-25.66,4.87,3.42,1.14,17.31,5.04,33.89-.29,0,0,.74-8.77-3.76-17.78h-8.06s7.82,5.51,3.59,13.2Z"/>
              <path class="cls-7" d="m315,374.28c4.22-4.63,3.73-11.09-3.21-13.2h-16.04c-.97,6.95-1.83,10.73-.93,14.85,6.55,2.04,16.56,2.32,20.18-1.65Z"/>
            </g>
            <g>
              <path class="cls-33" d="m356.28,103.77s6.5-6.16,16.41-3.42c0,0,5.81,9.75,1.71,20,0,0-5.47,6.16-14.7,4.62,0,0-4.1-9.4-3.42-21.2Z"/>
              <path class="cls-36" d="m374.4,120.35c4.1-10.26-1.71-20-1.71-20-2.03-.56-3.9-.73-5.61-.68,5.81,3.68,7.94,16.45,1.95,19.93-6.56,3.82-11.03.05-11.09,0,.88,3.34,1.76,5.37,1.76,5.37,9.23,1.54,14.7-4.62,14.7-4.62Z"/>
              <path class="cls-7" d="m366.91,113.72c4.37-5.64.21-11.79-3.4-13.57-4.54,1.09-7.23,3.62-7.23,3.62-.28,4.76.23,9.11.93,12.63,3.05.79,6.97.84,9.7-2.68Z"/>
              <path class="cls-8" d="m362.07,108.49c0,2.58-1.06,4.68-2.37,4.68s-2.37-2.1-2.37-4.68,1.06-4.68,2.37-4.68,2.37,2.1,2.37,4.68Z"/>
            </g>
            <g>
              <path class="cls-33" d="m205.15,137.92s5.64-4.57,15.89-1.83c0,0,5.81,7.18,2.39,22.57,0,0-4.24,4.85-16.31,5.5,0,0-4.88-11.75-1.98-26.24Z"/>
              <path class="cls-8" d="m210.82,146.6c0,2.58-1.06,4.68-2.37,4.68s-2.37-2.1-2.37-4.68,1.06-4.68,2.37-4.68,2.37,2.1,2.37,4.68Z"/>
              <path class="cls-36" d="m221.04,136.08c-2.01-.54-3.84-.79-5.49-.85,6.98,2.71,7.69,22.31-.65,24.26-5.08,1.19-8-.18-9.56-1.56.82,3.87,1.79,6.21,1.79,6.21,12.07-.65,16.31-5.5,16.31-5.5,3.42-15.39-2.39-22.57-2.39-22.57Z"/>
              <path class="cls-7" d="m214.37,155.93c6.92-3.07,3.94-18.1-2.73-20.48-4.24.65-6.5,2.47-6.5,2.47-1.23,6.15-1.06,11.79-.46,16.27,1.64,1.85,4.76,3.92,9.68,1.74Z"/>
            </g>
            <g>
              <path class="cls-23" d="m113.96,114.7c9.59-8.81,9.2-25.66,16.38-40.14,7.18-14.48,37.13-24.81,66.01-11.31-.22-.97-.44-1.78-.64-2.42,0,0-46.65-21.56-69.73,0-23.08,21.56-9.75,51.31-18.98,54.39-3.81,1.27-6.38,1.05-8.11.36,3.37,2.43,9.03,4.67,15.07-.88Z"/>
              <path class="cls-20" d="m126.24,132.99c22.82-.07,32.83-9.04,40.52-24.94,7.31-15.11,16.02-40.39,30.52-39.56-.07-.52-.14-1.03-.22-1.51-21.43-6.84-30.93,11.35-39.27,30.82-8.46,19.75-21.54,30.01-38.21,30.01-12.16,0-19.27-8.05-22.23-12.41-.6-.81-1.02-1.51-1.28-2.01.88,2.15,8.74,19.67,30.17,19.61Z"/>
              <path class="cls-32" d="m181.12,107.27c-8.46,16.41-17.79,28.98-46.16,30.64-21.43,1.26-32.72-13.5-36.96-20.8-1.1-1.82-1.72-3.22-1.93-3.74-.05-.09-.08-.15-.11-.22l-.05-.02c1.78,4.6,17.63,41.54,62.4,25.17,38.1-13.93,41.15-48.81,39.28-67.24-7.67,2.06-7.67,19.17-16.45,36.21Z"/>
              <path class="cls-28" d="m134.96,137.92c28.38-1.67,37.7-14.23,46.16-30.64,8.78-17.04,8.78-34.15,16.45-36.21-.09-.9-.19-1.77-.3-2.59-14.49-.82-23.2,24.45-30.52,39.56-7.69,15.9-17.7,24.88-40.52,24.94-16.3.05-24.75-10.08-28.24-15.88,4.24,7.3,15.53,22.06,36.96,20.8Z"/>
              <path class="cls-13" d="m141.37,94.19c-6.15,16.93-15.13,28.21-28.47,28.27-8.73.04-13.38-4.17-15.56-7.08,2.96,4.36,10.06,12.41,22.23,12.41,16.67,0,29.75-10.26,38.21-30.01,8.34-19.46,17.84-37.66,39.27-30.82-.11-.71-.23-1.39-.35-2.01-32.48-13.57-49.35,12.8-55.33,29.24Z"/>
              <path class="cls-15" d="m95.98,113.16c.26.47.71,1.25,1.36,2.22,2.18,2.92,6.83,7.12,15.56,7.08,13.34-.06,22.31-11.35,28.47-28.27,5.98-16.45,22.86-42.81,55.33-29.24-.12-.61-.23-1.18-.35-1.7-28.88-13.5-58.83-3.17-66.01,11.31-7.18,14.48-6.79,31.33-16.38,40.14-6.04,5.55-11.7,3.3-15.07.88-1.68-.67-2.53-1.78-2.92-2.42Z"/>
              <path class="cls-27" d="m113.42,99.24s-.06-1.14.03-3.12c.05-.99.12-2.2.26-3.58.13-1.38.3-2.94.61-4.63.14-.85.3-1.72.5-2.63.18-.91.41-1.84.68-2.79.13-.48.26-.96.39-1.45.15-.48.31-.97.47-1.46.16-.49.33-.99.49-1.49.2-.49.4-.99.6-1.49.21-.5.39-1.01.62-1.51.24-.5.48-1,.72-1.5.45-1.02,1.04-2,1.63-2.98,1.17-1.97,2.62-3.82,4.23-5.53.85-.89,1.67-1.56,2.51-2.35.92-.72,1.8-1.49,2.74-2.15.94-.65,1.86-1.32,2.85-1.85.95-.59,1.95-1.08,2.93-1.55.97-.48,1.98-.86,2.95-1.24,1-.31,1.95-.68,2.92-.9,1.91-.55,3.77-.82,5.47-1.05,1.71-.19,3.28-.27,4.67-.28,1.39-.02,2.6.02,3.59.05.99.03,1.77.09,2.3.13.53.04.81.06.81.06,0,0-1.13.08-3.11.22-.99.07-2.19.16-3.55.32-1.36.15-2.89.39-4.54.68-1.64.35-3.41.74-5.22,1.35-.92.26-1.81.66-2.75,1.01-.9.42-1.86.79-2.77,1.29-1.85.93-3.64,2.1-5.4,3.38-.89.63-1.68,1.35-2.54,2.03-.8.77-1.71,1.55-2.42,2.31-1.5,1.57-2.88,3.29-4.01,5.14-.56.93-1.15,1.83-1.61,2.8-.25.47-.49.94-.74,1.41-.23.47-.43.96-.64,1.44-.21.48-.42.95-.62,1.42-.18.48-.36.96-.54,1.43-.18.47-.36.94-.53,1.4-.15.47-.3.93-.45,1.39-.31.91-.57,1.81-.81,2.68-.26.87-.49,1.72-.68,2.54-.22.82-.39,1.6-.55,2.36-.18.75-.33,1.46-.46,2.14-.28,1.35-.47,2.53-.61,3.51-.3,1.96-.42,3.09-.42,3.09Z"/>
              <path class="cls-5" d="m122.66,107.99s.16-1.08.57-2.96c.43-1.87,1.03-4.54,1.94-7.7.46-1.58.96-3.29,1.56-5.07.59-1.79,1.21-3.68,1.94-5.6.36-.96.73-1.94,1.1-2.93l.28-.74.16-.4.15-.37c.21-.49.42-.98.64-1.47.4-.98.98-1.99,1.47-2.99.55-.97,1.11-1.94,1.73-2.88.66-.91,1.27-1.85,2.03-2.69.37-.43.71-.87,1.09-1.28l1.17-1.19c.77-.8,1.65-1.47,2.49-2.16.9-.61,1.73-1.3,2.66-1.8.45-.27.9-.53,1.35-.8.45-.25.92-.46,1.37-.68.9-.46,1.82-.82,2.71-1.17.88-.37,1.77-.64,2.63-.91.85-.29,1.69-.48,2.5-.68,1.6-.44,3.11-.64,4.42-.89,1.33-.17,2.48-.35,3.44-.45,1.91-.17,3-.24,3-.24,0,0-1.07.25-2.94.64-.93.2-2.06.49-3.34.8-.64.18-1.31.38-2.03.58-.72.19-1.46.42-2.23.69-.77.25-1.57.51-2.38.85-.81.32-1.66.61-2.48,1.02-.84.38-1.7.77-2.53,1.26-.42.24-.85.45-1.27.7-.41.26-.83.53-1.25.8-.86.5-1.62,1.18-2.45,1.77-.4.32-.76.68-1.15,1.02-.39.34-.79.67-1.13,1.06l-1.09,1.13c-.36.38-.67.81-1.01,1.21-.7.79-1.26,1.69-1.88,2.55-.59.88-1.13,1.8-1.66,2.71-.47.95-1,1.82-1.42,2.82-.22.49-.44.98-.66,1.46l-.17.36-.15.34-.31.73c-.4.97-.8,1.93-1.19,2.87-1.54,3.78-2.92,7.33-4.06,10.39-1.13,3.07-2.08,5.63-2.67,7.44-.61,1.81-.95,2.85-.95,2.85Z"/>
              <path class="cls-11" d="m133.26,116.54s.72-.8,1.83-2.31c1.14-1.49,2.6-3.73,4.18-6.5.79-1.39,1.58-2.92,2.36-4.57.79-1.65,1.51-3.42,2.23-5.28.36-.94.73-1.9,1.11-2.86.41-.97.81-1.96,1.26-2.93.9-1.94,1.85-3.89,2.91-5.79.53-.95,1.08-1.89,1.66-2.8.56-.93,1.16-1.83,1.77-2.71.58-.9,1.23-1.74,1.88-2.57.62-.85,1.31-1.63,1.98-2.4.65-.79,1.35-1.51,2.05-2.21.67-.72,1.4-1.36,2.11-1.97.35-.31.7-.62,1.04-.92.36-.28.72-.55,1.08-.82.71-.53,1.38-1.05,2.09-1.46.7-.42,1.34-.88,2.01-1.21.67-.33,1.31-.63,1.9-.92,1.2-.55,2.32-.88,3.2-1.23.92-.24,1.65-.39,2.14-.5.49-.11.75-.17.75-.17,0,0-1,.38-2.75,1.05-.83.44-1.88.87-2.99,1.53-.55.34-1.13.71-1.74,1.09-.61.39-1.2.87-1.84,1.33-.65.45-1.26,1-1.91,1.57-.32.28-.65.56-.98.85-.31.31-.63.62-.95.94-.65.63-1.31,1.28-1.92,2.02-.63.72-1.3,1.42-1.9,2.21-.62.77-1.26,1.55-1.84,2.39-.6.83-1.2,1.66-1.77,2.53-.59.86-1.16,1.74-1.69,2.65-.56.89-1.08,1.82-1.59,2.75-1.06,1.84-2.01,3.74-2.91,5.62-.43.95-.87,1.88-1.29,2.81-.41.95-.81,1.89-1.2,2.82-.78,1.88-1.65,3.66-2.54,5.3-.88,1.65-1.81,3.15-2.72,4.5-1.8,2.71-3.59,4.76-4.87,6.14-1.29,1.38-2.14,2.06-2.14,2.06Z"/>
              <path class="cls-24" d="m143.86,123.21s.85-.62,2.19-1.85c.68-.61,1.47-1.39,2.33-2.31.87-.92,1.78-2.02,2.77-3.21.96-1.22,1.96-2.57,2.96-4.04.99-1.48,1.95-3.08,2.9-4.76.45-.86.94-1.71,1.37-2.61.42-.9.86-1.81,1.29-2.73.4-.93.8-1.87,1.2-2.82.39-.97.79-1.94,1.18-2.91.83-1.94,1.69-3.87,2.57-5.74.88-1.88,1.85-3.69,2.82-5.42.98-1.72,2-3.36,3.07-4.84,1.04-1.5,2.17-2.82,3.25-4,1.11-1.15,2.19-2.15,3.23-2.92.51-.4.99-.76,1.47-1.06.46-.31.89-.6,1.29-.82.79-.48,1.45-.79,1.9-.99.44-.21.68-.32.68-.32,0,0-.22.15-.63.42-.2.14-.45.3-.75.5-.28.21-.61.45-.98.73-.37.26-.76.59-1.18.94-.43.34-.86.74-1.31,1.18-.92.86-1.85,1.93-2.84,3.12-.95,1.22-1.93,2.57-2.87,4.08-.96,1.49-1.84,3.14-2.76,4.85-.45.86-.88,1.75-1.32,2.64-.42.91-.85,1.82-1.29,2.75-.85,1.86-1.67,3.77-2.47,5.68-.4.96-.81,1.93-1.21,2.89-.43.97-.85,1.93-1.27,2.89-.89,1.89-1.88,3.7-2.9,5.41-1.02,1.71-2.12,3.29-3.22,4.75-.55.73-1.12,1.41-1.66,2.07-.57.64-1.12,1.26-1.65,1.85-.56.56-1.08,1.12-1.61,1.62-.54.48-1.03.96-1.53,1.37-.98.84-1.86,1.53-2.61,2.07-.74.55-1.37.92-1.79,1.18-.42.25-.66.37-.66.37Z"/>
              <path class="cls-30" d="m154.04,128.68s.22-.12.6-.39c.39-.26.92-.69,1.57-1.24.66-.56,1.4-1.29,2.24-2.15.4-.45.82-.92,1.27-1.42.43-.52.87-1.06,1.34-1.63.44-.59.91-1.19,1.37-1.83.45-.65.92-1.32,1.4-2.01.45-.71.91-1.44,1.39-2.19.45-.76.9-1.54,1.37-2.33.89-1.61,1.79-3.28,2.63-5.02.88-1.72,1.65-3.53,2.45-5.32.82-1.82,1.59-3.63,2.43-5.41.8-1.79,1.69-3.51,2.52-5.18,1.7-3.33,3.42-6.37,5.03-8.9,1.59-2.54,3.06-4.56,4.16-5.91,1.1-1.36,1.83-2.04,1.83-2.04,0,0-.6.8-1.49,2.28-.9,1.48-2.11,3.64-3.47,6.26-.68,1.31-1.39,2.75-2.14,4.28-.73,1.53-1.49,3.15-2.28,4.82-.76,1.69-1.54,3.43-2.34,5.2-.81,1.76-1.56,3.61-2.35,5.42-.84,1.82-1.64,3.65-2.57,5.4-.44.88-.89,1.75-1.39,2.58-.49.83-.94,1.68-1.46,2.47-.51.79-.99,1.58-1.51,2.33-.53.74-1.05,1.45-1.55,2.16-.54.68-1.06,1.33-1.57,1.97-.53.62-1.06,1.2-1.56,1.76-.52.55-1.03,1.06-1.52,1.54-.51.46-.99.9-1.45,1.31-.94.79-1.8,1.42-2.53,1.9-1.47.96-2.42,1.3-2.42,1.3Z"/>
              <path class="cls-22" d="m166.43,131.41s.81-.39,2.09-1.28c1.28-.88,3.01-2.26,4.86-4.14.92-.94,1.86-2.01,2.81-3.18.95-1.17,1.84-2.49,2.75-3.84.42-.7.86-1.41,1.29-2.14.4-.74.8-1.5,1.21-2.26.43-.74.75-1.56,1.13-2.34l.55-1.19.48-1.22c.33-.82.65-1.63.97-2.44.31-.83.61-1.67.91-2.49.59-1.65,1.23-3.26,1.81-4.83,1.19-3.12,2.3-6.04,3.25-8.54.94-2.5,1.7-4.59,2.23-6.07.53-1.48.86-2.31.86-2.31,0,0-.17.88-.47,2.42-.3,1.54-.78,3.73-1.5,6.32-.71,2.59-1.62,5.59-2.66,8.77-.53,1.59-1.06,3.24-1.65,4.9-.29.83-.58,1.66-.88,2.5-.31.84-.65,1.69-.97,2.54l-.51,1.26-.59,1.23c-.41.81-.74,1.65-1.2,2.42-.44.78-.87,1.56-1.32,2.31-.49.73-.96,1.46-1.44,2.17-.99,1.39-2.03,2.68-3.09,3.83-1.05,1.16-2.13,2.18-3.17,3.05-2.08,1.77-4.04,2.94-5.45,3.63-1.42.7-2.29.93-2.29.93Z"/>
              <path class="cls-25" d="m130.34,74.56c7.18-14.48,37.13-24.81,66.01-11.31-.06-.26-.12-.51-.18-.76-47.7-19.29-68.44,4.52-72.48,20.64-4.1,16.35-4.96,20.75-11.06,30.03-3.54,5.37-8.56,4.52-12.17,2.85-.58-.1-1.1-.24-1.56-.43,3.37,2.43,9.03,4.67,15.07-.88,9.59-8.81,9.2-25.66,16.38-40.14Z"/>
              <path class="cls-26" d="m112.9,122.47c13.34-.06,22.31-11.35,28.47-28.27,5.98-16.45,22.86-42.81,55.33-29.24-.01-.06-.02-.12-.04-.18-25.83-12.68-46.71,1.12-56.56,20.83-10.26,20.52-11.11,31.63-24.28,34.71-10.66,2.49-17.07-3.74-19.12-6.19-.33-.35-.57-.69-.72-.95.26.47.71,1.25,1.36,2.22,2.18,2.92,6.83,7.12,15.56,7.08Z"/>
              <path class="cls-16" d="m161.64,82.18c-7.18,14.36-14,37.64-35.17,42.85-13.65,3.36-22.37-2.54-26.84-7.16-.95-.85-1.71-1.71-2.28-2.48,2.96,4.36,10.06,12.41,22.23,12.41,16.67,0,29.75-10.26,38.21-30.01,8.34-19.46,17.84-37.66,39.27-30.82-.05-.35-.11-.68-.17-1.01-15.13-6.56-28.82,3.38-35.24,16.22Z"/>
              <path class="cls-4" d="m197.58,71.06c-.03-.33-.07-.65-.1-.97-3.71.73-6.65,3.28-8.81,8.83-2.74,7.01-10.77,51.8-46.68,56.52-23.15,3.04-35.56-7.1-41.46-14.69-.01-.02-.03-.04-.04-.05-.13-.16-.26-.33-.38-.49-.84-1.11-1.54-2.16-2.11-3.1,4.24,7.3,15.53,22.06,36.96,20.8,28.38-1.67,37.7-14.23,46.16-30.64,8.78-17.04,8.78-34.15,16.45-36.21Z"/>
              <path class="cls-31" d="m158.3,138.3c35.72-13.06,40.63-44.52,39.57-63.59-2.91,6.01-4.75,22.51-6.98,29.33-2.56,7.85-12.82,33.18-48.46,36.41-34.11,3.09-45.47-24.73-46.37-27.11-.04-.07-.07-.13-.1-.19l-.05-.02c1.78,4.6,17.63,41.54,62.4,25.17Z"/>
              <path class="cls-34" d="m197.27,68.48c-.02-.17-.05-.34-.07-.51-14-1.41-22.68,14.85-27.18,24.97-4.79,10.77-9.4,33.85-37.96,37.11-24.84,2.83-33.72-11.91-35.61-15.79,1.95,4.16,10.2,18.78,29.78,18.73,22.82-.07,32.83-9.04,40.52-24.94,7.31-15.11,16.02-40.39,30.52-39.56Z"/>
            </g>
            <path class="cls-5" d="m222.34,84.7s.58.35,1.52,1.09c.47.37,1.02.84,1.62,1.41.6.57,1.27,1.23,1.95,1.99.34.38.69.78,1.06,1.19.35.42.7.88,1.06,1.34.75.91,1.43,1.93,2.17,2.98.68,1.08,1.43,2.17,2.08,3.35.64,1.18,1.34,2.35,1.92,3.58.58,1.23,1.19,2.45,1.7,3.69.52,1.23,1.04,2.45,1.45,3.65.43,1.2.83,2.36,1.19,3.47.33,1.12.62,2.18.89,3.16.13.49.26.96.38,1.41.1.45.19.88.27,1.29.16.81.3,1.51.42,2.1.22,1.16.33,1.83.33,1.83,0,0-.27-.62-.72-1.72-.22-.55-.48-1.21-.78-1.98-.28-.77-.63-1.63-1.02-2.55-.39-.93-.8-1.94-1.21-3.01-.45-1.06-.93-2.17-1.42-3.32-.45-1.17-1.07-2.31-1.58-3.52-.51-1.21-1.13-2.39-1.72-3.58-.55-1.21-1.21-2.37-1.82-3.53-.62-1.15-1.26-2.27-1.88-3.35-.68-1.04-1.24-2.12-1.89-3.06-.62-.96-1.22-1.86-1.8-2.68-.58-.82-1.12-1.55-1.62-2.2-.5-.64-.94-1.2-1.32-1.65-.76-.9-1.23-1.38-1.23-1.38Z"/>
            <path class="cls-11" d="m219.6,88.04s.45.43,1.18,1.27c.71.84,1.69,2.07,2.73,3.65.52.79,1.08,1.65,1.61,2.59.53.94,1.11,1.93,1.61,3,.53,1.05,1.05,2.16,1.53,3.3.5,1.14.91,2.33,1.37,3.5.41,1.19.77,2.4,1.15,3.58.34,1.19.61,2.38.9,3.52.26,1.15.45,2.27.65,3.33.22,1.06.3,2.08.42,3.01.11.93.23,1.79.25,2.55.03.76.06,1.43.09,1.98.03,1.1.03,1.72.03,1.72,0,0-.17-.61-.44-1.67-.13-.53-.28-1.17-.46-1.91-.15-.74-.41-1.56-.63-2.46-.25-.9-.45-1.88-.76-2.9-.29-1.02-.59-2.1-.9-3.21-.34-1.1-.72-2.24-1.05-3.4-.39-1.14-.79-2.31-1.18-3.47-.43-1.15-.81-2.32-1.27-3.44-.46-1.12-.86-2.24-1.33-3.29-.88-2.13-1.8-4.08-2.6-5.76-.81-1.66-1.53-3.04-2.05-4-.52-.95-.84-1.5-.84-1.5Z"/>
            <path class="cls-24" d="m214.93,88.04s.37.42.91,1.24c.27.41.59.92.92,1.51.32.6.71,1.27,1.05,2.04.74,1.51,1.45,3.34,2.12,5.33.29,1,.67,2.03.92,3.1.27,1.07.56,2.15.78,3.24.45,2.19.82,4.39,1.05,6.47.25,2.08.38,4.02.42,5.69.09,1.67,0,3.07,0,4.04-.03.97-.07,1.53-.07,1.53,0,0-.13-.55-.33-1.5-.21-.95-.43-2.32-.76-3.94-.3-1.62-.66-3.52-1.04-5.55-.16-1.02-.42-2.05-.61-3.11-.19-1.06-.43-2.13-.66-3.2-.42-2.15-.96-4.27-1.43-6.27-.28-.99-.49-1.96-.75-2.86-.26-.91-.51-1.76-.73-2.55-.48-1.57-.9-2.89-1.24-3.79-.33-.91-.55-1.43-.55-1.43Z"/>
            <path class="cls-5" d="m261.7,177.64s1.08-.22,2.59-.59c.37-.1.77-.2,1.2-.31.42-.1.85-.26,1.31-.38.45-.12.89-.33,1.35-.47.44-.21.91-.34,1.34-.58.44-.21.88-.41,1.29-.66.2-.12.42-.23.62-.34.19-.13.38-.26.57-.39.39-.25.74-.52,1.06-.79.34-.26.66-.52.92-.79.26-.27.55-.49.77-.72.2-.24.4-.44.56-.61.32-.34.53-.53.53-.53,0,0-.05.27-.17.73-.07.23-.14.52-.25.84-.12.32-.3.65-.5,1.02-.1.19-.21.38-.32.58-.14.18-.28.37-.43.56-.29.39-.61.8-1.03,1.13-.2.18-.4.36-.6.55-.22.17-.45.32-.68.48-.45.34-.97.58-1.47.83-.51.26-1.05.41-1.57.6-.53.14-1.06.26-1.58.34-1.03.17-2,.18-2.82.11-1.65-.12-2.67-.58-2.67-.58Z"/>
            <path class="cls-11" d="m250.54,184.3s.15.13.45.34c.3.21.75.5,1.34.84.59.33,1.33.7,2.19,1.06.44.17.89.37,1.4.5.5.16,1.01.33,1.58.44.28.06.56.13.85.2.29.04.59.08.89.12.3.04.61.1.92.13.31.02.63.04.96.06.64.06,1.31.03,1.99,0,.68,0,1.37-.09,2.07-.19.7-.06,1.4-.22,2.11-.39.35-.08.71-.16,1.07-.24l1.06-.33c1.41-.38,2.86-1.05,4.16-1.61.69-.36,1.39-.72,2.08-1.08.69-.36,1.23-.8,1.85-1.19.62-.37,1.14-.89,1.71-1.33.58-.43,1.04-.97,1.53-1.47.51-.48.88-1.06,1.3-1.59.44-.51.73-1.11,1.07-1.65.63-1.12,1.09-2.26,1.44-3.34.17-.54.27-1.08.41-1.58.09-.51.18-1,.26-1.46.05-.47.09-.9.13-1.31.02-.41.03-.78.05-1.12,0-.68-.01-1.22-.04-1.58-.03-.37-.06-.56-.06-.56,0,0,.06.19.17.54.1.36.23.88.34,1.57.04.35.09.73.14,1.14.03.42.04.87.06,1.36-.02.49-.03,1.01-.07,1.56-.07.54-.13,1.12-.25,1.72-.25,1.19-.61,2.47-1.22,3.74-.32.63-.6,1.3-1.03,1.9-.4.62-.81,1.27-1.34,1.83-.5.58-1,1.2-1.61,1.7-.6.52-1.15,1.11-1.85,1.54-.67.44-1.36.98-2.04,1.35-.69.37-1.38.74-2.07,1.11-1.58.67-2.99,1.28-4.56,1.69-.38.11-.76.22-1.14.33-.39.07-.78.14-1.17.21-.77.15-1.53.28-2.3.31-.76.06-1.51.14-2.24.08-.73-.02-1.45-.04-2.14-.16-.69-.08-1.36-.18-2-.36-.32-.08-.63-.16-.94-.23-.3-.1-.59-.2-.88-.3-1.15-.38-2.14-.88-2.99-1.37-.85-.48-1.53-.99-2.07-1.42-.54-.44-.92-.83-1.18-1.09-.25-.27-.38-.42-.38-.42Z"/>
            <path class="cls-24" d="m244.9,190.84s.2.19.61.51c.4.33,1.04.75,1.85,1.28.83.49,1.84,1.09,3.08,1.6,1.22.54,2.65,1.01,4.23,1.43.8.17,1.62.4,2.49.49.43.07.87.13,1.32.2.45.04.91.07,1.37.11,1.86.16,3.83.05,5.85-.11.99-.14,2.06-.29,3.03-.45,1.03-.25,2.14-.44,3.15-.72,1.01-.3,2.03-.55,3.03-.96.5-.19,1.01-.36,1.51-.57l1.46-.68c1.92-.94,3.79-2.02,5.4-3.39,1.61-1.35,3.08-2.83,4.27-4.44,1.2-1.61,2.15-3.33,2.87-5.03.71-1.7,1.21-3.41,1.51-5.01.59-3.2.6-5.99.47-7.92-.12-1.93-.32-3.03-.32-3.03,0,0,.08.27.22.77.13.51.33,1.25.49,2.22.3,1.93.68,4.74.29,8.15-.19,1.7-.57,3.52-1.25,5.38-.67,1.85-1.58,3.75-2.82,5.52-1.24,1.77-2.73,3.47-4.48,4.92-1.72,1.49-3.72,2.68-5.77,3.71l-1.57.71c-.53.22-1.07.39-1.61.59-1.06.42-2.18.68-3.28.99-1.09.3-2.14.44-3.2.66-1.15.16-2.19.27-3.26.38-1.07.02-2.12.12-3.15.07-1.03-.07-2.04-.07-3.01-.23-.49-.07-.96-.13-1.44-.19-.47-.1-.92-.2-1.37-.29-.9-.17-1.75-.47-2.56-.71-1.62-.54-3.04-1.19-4.24-1.88-1.21-.65-2.18-1.37-2.97-1.95-1.54-1.23-2.23-2.11-2.23-2.11Z"/>
            <path class="cls-30" d="m244.26,202.9s1.19.48,3.32,1.12c1.06.33,2.37.67,3.88,1,1.51.32,3.23.61,5.11.83.94.1,1.92.2,2.94.23,1.01.07,2.06.06,3.14.05,1.08,0,2.17-.14,3.29-.22.56-.08,1.12-.17,1.68-.25l.85-.12.85-.2c.57-.13,1.14-.26,1.71-.4.57-.16,1.13-.37,1.69-.55l.85-.28.21-.07.18-.08.43-.18c.58-.24,1.16-.47,1.74-.71,2.2-1.02,4.42-2.15,6.43-3.61,2.03-1.42,3.91-3.04,5.55-4.85,1.64-1.8,3.07-3.74,4.21-5.78,1.14-2.03,2.06-4.1,2.74-6.14.15-.51.34-1.03.46-1.5.12-.51.28-1.04.36-1.51.2-.96.35-1.94.45-2.87.38-3.75.28-6.95.14-9.17-.14-2.23-.29-3.5-.29-3.5,0,0,.33,1.24.69,3.45.32,2.22.8,5.41.64,9.3-.04.97-.12,1.98-.28,3.06-.06.55-.19,1.03-.29,1.56-.12.57-.27,1.07-.41,1.63-.6,2.16-1.46,4.39-2.62,6.56-1.16,2.17-2.58,4.31-4.32,6.23-1.73,1.93-3.71,3.68-5.85,5.2-2.14,1.52-4.5,2.71-6.87,3.77-.58.23-1.17.46-1.74.69l-.44.17-.25.09-.23.07-.92.27c-.61.18-1.21.37-1.82.53-.61.12-1.22.25-1.82.37l-.9.18-.9.11c-.6.07-1.19.13-1.78.2-1.18.03-2.33.12-3.45.07-2.24-.04-4.34-.29-6.25-.64-.96-.15-1.86-.38-2.72-.57-.85-.23-1.66-.45-2.41-.68-1.5-.47-2.78-.93-3.82-1.36-1.05-.41-1.83-.81-2.37-1.07-.53-.28-.82-.43-.82-.43Z"/>
            <path class="cls-22" d="m245.15,214.48s1.42.32,3.92.61c1.25.15,2.78.27,4.53.32,1.75.06,3.72-.01,5.86-.13,2.14-.2,4.44-.47,6.84-.99.6-.13,1.2-.26,1.81-.4.61-.15,1.21-.35,1.83-.52.61-.19,1.24-.34,1.86-.56.61-.23,1.23-.45,1.85-.68,1.27-.41,2.46-1.07,3.71-1.61.63-.26,1.21-.64,1.82-.97.6-.34,1.21-.67,1.82-1.01,1.15-.72,2.4-1.53,3.57-2.32l1.7-1.25c.57-.41,1.13-.84,1.66-1.31l1.63-1.36c.54-.46,1.02-.97,1.53-1.45,1.05-.94,1.92-2.04,2.84-3.07,1.67-2.19,3.27-4.42,4.28-6.86l.42-.89c.13-.3.22-.61.33-.92.22-.61.43-1.21.65-1.81.19-.61.32-1.22.48-1.82.14-.61.34-1.19.4-1.8.42-2.39.62-4.7.63-6.84-.02-1.07.02-2.1-.06-3.08-.07-.98-.13-1.91-.2-2.78-.19-1.74-.42-3.26-.6-4.51-.48-2.48-.72-3.91-.72-3.91,0,0,.42,1.38,1.11,3.83.29,1.24.63,2.74.97,4.48.13.88.27,1.81.42,2.8.16.99.16,2.04.25,3.14.12,2.19.05,4.59-.3,7.11-.04.64-.22,1.26-.34,1.9-.14.64-.25,1.29-.43,1.94-.2.64-.41,1.28-.62,1.94-.11.32-.2.66-.33.98l-.42.95c-.29.64-.56,1.29-.86,1.93-.35.62-.7,1.24-1.06,1.86-.33.64-.75,1.23-1.17,1.82-.43.58-.83,1.2-1.29,1.76-.96,1.1-1.88,2.27-2.96,3.26-.53.51-1.04,1.05-1.59,1.54l-1.69,1.43c-.56.49-1.15.93-1.75,1.36l-1.8,1.3c-1.22.81-2.38,1.56-3.65,2.34-1.29.68-2.52,1.43-3.83,2-1.32.54-2.58,1.19-3.9,1.58-.65.22-1.3.44-1.95.66-.64.22-1.3.35-1.95.52-.65.15-1.28.34-1.91.46-.64.11-1.27.23-1.89.34-2.49.45-4.87.58-7.06.66-1.1-.02-2.15,0-3.15-.05-1-.08-1.94-.11-2.82-.23-1.77-.19-3.29-.43-4.54-.68-1.25-.23-2.21-.51-2.87-.69-.65-.19-1-.31-1-.31Z"/>
            <path class="cls-36" d="m204.23,34.19s7.51,14.53,5.41,32.48c0,0-3.45-2.32-11.37-3.42,0,0,4.22-1.49,9.27.62,0,0,2.09-14.64-3.32-29.69Z"/>
            <g>
              <path class="cls-3" d="m145.25,83.5s-65.86-39.97-73.14-36.6c-7.29,3.37,47.12,53.77,57.73,59.22,10.61,5.45,20.89-19.34,15.41-22.62Z"/>
              <path class="cls-36" d="m145.25,83.5s-.35-.21-1-.6c1.5,6.77-9.28,16.68-14.12,15.01-5.71-1.97-16.2-7.29-13.59-12.86,1.99-4.25,8.79-9.32,11.89-11.49-.39-.22-.78-.45-1.18-.68-3.66,2.87-12.58,9.39-17.28,8.71-6-.88-10.87-5.53-9.99-8.88.72-2.77,8.76-7.24,11.53-8.71-.34-.19-.67-.37-1.01-.55-2.44,1.54-9.07,5.48-12.58,5.27-4.35-.26-9.19-1.56-11.75-6.13-2.02-3.61,4.67-6.79,7.57-7.97-.54-.27-1.07-.53-1.6-.79-2.56,1.49-10.32,5.35-15.47.65-4.27-3.9-4.38-6.48-4.02-7.71-.21.03-.39.08-.55.15-7.29,3.37,47.12,53.77,57.73,59.22,10.61,5.45,20.89-19.34,15.41-22.62Z"/>
              <path class="cls-9" d="m89.85,52.72c-7.22-3.45-13.16-5.81-16.2-6-.12.48-.11,1.19.36,2.22,1.02,2.21,3.45,6.01,10.22,5.76,4.04-.15,5.47-1.03,5.62-1.98Z"/>
              <path class="cls-9" d="m95.57,55.53c-2.72.58-5.57,1.63-6.66,4.23-1.38,3.29,5.38,8.63,10.73,7.25,4.22-1.09,7.82-3.16,8.38-4.93-4.23-2.3-8.45-4.53-12.45-6.55Z"/>
              <path class="cls-9" d="m103.88,73.64c.37,4.63,6.04,6.68,11.93,4.3,5.35-2.17,8.85-4.46,8.23-6.89-3.43-1.96-7.08-4.03-10.8-6.09-4.01,1.08-9.67,4.9-9.36,8.68Z"/>
              <path class="cls-9" d="m142.57,81.89c-2.65-1.59-7.09-4.23-12.51-7.37-3.71,1.63-9.44,6.49-9.45,11.6-.01,5.99,7.97,10.85,13.44,8.02,4.54-2.34,8.65-8.45,8.52-12.25Z"/>
              <path class="cls-9" d="m86.19,52.95c-.22.55-2.46.15-5-.89-2.54-1.04-4.42-2.32-4.2-2.87.22-.55,2.46-.15,5,.89,2.54,1.04,4.42,2.32,4.2,2.87Z"/>
              <path class="cls-9" d="m103.97,63.51c-.37.54-2.51-.27-4.78-1.81-2.27-1.54-3.81-3.23-3.44-3.78.37-.54,2.51.27,4.78,1.81,2.27,1.54,3.81,3.23,3.44,3.78Z"/>
              <path class="cls-9" d="m120.85,73.16c-.54.74-2.78.04-5-1.57-2.22-1.61-3.59-3.52-3.05-4.26.54-.74,2.78-.04,5,1.57,2.22,1.61,3.59,3.52,3.05,4.26Z"/>
              <path class="cls-9" d="m140.03,85.05c-.69,1.1-3.87.36-7.1-1.67-3.23-2.02-5.3-4.55-4.61-5.66.69-1.1,3.87-.36,7.1,1.67,3.23,2.02,5.3,4.55,4.61,5.66Z"/>
            </g>
          </g>
        </g>
        <path class="cls-6" d="m398.07,23.77c-1.83-.02-14.38-.67-14.96-13.97-.58,13.3-13.14,13.94-14.96,13.97h7.29s-7.29,0-7.29,0c1.83.02,14.38.67,14.96,13.97.58-13.3,13.14-13.94,14.96-13.97h-7.29s7.29,0,7.29,0Z"/>
        <path class="cls-6" d="m50.12,100.99c-1.83-.02-14.38-.67-14.96-13.97-.58,13.3-13.14,13.94-14.96,13.97h7.29s-7.29,0-7.29,0c1.83.02,14.38.67,14.96,13.97.58-13.3,13.14-13.94,14.96-13.97h-7.29s7.29,0,7.29,0Z"/>
        <path class="cls-6" d="m36.39,226.9c-1.83-.02-14.38-.67-14.96-13.97-.58,13.3-13.14,13.94-14.96,13.97h7.29s-7.29,0-7.29,0c1.83.02,14.38.67,14.96,13.97.58-13.3,13.14-13.94,14.96-13.97h-7.29s7.29,0,7.29,0Z"/>
        <path class="cls-6" d="m101.17,257.81c-1.83-.02-14.38-.67-14.96-13.97-.58,13.3-13.14,13.94-14.96,13.97h7.29s-7.29,0-7.29,0c1.83.02,14.38.67,14.96,13.97.58-13.3,13.14-13.94,14.96-13.97h-7.29s7.29,0,7.29,0Z"/>
        <path class="cls-6" d="m29.92,51.25c-1.83-.02-14.38-.67-14.96-13.97-.58,13.3-13.14,13.94-14.96,13.97h7.29s-7.29,0-7.29,0c1.83.02,14.38.67,14.96,13.97.58-13.3,13.14-13.94,14.96-13.97h-7.29s7.29,0,7.29,0Z"/>
        <path class="cls-6" d="m386.9,165.97c-1.83-.02-14.38-.67-14.96-13.97-.58,13.3-13.14,13.94-14.96,13.97h7.29s-7.29,0-7.29,0c1.83.02,14.38.67,14.96,13.97.58-13.3,13.14-13.94,14.96-13.97h-7.29s7.29,0,7.29,0Z"/>
        <path class="cls-6" d="m432.63,217.43c-1.24-.02-9.76-.45-10.15-9.48-.39,9.02-8.91,9.46-10.15,9.48h4.94s-4.94,0-4.94,0c1.24.02,9.76.45,10.15,9.48.39-9.02,8.91-9.46,10.15-9.48h-4.94s4.94,0,4.94,0Z"/>
        <path class="cls-6" d="m345.33,216.4c-1.24-.02-9.76-.45-10.15-9.48-.39,9.02-8.91,9.46-10.15,9.48h4.94s-4.94,0-4.94,0c1.24.02,9.76.45,10.15,9.48.39-9.02,8.91-9.46,10.15-9.48h-4.94s4.94,0,4.94,0Z"/>
        <path class="cls-6" d="m257.61,46.7c-1.24-.02-9.76-.45-10.15-9.48-.39,9.02-8.91,9.46-10.15,9.48h4.94s-4.94,0-4.94,0c1.24.02,9.76.45,10.15,9.48.39-9.02,8.91-9.46,10.15-9.48h-4.94s4.94,0,4.94,0Z"/>
        <path class="cls-6" d="m114.02,9.48c-1.24-.02-9.76-.45-10.15-9.48-.39,9.02-8.91,9.46-10.15,9.48h4.94s-4.94,0-4.94,0c1.24.02,9.76.45,10.15,9.48.39-9.02,8.91-9.46,10.15-9.48h-4.94s4.94,0,4.94,0Z"/>
        <path class="cls-6" d="m59.05,156.86c-1.24-.02-9.76-.45-10.15-9.48-.39,9.02-8.91,9.46-10.15,9.48h4.94s-4.94,0-4.94,0c1.24.02,9.76.45,10.15,9.48.39-9.02,8.91-9.46,10.15-9.48h-4.94s4.94,0,4.94,0Z"/>
        <path class="cls-6" d="m432.63,113.17c-1.24-.02-9.76-.45-10.15-9.48-.39,9.02-8.91,9.46-10.15,9.48h4.94s-4.94,0-4.94,0c1.24.02,9.76.45,10.15,9.48.39-9.02,8.91-9.46,10.15-9.48h-4.94s4.94,0,4.94,0Z"/>
        <path class="cls-6" d="m306.59,88.04c-1.04-.01-8.18-.38-8.51-7.95-.33,7.57-7.47,7.93-8.51,7.95h4.15s-4.15,0-4.15,0c1.04.01,8.18.38,8.51,7.95.33-7.57,7.47-7.93,8.51-7.95h-4.15s4.15,0,4.15,0Z"/>
      </g>
    </g>
  </g>
</svg>