<?xml version="1.0" encoding="UTF-8"?>
<svg id="Calque_1" data-name="Calque 1" xmlns="http://www.w3.org/2000/svg" viewBox="0 0 100 100">
  <defs>
    <style>
      .cls-1 {
        fill: #fff;
      }

      .cls-2 {
        fill: #3fa9f5;
      }
    </style>
  </defs>
  <circle class="cls-2" cx="50" cy="50" r="50"/>
  <path class="cls-1" d="m46.86,25.09c.08-.17.08-.25.08-.33v-5.83c0-1.61,1.32-3.06,2.89-3.14,1.65-.08,3.14,1.12,3.35,2.77v6.24c0,.08-.04.21.04.25s.17-.08.21-.12l3.72-3.72c.5-.5,1.03-.87,1.7-1.03,1.7-.41,3.43.7,3.76,2.48.21,1.07-.17,2.03-.91,2.81-2.07,2.15-4.18,4.22-6.28,6.28-.66.66-1.36,1.36-2.03,2.03-.17.17-.25.33-.25.58v10.83c0,.37,0,.41.37.21,1.49-.87,2.98-1.74,4.47-2.56,1.65-.95,3.31-1.9,4.96-2.85.21-.12.29-.25.37-.45.99-3.72,1.98-7.48,2.98-11.2.33-1.2,1.03-2.03,2.19-2.4,1.82-.58,3.68.62,3.97,2.52.08.58-.04,1.12-.17,1.7-.45,1.61-.87,3.27-1.32,4.88,0,.04-.04.08-.04.17-.04.12,0,.17.17.12.12-.04.25-.12.37-.21,1.61-.91,3.14-1.9,4.75-2.77.74-.41,1.53-.58,2.36-.33,1.24.33,2.07,1.16,2.32,2.44.25,1.28-.21,2.36-1.28,3.14-.74.54-1.57.95-2.4,1.41-.99.58-1.94,1.12-2.94,1.65-.08.04-.17.04-.17.17,0,.08.12.08.21.08,1.74.45,3.47.91,5.21,1.36,1.53.41,2.44,1.53,2.48,3.06.04,1.24-.74,2.52-2.19,3.02-.66.21-1.32.17-1.94,0-3.18-.87-6.37-1.74-9.59-2.56-.54-.17-1.07-.29-1.61-.45-.21-.08-.41-.04-.62.08-1.12.66-2.27,1.32-3.43,1.98-1.49.87-2.98,1.7-4.47,2.56-.54.29-1.07.62-1.61.95-.25.12-.25.17,0,.29,1.16.66,2.32,1.32,3.47,1.98,1.98,1.12,3.97,2.27,5.91,3.43.25.17.45.17.74.12,3.72-.99,7.4-1.98,11.12-2.98.95-.25,1.86-.25,2.69.29,2.11,1.45,1.82,4.18-.04,5.33-.54.33-1.2.45-1.78.62-1.45.41-2.89.79-4.38,1.16-.08.04-.21,0-.21.12,0,.08.12.12.17.17,1.7.99,3.39,1.94,5.09,2.94,1.12.66,1.65,1.7,1.53,2.98-.12,1.32-.87,2.27-2.11,2.69-.87.29-1.74.21-2.52-.29-1.65-.95-3.31-1.9-4.96-2.89-.08-.04-.21-.21-.33-.12s0,.21.04.33c.45,1.74.91,3.47,1.41,5.21.58,1.98-1.07,4.09-3.22,3.93-1.28-.08-2.19-.74-2.69-1.94-.41-.99-.62-2.07-.87-3.1-.79-2.94-1.57-5.83-2.36-8.76-.04-.21-.17-.33-.37-.41-1.61-.91-3.22-1.86-4.84-2.77-1.49-.87-2.98-1.74-4.47-2.6-.04-.04-.12-.08-.17-.08-.17-.08-.25-.12-.25.12v11.04c0,.25.12.37.29.54,1.61,1.61,3.22,3.18,4.8,4.8,1.16,1.16,2.36,2.32,3.51,3.51,1.74,1.82.79,4.18-.83,4.96-1.24.62-2.6.37-3.64-.66-1.24-1.2-2.44-2.44-3.64-3.64-.12-.12-.29-.25-.41-.37-.08.12-.04.21-.08.33v5.83c0,1.41-.91,2.6-2.23,3.02-1.9.62-4.01-.91-4.01-2.94v-5.91c0-.08.04-.21-.04-.29-.12,0-.17.08-.21.17-1.32,1.28-2.6,2.6-3.93,3.89-.5.5-1.12.83-1.86.91-1.41.17-2.81-.7-3.27-2.03-.45-1.32-.12-2.44.83-3.43,1.78-1.82,3.64-3.64,5.46-5.46.95-.95,1.86-1.86,2.81-2.81.17-.17.21-.33.21-.54v-10.91c0-.25-.08-.25-.25-.12-1.82,1.07-3.64,2.07-5.46,3.14-1.32.79-2.65,1.53-4.01,2.27-.25.12-.37.29-.45.58-.99,3.68-1.94,7.32-2.94,10.96-.21.79-.54,1.53-1.2,2.03-.91.7-1.9.91-2.98.5-1.12-.41-1.78-1.24-2.03-2.44-.12-.54,0-1.07.12-1.57.41-1.65.87-3.27,1.32-4.92,0-.04.04-.08.04-.17s.04-.17,0-.21c-.08-.04-.12,0-.17.04-1.03.54-2.07,1.16-3.1,1.78-.74.41-1.45.87-2.19,1.24-1.28.62-2.77.33-3.68-.7-1.28-1.49-.95-3.76.74-4.75,1.65-.95,3.27-1.98,4.92-2.85.12-.08.37-.12.33-.29,0-.12-.25-.12-.37-.17-1.65-.45-3.27-.87-4.92-1.32-1.28-.33-2.15-1.12-2.48-2.4-.45-1.78.83-3.43,2.52-3.76.54-.08.99,0,1.49.12,3.68.99,7.32,1.98,11,2.98.33.08.66.08.99-.12,2.36-1.32,4.63-2.73,6.95-4.05.74-.41,1.53-.87,2.32-1.28.29-.17.29-.21,0-.37-3.1-1.78-6.2-3.6-9.3-5.37-.25-.17-.5-.21-.79-.12-2.73.74-5.5,1.49-8.23,2.23-.99.29-2.03.54-3.02.83-1.82.5-3.68-.62-3.97-2.52-.21-1.7.83-3.14,2.4-3.56,1.74-.45,3.47-.91,5.21-1.41.08-.04.25,0,.29-.12,0-.08-.12-.12-.21-.21-1.7-.95-3.35-1.9-5.04-2.89-1.12-.66-1.7-1.74-1.53-3.06.12-1.36.95-2.23,2.27-2.65.83-.25,1.65-.08,2.4.33.91.5,1.82,1.03,2.73,1.57.79.45,1.53.91,2.32,1.36.08.04.17.12.21.08.08-.08,0-.17,0-.25-.45-1.74-.87-3.43-1.36-5.17-.45-1.65.33-2.94,1.28-3.56,1.74-1.16,4.05-.33,4.67,1.65.33.99.58,2.03.83,3.06.74,2.85,1.53,5.66,2.27,8.52.04.21.17.33.33.41,1.41.79,2.81,1.57,4.18,2.4,1.74.99,3.47,2.03,5.21,3.06q.37.21.37-.21v-10.79c0-.25-.08-.45-.25-.62-2.73-2.77-5.42-5.46-8.1-8.19-.58-.58-.99-1.24-1.12-2.07-.17-1.28.58-2.65,1.78-3.18,1.32-.58,2.6-.33,3.76.83s2.32,2.32,3.43,3.47c.17.17.29.29.41.45Z"/>
</svg>