<?xml version="1.0" encoding="UTF-8"?>
<svg id="Calque_1" data-name="Calque 1" xmlns="http://www.w3.org/2000/svg" viewBox="0 0 100 100">
  <defs>
    <style>
      .cls-1 {
        fill: #fff;
      }

      .cls-2 {
        fill: none;
        stroke: #c8646d;
        stroke-miterlimit: 10;
        stroke-width: 8px;
      }
    </style>
  </defs>
  <circle class="cls-1" cx="50" cy="50" r="50"/>
  <path class="cls-2" d="m23.09,47.48c.23-5.76,2.43-10.48,7.43-13.59,5.01-3.14,11.41-2.52,15.86,1.36,1.09.95,2.02,2,2.83,3.2q.35.54.7,0c2.08-3.11,4.89-5.3,8.58-6.15,5.34-1.22,9.86.39,13.49,4.39,3.03,3.34,4.27,7.41,3.98,11.88-.17,2.64-1.09,5.1-2.37,7.41-2.12,3.88-5.01,7.14-8.19,10.15-4.52,4.29-9.51,7.96-14.81,11.2-.68.41-1.34.43-2.02.02-6.29-3.84-12.17-8.21-17.27-13.55-2.76-2.91-5.2-6.04-6.79-9.78-.95-2.15-1.4-4.27-1.42-6.54Z"/>
</svg>