<?xml version="1.0" encoding="UTF-8"?>
<svg id="Calque_1" data-name="Calque 1" xmlns="http://www.w3.org/2000/svg" viewBox="0 0 100 100">
  <defs>
    <style>
      .cls-1 {
        fill: #fff;
      }

      .cls-2 {
        fill: #22b573;
      }
    </style>
  </defs>
  <circle class="cls-2" cx="50" cy="50" r="50"/>
  <g>
    <path class="cls-1" d="m74.06,66c-3.42.07-6.62-.97-9.68-2.34-1.94-.86-3.81-1.87-5.58-3.06-1.37-.9-1.94-2.48-1.55-4.03.4-1.48,1.62-2.55,3.2-2.73.94-.11,1.76.22,2.55.68,2.84,1.76,5.79,3.27,9.1,3.96,4.46.94,8.31-1.4,9.25-5.65.97-4.35-1.94-8.46-6.37-8.92-.4-.04-.76-.11-1.15-.14-2.09-.22-3.45-1.8-3.35-3.92.11-1.91,1.62-3.35,3.63-3.38,7.99-.14,14.72,6.51,14.86,14.47.14,7.12-5,14.03-13.03,15.08-.65.07-1.3,0-1.91,0Z"/>
    <path class="cls-1" d="m50.24,12.49c9.43,0,16.34,8.53,14.5,17.96-.86,4.46-2.81,8.46-5.25,12.23-1.12,1.69-3.35,2.12-5,1.08-1.69-1.04-2.27-3.2-1.26-4.97,1.4-2.41,2.81-4.82,3.67-7.48.43-1.33.68-2.66.68-4.07-.04-4.07-2.95-7.2-7.2-7.38-4.32-.18-7.23,3.13-7.56,6.41-.04.47-.11.94-.14,1.44-.18,1.87-1.84,3.27-3.78,3.24-1.87-.04-3.45-1.55-3.53-3.38-.32-7.12,5.22-13.82,12.27-14.9.86-.14,1.73-.18,2.59-.18Z"/>
    <path class="cls-1" d="m50.13,90.18c-7.45,0-13.78-5.54-14.68-12.95-.36-2.88.11-5.69,1.04-8.42,1.08-3.09,2.52-6.01,4.32-8.78.94-1.4,2.52-1.98,4.07-1.58,1.51.4,2.59,1.69,2.7,3.35.07.86-.22,1.66-.65,2.37-1.51,2.41-2.81,4.89-3.6,7.59-.47,1.55-.76,3.13-.5,4.79.54,3.49,3.85,6.33,7.41,6.26,3.78-.07,6.98-2.99,7.3-6.62.04-.4.11-.76.14-1.15.25-2.05,1.84-3.42,3.85-3.31,1.98.11,3.42,1.62,3.45,3.67.18,8.06-6.59,14.79-14.86,14.79Z"/>
    <path class="cls-1" d="m11.27,51.25c0-8.28,6.55-14.83,14.86-14.83,3.2,0,6.15.86,9.03,2.09,2.09.9,4.1,1.94,6.05,3.2,1.91,1.26,2.45,3.38,1.33,5.22-1.12,1.76-3.35,2.23-5.29,1.01-2.81-1.76-5.76-3.2-9.03-3.92-4.32-.94-8.17,1.22-9.28,5.22-1.26,4.35,1.69,8.82,6.19,9.36.43.04.83.11,1.26.14,1.98.14,3.45,1.8,3.38,3.81-.07,1.94-1.66,3.45-3.63,3.49-8.17.14-14.86-6.51-14.86-14.79Z"/>
    <path class="cls-1" d="m46,50.99c0-2.45,1.8-4.32,4.21-4.32s4.35,1.8,4.35,4.25-1.8,4.32-4.32,4.32c-2.41.04-4.25-1.8-4.25-4.25Z"/>
  </g>
</svg>