<?xml version="1.0" encoding="UTF-8"?>
<svg id="Calque_1" data-name="Calque 1" xmlns="http://www.w3.org/2000/svg" viewBox="0 0 100 100">
  <defs>
    <style>
      .cls-1 {
        fill: #fff;
      }

      .cls-2 {
        fill: #c1272d;
      }
    </style>
  </defs>
  <circle class="cls-2" cx="50" cy="50" r="50"/>
  <path class="cls-1" d="m74.39,58.91c-.04,3.06-.56,6.11-1.75,9.05-.87,2.18-2.06,4.21-3.49,6.11-1.79,2.38-3.97,4.37-6.51,5.87-2.1,1.27-4.33,2.22-6.67,2.9-.24.08-.48.12-.71.16h-.12s0-.08,0-.12c.08-.16.16-.28.24-.44.64-1.15,1.07-2.34,1.11-3.65,0-1.71-.56-3.22-1.67-4.53-1.19-1.43-2.74-2.26-4.56-2.5s-3.53.2-5.04,1.27c-1.79,1.31-2.78,3.06-2.98,5.24-.12,1.23.28,2.34.75,3.45.16.36.36.67.52,1.03.04.04.12.12.04.16-.04.08-.12.04-.2,0-.64-.12-1.23-.32-1.83-.52-1.67-.52-3.29-1.19-4.88-2.02-1.83-.99-3.49-2.14-5.08-3.49-2.06-1.75-3.69-3.85-5.04-6.23-1.11-1.98-1.83-4.09-2.06-6.35-.16-1.39-.12-2.78.08-4.17.36-2.38,1.23-4.56,2.26-6.67,1.03-2.1,2.3-4.05,3.53-6.03.64-1.03,1.27-2.1,1.83-3.18.48-.91.99-1.79,1.35-2.78.6-1.63,1.11-3.25,1.19-5,.08-1.23.08-2.46-.12-3.65,0-.08-.04-.16.04-.24.08-.04.12.04.2.08.79.56,1.51,1.15,2.14,1.83,1.39,1.43,2.38,3.06,2.7,5.04.16.91.16,1.83.12,2.74-.08,2.02-.67,4.01-.99,5.99-.16.95-.28,1.87-.28,2.82,0,1.91.87,3.33,2.42,4.33,1.31.83,2.74,1.19,4.29,1.15,3.22-.08,5.8-2.3,6.59-5.36.36-1.31.4-2.62.32-3.93-.12-1.94-.71-3.73-1.43-5.52-.79-2.02-1.83-3.93-2.78-5.87-.71-1.43-1.43-2.9-1.98-4.37-.6-1.59-.99-3.22-1.15-4.88-.24-2.5.24-4.88,1.23-7.14.75-1.83,1.79-3.49,3.02-5.04.87-1.11,1.83-2.18,2.82-3.22.2-.08.24-.2.36-.16.08.04.04.16.04.24,0,2.42.28,4.8.87,7.14.36,1.43.87,2.82,1.51,4.17,1.11,2.38,2.58,4.53,4.29,6.55,1.11,1.35,2.3,2.58,3.49,3.85,1.79,1.91,3.61,3.73,5.2,5.8,1.47,1.87,2.78,3.81,3.77,5.91,1.11,2.34,1.91,4.8,2.38,7.38.32,1.75.48,3.53.56,5.32.04.48.04.91.08,1.47Z"/>
</svg>