<?xml version="1.0" encoding="utf-8"?>
<!-- Generator: $$$/GeneralStr/196=Adobe Illustrator 27.6.0, SVG Export Plug-In . SVG Version: 6.00 Build 0)  -->
<svg version="1.1" id="Calque_1" xmlns="http://www.w3.org/2000/svg" xmlns:xlink="http://www.w3.org/1999/xlink" x="0px" y="0px"
	 viewBox="0 0 213 213.1" style="enable-background:new 0 0 213 213.1;" xml:space="preserve">
<style type="text/css">
	.st0{fill:#9E9E9E;}
	.st1{fill:#333333;}
</style>
<g>
	<path class="st0" d="M29.6,179c-1.9-0.5-2.6-2.3-3.7-3.5c-12.2-13.9-19.8-30.1-23.6-48.1c-1.9-9-2.8-18.3-2-27.5
		c0.8-8.7,2.1-17.4,5-25.7c3.2-9.4,7.4-18.2,12.8-26.5c4.7-7.3,10.4-13.6,16.6-19.4C42.9,20.7,52,14.6,62.1,9.9
		c9.4-4.3,19.3-7.2,29.5-8.7c9-1.3,18.1-1.8,27.2-0.4c7.6,1.2,15.2,2.6,22.5,5.1c12.5,4.4,23.9,10.7,34,19.3
		c9.9,8.5,18.2,18.2,24.4,29.6c3.6,6.5,6.5,13.3,8.7,20.5c3.2,10.7,4.9,21.6,4.7,32.8c-0.3,16.1-4.1,31.4-11.3,45.9
		c-4.2,8.4-9.5,16.1-15.7,23.1c-0.6,0.7-1.2,1.7-2.4,1.7c-1.7-3.7-4.4-6.7-7.8-8.7c-2.6-1.6-5.3-3.1-8.4-4c-5-1.4-9.8-3.5-14.8-5
		c-4.6-1.4-9.4-2.6-13.7-4.9c-4.5-2.3-8.4-5.4-10.9-9.8c-3.5-6.1-4.2-12.8-3.9-19.7c0-0.8,0.3-1.4,0.9-2c4.4-4.4,7-9.9,8.9-15.7
		c0.8-2.4,1.2-5.3,4.6-6c0.9-0.2,1.3-1.4,1.6-2.4c1.1-3.7,2.4-7.4,2.8-11.3c0.2-2.4,1.1-5-1.4-6.9c-0.5-0.4-0.3-1.1-0.3-1.7
		c0.2-8.2-0.8-16.3-2.5-24.3c-2-9.2-6.7-16.5-15.4-20.5c-2-0.9-3.4-1.7-3.3-4.2c0-1.4-0.7-2.9-1.5-4.1c-3-4.5-7-6.3-12.5-6.3
		c-5.6,0-11.4,4.1-12.3,9.9c-0.4,2.7-1.7,3.9-4.1,5c-10.8,5.1-14.5,14.9-16.2,25.8c-1,6-1.4,12.2-1.1,18.3c0.1,1.3-0.1,2.3-1.2,3.3
		c-1.1,0.9-1.2,2.3-1,3.9c0.5,3.4,1.5,6.6,1.9,10c0.3,2.6,1.5,5.4,4.2,6.3c1.6,0.5,2,1.2,2.4,2.6c1.9,7,4.9,13.4,10.2,18.5
		c0.5,0.4,0.6,1,0.6,1.6c0.2,7.3-0.4,14.3-4.7,20.7c-3.6,5.2-8.1,8.8-13.9,10.9c-9.3,3.2-18.8,5.7-27.9,9.5
		C36.9,169.8,32.2,173.3,29.6,179z"/>
	<path class="st1" d="M29.6,179c2.6-5.8,7.3-9.2,13-11.5c9.1-3.8,18.6-6.3,27.9-9.5c5.8-2,10.4-5.6,13.9-10.9
		c4.3-6.4,4.9-13.4,4.7-20.7c0-0.6-0.1-1.1-0.6-1.6c-5.3-5.1-8.3-11.5-10.2-18.5c-0.4-1.4-0.8-2-2.4-2.6c-2.7-0.9-3.9-3.8-4.2-6.3
		c-0.4-3.4-1.5-6.6-1.9-10c-0.2-1.6-0.1-2.9,1-3.9c1.1-0.9,1.3-2,1.2-3.3c-0.2-6.1,0.2-12.3,1.1-18.3c1.7-10.9,5.4-20.7,16.2-25.8
		c2.4-1.1,3.7-2.3,4.1-5c0.9-5.7,6.7-9.9,12.3-9.9c5.5,0,9.6,1.8,12.5,6.3c0.8,1.3,1.6,2.7,1.5,4.1c0,2.5,1.4,3.2,3.3,4.2
		c8.8,4.1,13.5,11.3,15.4,20.5c1.7,8,2.7,16.1,2.5,24.3c0,0.6-0.2,1.3,0.3,1.7c2.5,1.9,1.7,4.6,1.4,6.9c-0.4,3.9-1.7,7.6-2.8,11.3
		c-0.3,1-0.7,2.2-1.6,2.4c-3.4,0.6-3.8,3.6-4.6,6c-1.9,5.9-4.5,11.3-8.9,15.7c-0.6,0.6-0.8,1.2-0.9,2c-0.4,6.9,0.4,13.6,3.9,19.7
		c2.5,4.4,6.4,7.5,10.9,9.8c4.4,2.3,9.1,3.5,13.7,4.9c5,1.5,9.8,3.5,14.8,5c3.1,0.9,5.8,2.5,8.4,4c3.3,2,6.1,5,7.8,8.7
		c0.1,1-0.7,1.5-1.3,2c-8.3,7.9-17.1,14.9-27.4,20.1c-8.6,4.4-17.5,7.5-26.8,9.7c-9.7,2.2-19.5,2.8-29.4,2.1c-14-1-27.5-4.7-40-11.1
		c-9.1-4.7-17.7-10.4-25-17.7C32.3,182.5,30.1,181.5,29.6,179z"/>
</g>
</svg>
