<?xml version="1.0" encoding="utf-8"?>
<!-- Generator: $$$/GeneralStr/196=Adobe Illustrator 27.6.0, SVG Export Plug-In . SVG Version: 6.00 Build 0)  -->
<svg version="1.1" id="Calque_1" xmlns="http://www.w3.org/2000/svg" xmlns:xlink="http://www.w3.org/1999/xlink" x="0px" y="0px"
	 viewBox="0 0 213 213" style="enable-background:new 0 0 213 213;" xml:space="preserve">
<style type="text/css">
	.st0{fill:#9E9E9E;}
	.st1{fill:#333333;}
</style>
<g>
	<path class="st0" d="M22.4,170.5c-1.1-0.2-1.6-1.1-2.2-1.9c-8.7-12.4-14.9-26-17.9-40.9c-1.7-8.7-2.8-17.6-2.1-26.4
		C1.4,85,5.4,69.5,13.5,55.1c6.1-10.8,13.7-20.4,22.9-28.5c6.3-5.5,13.2-10.3,20.7-14.1c6.4-3.3,13-6.2,19.9-8.1
		c5.8-1.6,11.7-2.9,17.7-3.5c4.9-0.5,9.7-1.1,14.6-0.9c9.9,0.6,19.7,2,29.2,5.1c7,2.2,13.7,5,20.1,8.6c5.7,3.2,11.1,6.9,16,11.2
		c6.9,6,13.4,12.4,18.6,20c7.9,11.5,13.9,23.8,16.8,37.6c1.8,8.6,3.1,17.3,2.9,26.1c-0.4,14-3.3,27.4-8.9,40.2
		c-3.2,7.1-6.9,14-11.6,20.2c-0.5,0.6-0.9,1.2-1.7,1.3c-0.2-0.7-0.5-1.4-0.7-2.1c-2-6.3-5.2-11.4-11.8-14.2c-4-1.7-8.2-2.7-12.3-3.9
		c-11.4-3.6-22.9-7.2-34.3-10.7c-1.2-0.4-1.8-1-2-1.9c-0.8-3.2-1.5-6.4-2.1-9.7c-0.6-3.2,0.2-6,2.6-8.4c1.3-1.4,2.1-3.1,2.9-4.9
		c1.9-4.1,3-8.3,3.4-12.7c0.1-1,0.2-1.3,1.5-1.1c2.5,0.4,4.3-0.9,4.8-3.5c1.1-5.5,1.6-11,1.2-16.6c-0.1-1.7-1.1-3.6-2.5-3.6
		c-3,0.1-2.1-1.9-1.9-3.1c0.3-1.7,0.3-3.3,0.3-5c0.1-6.3-0.3-12.6-1-18.9c-0.8-7.5-4.5-12.9-11.7-15.9c-7.8-3.3-15.9-4-24.2-4
		c-2.9,0-5.6,0.6-8.3,1.2c-5.6,1.1-11,2.8-15.3,6.8c-6.2,5.7-6,13.5-6.4,21c-0.3,5.7-0.1,11.4-0.1,17.1c0,0.9-0.1,1.2-1.2,1.1
		c-2-0.1-2.8,1.2-2.8,3c0,5-0.4,10.1,0.6,15.1c0.3,1.7,1.1,3.2,2.4,4.5c1.2,1.2,2.3,0.5,3.4,0.3c1.1-0.2,1.1,0.7,1.1,1.5
		c0.1,7.2,2.7,13.5,7.3,19c0.8,0.9,1.1,1.9,1.2,3.2c0.3,3.8-0.5,7.4-1.2,11.1c-0.4,2-1.5,3.9-3.8,4.7c-2.1,0.7-4.4,1-6.4,1.7
		c-10.9,3.9-22.1,6.7-33.1,10.3c-3.3,1.1-6.6,2.1-9.5,4.1C26,159.6,24,164.9,22.4,170.5z"/>
	<path class="st1" d="M22.4,170.5c1.6-5.6,3.6-10.9,8.7-14.3c2.9-2,6.2-3,9.5-4.1c11-3.6,22.2-6.4,33.1-10.3c2.1-0.7,4.3-1,6.4-1.7
		c2.4-0.8,3.5-2.7,3.8-4.7c0.7-3.6,1.4-7.3,1.2-11.1c-0.1-1.2-0.4-2.2-1.2-3.2c-4.6-5.5-7.2-11.8-7.3-19c0-0.8,0-1.7-1.1-1.5
		c-1.2,0.2-2.3,0.8-3.4-0.3c-1.3-1.3-2-2.8-2.4-4.5c-1-5-0.6-10.1-0.6-15.1c0-1.8,0.8-3.2,2.8-3c1.1,0.1,1.2-0.3,1.2-1.1
		c0-5.7-0.2-11.4,0.1-17.1c0.4-7.5,0.2-15.2,6.4-21c4.3-4,9.7-5.7,15.3-6.8c2.7-0.5,5.4-1.1,8.3-1.2c8.3-0.1,16.4,0.7,24.2,4
		c7.1,3,10.9,8.4,11.7,15.9c0.7,6.3,1,12.6,1,18.9c0,1.7-0.1,3.3-0.3,5c-0.2,1.2-1.1,3.2,1.9,3.1c1.5,0,2.4,1.8,2.5,3.6
		c0.4,5.6-0.2,11.1-1.2,16.6c-0.5,2.6-2.4,4-4.8,3.5c-1.2-0.2-1.4,0.1-1.5,1.1c-0.4,4.4-1.6,8.7-3.4,12.7c-0.8,1.8-1.6,3.5-2.9,4.9
		c-2.4,2.4-3.1,5.2-2.6,8.4c0.6,3.2,1.3,6.5,2.1,9.7c0.2,0.9,0.8,1.6,2,1.9c11.5,3.5,22.9,7.1,34.3,10.7c4.1,1.3,8.2,2.2,12.3,3.9
		c6.6,2.8,9.8,7.9,11.8,14.2c0.2,0.7,0.5,1.4,0.7,2.1c-0.4,2.8-2.7,4.4-4.3,6.2c-11,12.2-23.9,21.9-39.3,28.1
		c-9,3.6-18.2,6.4-27.9,7.2c-2.8,0.2-5.5,0.8-8.3,0.9c-14.4,0.6-28.3-1.6-41.8-6.8c-11-4.2-21.2-9.9-30.2-17.6
		c-5.4-4.6-10.3-9.6-15-15C23.1,172.7,22.5,171.7,22.4,170.5z"/>
</g>
</svg>
