<?xml version="1.0" encoding="UTF-8"?>
<svg id="Calque_1" data-name="Calque 1" xmlns="http://www.w3.org/2000/svg" viewBox="0 0 250 250">
  <defs>
    <style>
      .cls-1 {
        fill: #8c8c8c;
      }

      .cls-2 {
        fill: #c8c8c8;
      }
    </style>
  </defs>
  <g id="layer2">
    <rect class="cls-2" x="-29.71" y="-38.72" width="304.29" height="304.29"/>
    <path class="cls-1" d="m-.76,386c-1.76.1-3.73-.72-4.24-2.17-.52-1.35-2.59-2.38-4.45-2.07-2.9.31-4.35-1.86-11.39-16.67-15.22-32.5-15.84-34.68-11.7-43.47,1.86-4.35,4.35-11.28,5.38-15.32l1.66-7.45-9.42-14.39c-11.49-17.6-15.84-30.54-14.49-43.78.93-9.21.93-9.32-2.9-10.04-2.17-.31-8.07-3.83-13.15-7.56-11.08-7.97-19.67.72-18.94,11.28.83,13.66,10.35,29.29,10.35,29.29,0,0,9.01,19.36,11.39,28.98,4.35,17.18-5.69,23.19-7.97,27.43-4.04,6.94-5.18,8.07-17.08,12.52-10.14,4.04-14.08,4.76-19.87,3.62-7.97-1.45-26.4-9.73-31.47-13.97-2.69-2.28-1.97-2.38,7.97-1.55,8.69.72,13.04.21,20.91-3.11l9.94-4.14-9.11,1.14c-4.86.72-10.77,1.04-13.04.72-6.94-.83-18.74-7.14-24.01-12.94l-5.18-5.59,7.76,4.14c9.94,5.07,19.46,5.28,31.88.41,9.11-3.62,10.04-4.35,12.63-11.59,3.42-9.11,2.48-21.12-2.69-41.4-6.42-24.84-6.52-26.19-4.45-32.19,3-8.59,15.94-14.7,27.95-13.15,8.38.93,12.21,3.21,19.87,11.39,2.07,2.17,6.52,4.04,10.56,4.45,6,.41,7.56,0,11.28-3.83,3.93-3.73,17.18-13.56,39.44-29.09,13.97-9.73,20.29-18.53,23.08-32.61,3-14.7,2.69-17.6-2.17-15.73-1.86.72-6,.93-9.32.62-5.9-.72-8.59-1.97-3.83-2.07,1.45,0,5.18-4.24,8.18-9.21,5.07-8.38,6.21-9.42,13.87-11.49,4.55-1.14,8.18-2.48,7.97-3-.1-.31-3-1.04-6.31-1.35-7.14-.83-8.59-3.21-3.31-5.28,2.07-.83,6.94-4.14,10.77-7.25,5.28-4.45,7.97-5.69,11.39-5.49,2.79.1,4.76-.52,4.86-1.76.21-1.04-2.59-1.97-6.21-2.17-8.69-.21-10.97-2.07-4.45-3.62,3.62-.83,6.52-3.21,9.94-8.28,4.55-6.73,5.18-7.25,13.87-8.28,9.01-1.35,13.77-4.04,6.83-3.93-3.73.1-6.94-1.45-7.87-3.83-.31-.83.83-.93,2.59-.41,2.48.83,5.49-.31,12.52-4.55,11.59-7.14,16.15-7.14,25.98-1.04,4.24,2.59,10.04,5.69,12.94,6.52l5.49,1.66,3.62-5.59c4.24-6.83,5.59-6.62,6.31,1.35l.52,6,5.8-2.9c5.28-2.69,6-2.59,7.45,1.04,1.24,3.11.41,5.07-3.42,8.07-2.69,2.28-4.86,5.28-5.07,6.94,0,1.55-.83,10.14-1.76,18.84-.83,8.9-.83,20.29-.1,25.15,1.66,9.73-.83,15.73-7.56,18.32-6.42,2.48-10.77-.52-12.63-8.8-.93-4.45-4.66-11.9-9.42-19.25-6-9.21-7.87-13.25-7.97-17.8-.21-7.66-.83-8.69-2.17-3.52-.72,2.28-.62,5.49,0,7.04s.83,6.62.21,11.28c-.72,7.66-.41,9.11,5.38,18.63,5.18,8.59,6.42,12.21,7.56,20.81,1.45,11.8,1.04,17.8-1.24,18.63-.83.31-1.24,1.35-.93,2.17.62,1.55,13.66,1.24,24.12-.72,3.11-.62,7.04,0,8.49,1.24s5.9,11.08,9.83,21.43l7.14,19.15-4.76,6.21c-2.69,3.42-4.45,6.94-4.14,7.66.72,1.86-4.04,12.52-6.11,13.35-2.28.93-7.14-11.59-6.52-16.56.31-2.17,2.28-4.45,4.45-5.38,7.56-3,7.04-13.56-1.76-28.26-3.31-5.49-3.73-5.49-13.25-3.73-5.59,1.04-15.73,3.62-22.67,5.69-12.52,3.73-12.94,4.14-21.84,14.59-17.6,20.7-21.01,24.01-30.22,29.71-6,3.52-15.73,7.56-27.84,11.39-10.25,3.21-19.15,6.52-19.56,7.66-.62,1.04-1.04,6.62-.93,12.32-.1,13.97-5.9,30.22-15.84,44.51-13.56,19.67-13.66,20.5-6.42,40.99,6.62,18.94,7.97,20.18,15.53,17.18,7.97-3.11,21.22,7.25,15.01,11.8-2.07,2.69-11.49,5.49-17.49,6ZM141.67,95.34c1.35-1.76.83-2.38-1.66-3.31-2.9-.83-3.21-.52-2.07,2.38q1.55,3.93,3.73.93Zm-69.97,243.04c-.93-.21-3.11-1.76-4.86-3.73-1.76-1.86-4.55-3.42-6.42-3.21s-6.83-1.14-11.28-2.79-13.97-4.45-21.43-6.73c-15.32-4.35-14.91-3.93-15.84-25.46-.62-14.18-.83-12.63,1.04-27.95l1.35-11.9,10.04-3.31c5.49-1.76,10.35-3.11,10.77-3,2.38,1.04,2.17,21.84-.1,30.12-5.9,20.91-3.93,31.05,6.62,35.09,8.28,3.31,30.43,6.83,33.85,5.38,3.11-1.24,15.84,3.73,16.98,6.52.41,1.04-.72,3.31-2.38,4.76-2.48,2.9-14.59,6.62-18.32,6.21Zm129.8-134.56l-7.66-1.76.1-6.83c.1-8.28-3-12.63-9.11-12.52-3,0-7.45-2.69-12.21-7.14-10.66-9.94-15.01-11.28-34.37-9.63l-16.77,1.45.41-6.52c.21-3.62,1.35-6.73,2.38-6.52,1.14-.1,10.25-.41,20.08-.72,15.32-.62,18.53-.1,20.7,3,1.45,2.07,8.18,7.56,14.8,12.32,6.62,4.76,13.66,9.83,15.32,11.08,4.76,4.14,15.11,17.18,16.67,21.01,1.86,3.93-.93,4.87-10.35,2.79Zm-42.54-145.12c-2.69-2.28-2.59-3.11.41-5.59,6.42-4.97,11.18-.41,5.59,5.18-2.28,2.79-3.31,2.79-6,.41Zm11.08-11.49c.21-.93,2.07-2.38,4.24-3.31,4.45-1.76,5.69,2.79,1.55,5.59-2.79,1.97-6.31.52-5.8-2.28Zm14.8-5.38c-3.11,1.24-4.14-1.35-1.55-3.93,1.35-1.14,2.38-.93,3,.62.52,1.24-.21,2.79-1.45,3.31Zm6.83-6.52c-3.11,1.24-3.52.21-.93-2.28,1.14-1.04,2.38-1.14,2.69-.31.41.93-.41,2.07-1.76,2.59Z"/>
  </g>
</svg>