<?xml version="1.0" encoding="utf-8"?>
<!-- Generator: $$$/GeneralStr/196=Adobe Illustrator 27.6.0, SVG Export Plug-In . SVG Version: 6.00 Build 0)  -->
<svg version="1.1" id="Calque_1" xmlns="http://www.w3.org/2000/svg" xmlns:xlink="http://www.w3.org/1999/xlink" x="0px" y="0px"
	 viewBox="0 0 255.4 255.6" style="enable-background:new 0 0 255.4 255.6;" xml:space="preserve">
<style type="text/css">
	.st0{fill:#010101;}
	.st1{fill:#030303;}
</style>
<g>
	<path d="M68.6,128.6c12.9-12.8,25.7-25.6,38.5-38.4c11.4-11.5,22.8-23.1,34.2-34.6c0.6-0.6,1.1-1.2,1.7-1.8
		c0.7-0.5,1.5-0.9,2.1-1.5c6-6,12-12,18-18c2.9-2.9,5.8-5.9,8.7-8.7c1,0.7,1.8,1.2,2.6,1.7c9.3,9.3,18.5,18.7,27.8,28
		c9.2,9.3,18.5,18.5,28.5,28.5c-0.9,0.5-1.9,0.7-2.5,1.4c-45.1,45-90.1,90.1-135.2,135.2c-0.6,0.6-1.1,1.2-1.7,1.8
		c-0.7,0.5-1.3,1-2,1.5c-0.5-0.6-1.1-1.2-1.7-1.8c-15.3-15.3-30.6-30.6-45.8-45.8c-3.4-3.4-6.8-6.9-10.1-10.3c0.6-0.7,1.1-1.3,1.7-2
		c0.2-0.2,0.3-0.3,0.5-0.5c6.5-6.5,13-13,19.5-19.5c0.5-0.5,1-1,1.5-1.5c0.8-0.8,1.6-1.6,2.5-2.5C61.2,136,64.9,132.3,68.6,128.6z"
		/>
	<path class="st0" d="M181.6,15.1c2.8-2.8,5.6-5.6,8.5-8.5c0.7-0.5,1.3-0.9,2-1.4c4-3,8.3-5.2,13.5-5.3c1.7,0,3.4,0.1,5.1,0.1
		c1,0,1.9,0,2.9-0.1c1.7-0.2,3.1,0.6,4.5,1.5c2,1,4,2.1,6,3.1c1.5,1.4,3,2.7,4.5,4.1c6.3,6.3,12.7,12.7,19,19
		c3.6,4.7,7.4,9.2,8,15.4c-0.3,3.7-0.6,7.3-0.8,11c-0.4,1.2-0.8,2.4-1.2,3.5c-0.3,0.5-0.5,1-0.8,1.5c-0.7,1.2-1.5,2.4-2.2,3.5
		c-4.1,4.2-8.2,8.3-12.4,12.5c-0.2,0-0.3,0-0.5,0c-1.1-1.1-2.1-2.3-3.2-3.4c-11.2-11-22.3-22-33.5-33.1
		c-6.4-6.4-12.9-12.7-19.3-19.1c-0.5-0.9-1.1-1.7-1.6-2.5C180.6,16.3,181.1,15.7,181.6,15.1z"/>
	<path d="M27,176.5c5,4.9,10,9.8,14.9,14.7c12,11.9,23.9,23.9,35.8,35.9c0.6,0.6,1.1,1.2,1.9,2c-5.2,1.7-10.1,3.3-15,5
		c-21.2,7.1-42.4,14.1-63.6,21.2c-0.1,0-0.1,0.1-0.1,0.2c-0.3,0-0.6,0-1,0c0.1-0.7,0.2-1.4,0.4-2.1c1.4-4.4,2.8-8.9,4.2-13.3
		c0.1-0.1,0.3-0.2,0.4-0.3c3.8-11.4,7.6-22.9,11.4-34.3c2.9-8.8,5.8-17.6,8.6-26.4c0.5-0.9,1.1-1.7,1.6-2.6
		C26.6,176.5,26.8,176.5,27,176.5z"/>
	<path class="st1" d="M237.9,75.6c-0.1,0-0.2,0-0.4-0.1c0-0.1,0-0.3,0-0.4c0.2,0,0.3,0,0.5,0C238,75.3,237.9,75.4,237.9,75.6z"/>
</g>
</svg>
