<?xml version="1.0" encoding="utf-8"?>
<!-- Generator: $$$/GeneralStr/196=Adobe Illustrator 27.6.0, SVG Export Plug-In . SVG Version: 6.00 Build 0)  -->
<svg version="1.1" xmlns="http://www.w3.org/2000/svg" xmlns:xlink="http://www.w3.org/1999/xlink" x="0px" y="0px"
	 viewBox="0 0 1488.7 247.3" style="enable-background:new 0 0 1488.7 247.3;" xml:space="preserve">
<style type="text/css">
	.st0{display:none;}
	.st1{display:inline;}
	.st2{fill:#C8646D;}
	.st3{fill:#17666F;}
	.st4{fill:#F4EAD0;}
	.st5{opacity:5.000000e-02;}
	.st6{fill:#FFFFFF;}
</style>
<g id="Calque_1" class="st0">
</g>
<g id="Calque_3">
	<g>
		<path class="st3" d="M263,156.6c-0.1,1.2-0.3,2.3-0.4,3.2c-0.1,0.9-0.2,2-0.3,3.2c-0.1,1.2-0.1,2.7-0.2,4.5
			c-0.1,1.8-0.1,4.2-0.1,7.1c0,4.8,0.2,8.7,0.5,11.8c0.3,3.1,0.8,5.5,1.5,7.3c0.7,1.8,1.5,3,2.5,3.7c1,0.7,2.2,1,3.7,1
			c0.9,0,1.9-0.1,3-0.4c0.3,0,0.5,0.4,0.7,1.1c0.2,0.7,0.2,1.2-0.1,1.5c-0.8,0.7-2.4,1.6-4.7,2.9c-2.3,1.3-5,2.5-7.9,3.7
			c-2.9,1.2-6,2.3-9.1,3.2c-3.1,0.9-5.8,1.4-7.9,1.4c-1.9,0-3.3-0.2-4.4-0.7c-1.1-0.5-1.6-1-1.6-1.7c0-0.7,0.1-1.1,0.2-1.2
			c0.1-0.1,0.3-0.5,0.6-1c0.3-0.7,0.5-1.5,0.6-2.5c0.1-1,0.3-2.2,0.6-3.5c0.3-1.9,0.5-4.2,0.8-7.1c0.3-2.9,0.5-6,0.8-9.4
			c0.3-3.4,0.5-6.9,0.7-10.6c0.2-3.7,0.3-7.2,0.3-10.7c0-1.5,0-3.3-0.1-5.5c-0.1-2.2-0.2-5-0.3-8.5c-0.1-3.9-0.6-7.2-1.3-9.9
			c-0.7-2.7-1.7-4.9-2.8-6.6c-1.1-1.7-2.4-2.9-3.8-3.7c-1.4-0.8-2.8-1.2-4.1-1.2c-0.7,0-1.3,0-2,0c-0.7,0-1.3,0.1-2,0.2
			c-0.5,0-0.8-0.6-0.8-1.8c0-0.3,0.1-0.5,0.3-0.7c0.2-0.2,0.8-0.6,1.9-1.3c1.7-1.2,4.1-2.7,7-4.4c2.9-1.7,5.9-3.3,9-4.8
			c3.1-1.5,6-2.7,8.7-3.8c2.7-1.1,4.8-1.6,6.3-1.6c3.9,0,5.8,2.2,5.8,6.6c0,0.7-0.1,1.9-0.2,3.6c-0.1,1.7-0.2,3.5-0.3,5.3
			c-0.1,1.8-0.2,3.5-0.3,5.1c-0.1,1.6-0.2,2.7-0.2,3.2c2.8-2.7,5.8-5.4,9-8.2c3.2-2.8,6.7-5.4,10.4-7.7c3.7-2.3,7.7-4.2,11.8-5.7
			c4.1-1.5,8.4-2.2,12.8-2.2c8,0,14.6,2.3,19.7,6.9c5.1,4.6,7.7,11.9,7.7,21.9c0,2.7-0.2,5.8-0.5,9.4c-0.3,3.6-0.7,7.3-1.1,11.2
			c-0.4,3.9-0.8,7.7-1.1,11.4c-0.3,3.7-0.5,7.1-0.5,10c0,10.7,3.5,16,10.4,16c1.3,0,2.8-0.2,4.5-0.7c1.7-0.5,3.3-1,4.8-1.6
			c1.5-0.6,2.9-1.2,4.1-1.8c1.2-0.6,2-1.1,2.4-1.5c0.1-0.1,0.3,0,0.5,0.3c0.2,0.3,0.4,0.8,0.5,1.3c0.1,0.5,0.2,1,0.1,1.4
			c-0.1,0.4-0.2,0.7-0.3,0.8c-1.1,0.7-3.4,1.9-6.9,3.8c-3.5,1.9-7.5,3.8-11.8,5.7c-4.3,1.9-8.6,3.7-12.9,5.2
			c-4.3,1.5-7.7,2.3-10.2,2.3c-3.1,0-5.2-0.7-6.3-2.2c-1.1-1.5-1.7-3-1.7-4.6c0-1.1,0.2-2.4,0.5-4c0.3-1.6,0.8-4.2,1.3-7.8
			c0.5-3.9,1-8.4,1.5-13.6c0.5-5.2,0.7-10.8,0.7-16.8c0-11.7-2.2-20.6-6.5-26.7c-4.3-6.1-9.8-9.1-16.3-9.1c-4.1,0-7.8,0.8-11,2.4
			c-3.2,1.6-5.9,3.8-8.2,6.5c-2.3,2.7-4.1,5.9-5.4,9.4C264.3,148.9,263.4,152.6,263,156.6z"/>
		<path class="st3" d="M386.8,174.6c0,2.8,0.1,5.5,0.2,8.1c0.1,2.6,0.6,4.8,1.4,6.7c0.8,1.9,2,3.4,3.6,4.5c1.6,1.1,3.9,1.7,6.8,1.7
			c1.5,0,3.1-0.2,5-0.5c1.9-0.3,3.6-0.8,5.3-1.3c1.7-0.5,3.1-1.1,4.4-1.6c1.3-0.5,2-0.9,2.3-1.2c0.4-0.4,0.7-0.4,0.8,0
			c0.1,0.4,0.2,0.9,0.1,1.5c-0.1,0.6-0.2,1.2-0.5,1.8c-0.3,0.6-0.6,1-1,1.3c-1.3,0.7-3.7,1.9-7,3.6c-3.3,1.7-7.3,3.5-11.8,5.4
			c-4.3,1.9-8.4,3.4-12.5,4.7c-4.1,1.3-7.4,1.9-10.1,1.9c-3.1,0-5.5-0.9-7.2-2.8c-1.7-1.9-2.6-4.2-2.6-7c0-0.9,0-1.7,0.1-2.4
			c0.1-0.7,0.2-1.5,0.3-2.6c0.1-1.3,0.4-3.8,0.7-7.3c0.3-3.5,0.7-7.5,1-11.9c0.3-4.4,0.6-8.8,0.9-13.3c0.3-4.5,0.4-8.3,0.4-11.5v-7
			c0-3.5-0.2-6.5-0.6-9.2c-0.4-2.7-1.1-4.7-2-6.2c-0.7-0.9-1.5-1.7-2.5-2.3c-1-0.6-2.2-0.9-3.7-0.9c-0.8,0-1.6,0.2-2.4,0.5
			c-0.8,0.3-1.4,0.5-1.8,0.5c-0.3,0-0.7-0.4-1.3-1.2s-0.6-1.4,0.1-1.8c0.9-0.7,2.9-1.7,5.8-3.2c2.9-1.5,6.1-3.1,9.6-4.8
			c3.7-1.9,7.3-3.5,10.8-4.9c3.5-1.4,5.9-2.1,7.4-2.1c1.5,0,2.5,0.4,3,1.3c0.5,0.9,0.8,1.8,0.8,2.9v0.8c0,1.3-0.2,3.5-0.6,6.4
			c-0.4,2.9-0.8,6.5-1.3,10.8c-0.5,4.3-0.9,9.2-1.3,14.8c-0.4,5.6-0.6,11.7-0.6,18.2V174.6z M378.8,70.6c0.7,0.1,1.8,0.9,3.3,2.2
			c1.5,1.3,3.1,2.9,4.7,4.6c1.6,1.7,3,3.4,4.2,5c1.2,1.6,1.8,2.7,1.8,3.2c0,0.7-0.8,1.7-2.4,3c-1.6,1.3-3.4,2.7-5.5,4.1
			c-2.1,1.4-4.1,2.6-6,3.7c-1.9,1.1-3.3,1.6-4.1,1.6c-0.4,0-1.4-0.6-2.9-1.9c-1.5-1.3-3.1-2.7-4.7-4.3c-1.6-1.6-3-3.2-4.3-4.7
			c-1.3-1.5-1.9-2.6-1.9-3.1c0-0.7,0.9-1.7,2.6-3.1c1.7-1.4,3.6-2.9,5.7-4.4c2.1-1.5,4.1-2.9,6-4C377.3,71.4,378.4,70.8,378.8,70.6z
			"/>
		<path class="st3" d="M494.2,118.6c-0.3,0.8-1,2-2.3,3.7c-1.3,1.7-2.8,3.4-4.5,5.2c-1.7,1.8-3.6,3.5-5.5,5.2
			c-1.9,1.7-3.6,2.9-5.1,3.7c-0.9,0.4-1.5,0.3-1.7-0.4c-0.2-0.7-0.3-1.3-0.3-2c0-1.1-0.6-2.4-1.7-4c-1.1-1.6-2.7-3.2-4.8-4.7
			c-2.1-1.5-4.5-2.8-7.3-3.9c-2.8-1.1-5.9-1.6-9.2-1.6c-5.7,0-10.4,3.1-14,9.3c-3.6,6.2-5.4,14.4-5.4,24.7c0,6.3,1,11.9,2.9,16.9
			c1.9,5,4.6,9.2,8,12.6c3.4,3.4,7.5,6,12.3,7.8c4.8,1.8,10,2.7,15.6,2.7c7.6,0,13.7-1,18.2-2.9c4.5-1.9,8.3-4.2,11.2-6.7
			c0.1,0,0.2-0.1,0.3-0.2c0.1-0.1,0.2-0.2,0.3-0.2c0.7,0,1.1,0.2,1.4,0.7c0.3,0.5,0.4,1,0.4,1.7c0,0.5-0.1,0.9-0.4,1.2
			c-2,1.6-4.8,3.7-8.3,6.4c-3.5,2.7-7.6,5.3-12.1,7.9c-4.5,2.6-9.3,4.8-14.2,6.7c-4.9,1.9-9.8,2.8-14.6,2.8c-13.7,0-24.4-4-32.1-12
			c-7.7-8-11.5-18.9-11.5-32.8c0-10.5,2-19.4,6.1-26.6c4.1-7.2,9.1-13,15-17.3c5.9-4.3,12.2-7.4,18.9-9.3c6.7-1.9,12.5-2.8,17.6-2.8
			c4.1,0,7.8,0.3,11.1,0.9c3.3,0.6,6.1,1.3,8.4,2.2c2.3,0.9,4.1,1.8,5.4,2.7C493.6,117.2,494.2,118,494.2,118.6z"/>
		<path class="st3" d="M579.2,193.4c-1.5,1.2-3.5,2.8-6,4.8c-2.5,2-5.5,4-8.8,6c-3.3,2-7,3.7-11,5.1c-4,1.4-8.2,2.1-12.6,2.1
			c-6.7,0-12.6-1.2-17.8-3.5c-5.2-2.3-9.6-5.5-13.1-9.4c-3.5-3.9-6.2-8.6-8-13.9c-1.8-5.3-2.7-11-2.7-17c0-7.1,1.1-13.3,3.2-18.8
			c2.1-5.5,4.8-10.2,7.9-14.3c3.1-4.1,6.5-7.5,10.1-10.2c3.6-2.7,6.9-4.9,9.8-6.5c1.3-0.8,3-1.7,5.1-2.6c2.1-0.9,4.3-1.8,6.8-2.6
			c2.5-0.8,5.1-1.5,8-2.1c2.9-0.6,5.8-0.9,8.9-0.9c5.7,0,11.3,0.7,16.7,2.2c5.4,1.5,10.2,3.8,14.3,6.9c4.1,3.1,7.5,7.2,10,12.1
			c2.5,4.9,3.8,10.9,3.8,17.8c0,5.6-1,10.9-3.1,15.8c-2.1,4.9-4.5,9.3-7.3,13.2c-2.8,3.9-5.6,7.2-8.3,9.9
			C582.4,190.3,580.4,192.2,579.2,193.4z M556.6,196.6c7.6,0,13.4-2.9,17.5-8.6c4.1-5.7,6.1-14.5,6.1-26.4c0-6-0.8-11.6-2.5-16.7
			c-1.7-5.1-4-9.6-7-13.5c-3-3.9-6.5-6.9-10.5-9.1s-8.3-3.3-13-3.3c-3.3,0-6.5,0.9-9.5,2.6c-3,1.7-5.6,4.2-7.9,7.5
			c-2.3,3.3-4.1,7.2-5.4,11.9c-1.3,4.7-2,9.9-2,15.8c0,6.3,1,11.9,2.9,16.8c1.9,4.9,4.5,9.1,7.7,12.5c3.2,3.4,6.8,6,10.9,7.8
			C548,195.7,552.2,196.6,556.6,196.6z"/>
		<path class="st3" d="M707.2,124.4c-1.5,1.2-3.2,2.7-5.2,4.5c-2,1.8-4.1,3.5-6.3,5.2c-2.2,1.7-4.4,3.1-6.7,4.3
			c-2.3,1.2-4.5,1.8-6.6,1.8c-1.9,0-3.5-0.4-5-1.3c-1.5-0.9-2.8-1.8-4.1-2.8c-1.3-1-2.5-1.9-3.7-2.8c-1.2-0.9-2.5-1.3-3.8-1.3
			c-3.6,0-6.6,1.5-9.1,4.4c-2.5,2.9-4.5,6.7-6,11.2c-1.5,4.5-2.7,9.5-3.4,14.8c-0.7,5.3-1.1,10.5-1.1,15.4c0,4.1,0.2,7.5,0.5,10.1
			c0.3,2.6,0.8,4.7,1.5,6.2c0.7,1.5,1.6,2.6,2.7,3.1c1.1,0.5,2.5,0.8,4.1,0.8c1.7,0,3.6-0.3,5.6-0.8c0.4-0.1,0.7,0.1,0.9,0.8
			c0.2,0.7,0.3,1.2,0.3,1.6c0,0.3-0.2,0.6-0.6,0.9c-0.4,0.3-0.7,0.5-0.8,0.5c-2.9,1.2-5.9,2.5-9,3.9c-3.1,1.4-5.6,2.6-7.6,3.5
			c-1.9,0.8-4.1,1.7-6.7,2.6c-2.6,0.9-4.8,1.4-6.7,1.4c-2.1,0-3.9-0.3-5.3-1c-1.4-0.7-2.1-1.3-2.1-2c0-0.7,0.2-1.3,0.5-1.8
			c0.3-0.5,0.6-1.5,0.9-3c0.3-2,0.6-4.4,0.9-7.1c0.3-2.7,0.7-5.7,1-8.9c0.3-3.2,0.6-6.5,0.8-9.9c0.2-3.4,0.3-6.8,0.3-10.1
			c0-7.5-0.2-13.8-0.7-19c-0.5-5.2-1.3-9.4-2.5-12.6c-1.2-3.2-2.8-5.5-4.9-6.9c-2.1-1.4-4.7-2.1-7.9-2.1c-0.7,0-1.3,0-1.8,0
			c-0.5,0-1.1,0.1-1.6,0.2c-0.8,0-1.2-0.4-1.2-1.2c0-0.8,0.4-1.4,1.2-1.8c1.5-0.9,3.7-2.3,6.8-4.1c3.1-1.8,6.2-3.5,9.5-5.2
			c3.3-1.7,6.4-3.2,9.5-4.5c3.1-1.3,5.3-2,6.8-2c1.7,0,3.2,0.6,4.4,1.7c1.2,1.1,2.1,2.6,2.7,4.3c0.6,1.7,1,3.7,1.3,5.9
			c0.3,2.2,0.4,4.4,0.4,6.5c0,1.6,0,3.3-0.1,5c-0.1,1.7-0.1,3.6-0.1,5.6c6-8.8,11.4-15.6,16.2-20.5c4.8-4.9,9.3-7.3,13.6-7.3
			c1.6,0,3.2,0.7,4.7,2c1.5,1.3,3.2,2.8,4.9,4.5c1.7,1.7,3.5,3.2,5.4,4.5c1.9,1.3,3.8,2,5.8,2c1.7,0,3-0.2,3.8-0.6
			c0.8-0.4,1.5-0.7,2-1c1.1,0,1.6,0.7,1.6,2.2V124.4z"/>
		<path class="st3" d="M736,156.6c-0.1,1.2-0.3,2.3-0.4,3.2c-0.1,0.9-0.2,2-0.3,3.2c-0.1,1.2-0.1,2.7-0.2,4.5
			c-0.1,1.8-0.1,4.2-0.1,7.1c0,4.8,0.2,8.7,0.5,11.8c0.3,3.1,0.8,5.5,1.5,7.3c0.7,1.8,1.5,3,2.5,3.7c1,0.7,2.2,1,3.7,1
			c0.9,0,1.9-0.1,3-0.4c0.3,0,0.5,0.4,0.7,1.1c0.2,0.7,0.2,1.2-0.1,1.5c-0.8,0.7-2.4,1.6-4.7,2.9c-2.3,1.3-5,2.5-7.9,3.7
			c-2.9,1.2-6,2.3-9.1,3.2c-3.1,0.9-5.8,1.4-7.9,1.4c-1.9,0-3.3-0.2-4.4-0.7c-1.1-0.5-1.6-1-1.6-1.7c0-0.7,0.1-1.1,0.2-1.2
			c0.1-0.1,0.3-0.5,0.6-1c0.3-0.7,0.5-1.5,0.6-2.5c0.1-1,0.3-2.2,0.6-3.5c0.3-1.9,0.5-4.2,0.8-7.1c0.3-2.9,0.5-6,0.8-9.4
			c0.3-3.4,0.5-6.9,0.7-10.6c0.2-3.7,0.3-7.2,0.3-10.7c0-1.5,0-3.3-0.1-5.5c-0.1-2.2-0.2-5-0.3-8.5c-0.1-3.9-0.6-7.2-1.3-9.9
			c-0.7-2.7-1.7-4.9-2.8-6.6c-1.1-1.7-2.4-2.9-3.8-3.7c-1.4-0.8-2.8-1.2-4.1-1.2c-0.7,0-1.3,0-2,0c-0.7,0-1.3,0.1-2,0.2
			c-0.5,0-0.8-0.6-0.8-1.8c0-0.3,0.1-0.5,0.3-0.7c0.2-0.2,0.8-0.6,1.9-1.3c1.7-1.2,4.1-2.7,7-4.4c2.9-1.7,5.9-3.3,9-4.8
			c3.1-1.5,6-2.7,8.7-3.8c2.7-1.1,4.8-1.6,6.3-1.6c3.9,0,5.8,2.2,5.8,6.6c0,0.7-0.1,1.9-0.2,3.6c-0.1,1.7-0.2,3.5-0.3,5.3
			c-0.1,1.8-0.2,3.5-0.3,5.1c-0.1,1.6-0.2,2.7-0.2,3.2c2.8-2.7,5.8-5.4,9-8.2c3.2-2.8,6.7-5.4,10.4-7.7c3.7-2.3,7.7-4.2,11.8-5.7
			c4.1-1.5,8.4-2.2,12.8-2.2c8,0,14.6,2.3,19.7,6.9c5.1,4.6,7.7,11.9,7.7,21.9c0,2.7-0.2,5.8-0.5,9.4c-0.3,3.6-0.7,7.3-1.1,11.2
			c-0.4,3.9-0.8,7.7-1.1,11.4c-0.3,3.7-0.5,7.1-0.5,10c0,10.7,3.5,16,10.4,16c1.3,0,2.8-0.2,4.5-0.7c1.7-0.5,3.3-1,4.8-1.6
			c1.5-0.6,2.9-1.2,4.1-1.8c1.2-0.6,2-1.1,2.4-1.5c0.1-0.1,0.3,0,0.5,0.3c0.2,0.3,0.4,0.8,0.5,1.3c0.1,0.5,0.2,1,0.1,1.4
			c-0.1,0.4-0.2,0.7-0.3,0.8c-1.1,0.7-3.4,1.9-6.9,3.8c-3.5,1.9-7.5,3.8-11.8,5.7c-4.3,1.9-8.6,3.7-12.9,5.2
			c-4.3,1.5-7.7,2.3-10.2,2.3c-3.1,0-5.2-0.7-6.3-2.2c-1.1-1.5-1.7-3-1.7-4.6c0-1.1,0.2-2.4,0.5-4c0.3-1.6,0.8-4.2,1.3-7.8
			c0.5-3.9,1-8.4,1.5-13.6c0.5-5.2,0.7-10.8,0.7-16.8c0-11.7-2.2-20.6-6.5-26.7c-4.3-6.1-9.8-9.1-16.3-9.1c-4.1,0-7.8,0.8-11,2.4
			c-3.2,1.6-5.9,3.8-8.2,6.5c-2.3,2.7-4.1,5.9-5.4,9.4C737.3,148.9,736.4,152.6,736,156.6z"/>
		<path class="st3" d="M829.4,204.4c-1.1,0.7-2.1,1.8-3,3.3c-0.9,1.5-1.5,2.7-1.8,3.5c-0.1,0.3-0.5,0.5-1.1,0.7
			c-0.6,0.2-1,0.3-1.3,0.3c-1.2,0-1.8-0.6-1.8-1.8c0-0.4,0.5-1.5,1.6-3.2c0.8-1.3,2.1-3.4,3.8-6.3c1.7-2.9,3.5-5.8,5.3-8.8
			s3.5-5.7,5-8.2c1.5-2.5,2.6-4.1,3.3-4.9c0.7-0.7,1.5-0.8,2.4-0.3c0.9,0.5,1.2,1,0.8,1.7c-0.3,0.3-0.5,0.6-0.6,1
			c-0.1,0.4-0.2,1.1-0.2,2c0,1.2,1,2.7,3.1,4.5c2.1,1.8,4.7,3.5,7.9,5.2c3.2,1.7,6.7,3.1,10.6,4.3c3.9,1.2,7.7,1.8,11.4,1.8
			c4.4,0,7.9-1.3,10.5-3.8c2.6-2.5,3.9-5.9,3.9-10c0-4.7-1.5-8.1-4.4-10.4c-2.9-2.3-6.6-4-10.9-5.2c-4.3-1.2-9.1-2.2-14.2-2.9
			c-5.1-0.7-9.9-1.8-14.2-3.3c-4.3-1.5-8-3.6-10.9-6.4c-2.9-2.8-4.4-6.9-4.4-12.2c0-4.1,1.4-8.3,4.3-12.6c2.9-4.3,6.7-8.1,11.4-11.4
			c4.7-3.3,10.2-6.1,16.3-8.2c6.1-2.1,12.5-3.2,19.2-3.2c2,0,4.3,0.2,7,0.6c2.7,0.4,5.3,0.9,7.9,1.5c2.6,0.6,5,1.2,7.2,1.8
			c2.2,0.6,3.8,1.1,4.9,1.5c0.3,0,0.2,0.5-0.2,1.6c-0.4,1.2-1.4,3-3,5.5c-1.6,2.5-3.4,4.9-5.3,7.3c-1.9,2.4-3.7,4.5-5.4,6.4
			c-1.7,1.9-2.8,2.8-3.5,2.8c-0.1,0-0.5,0-1.2,0c-0.7,0-1.1-0.1-1.4-0.4c0.1-0.7,0.2-1.5,0.2-2.6c0-4.7-2.1-8.3-6.3-11
			c-4.2-2.7-10.3-4-18.3-4c-3.9,0-7,1.1-9.5,3.4c-2.5,2.3-3.7,5-3.7,8.2c0,5.2,1.5,9.1,4.4,11.6c2.9,2.5,6.6,4.4,11,5.7
			c4.4,1.3,9.1,2.2,14.2,2.9c5.1,0.7,9.8,1.7,14.2,3.1c4.4,1.4,8.1,3.5,11,6.3c2.9,2.8,4.4,7,4.4,12.6c0,2.5-0.5,5-1.6,7.4
			c-1.1,2.4-2.5,4.7-4.2,6.8c-1.7,2.1-3.7,4.1-5.8,5.9c-2.1,1.8-4.3,3.4-6.4,4.7c-2,1.3-4.3,2.7-6.8,4.1c-2.5,1.4-5.3,2.7-8.2,3.9
			c-2.9,1.2-5.9,2.2-9,2.9c-3.1,0.7-6.1,1.1-9.2,1.1c-1.5,0-3.8-0.3-7-0.9c-3.2-0.6-6.4-1.3-9.7-2.1c-3.3-0.8-6.2-1.6-8.7-2.3
			C830.9,205.2,829.6,204.7,829.4,204.4z"/>
		<path class="st3" d="M1095.2,209.3l-43.3,35.5c9.1-18.1,13.7-32.3,13.7-42.5c0-6.1-2.9-11.4-8.8-16c-5.9-4.6-14.2-9.9-24.9-15.6
			c-0.2,0.2-3,2.3-8.3,6.3c-8.1,5.9-13.1,9.8-15.2,11.9c-2.2,2.4-6.1,6.5-11.8,12.4c-7.5,7.9-13.1,13.4-16.9,16.3
			c-4,3.1-9.6,6-16.6,8.7c-6.9,2.6-13.9,3.9-21.1,3.9c-12.8,0-24.6-4-35.5-11.9c-10.9-7.9-16.3-18.5-16.3-31.7c0-10,4-20,12-30
			l42.6-15.2c-14.5,13.8-21.7,26.2-21.7,37.3c0,6.9,2.8,12.5,8.5,17c5.6,4.6,12.9,6.9,21.9,6.9c11,0,22.3-3.3,34-9.9
			c11.8-6.5,24.1-15.1,37-26c-7.9-3.9-17.1-8.6-27.5-14.2c-11.4-5.9-24.5-11.4-39.2-16.7c-12.5-4.6-20.8-9.3-25-14.3
			c-4.1-4.9-6.2-10.9-6.2-17.8c0-15.1,7.6-28.2,22.8-39.2c15.2-11,32.1-16.4,50.7-16.4c11.9,0,21.7,3.4,29.4,10.1
			c7.7,6.8,11.5,14.7,11.5,23.8c0,6.1-2.1,12.5-6.4,19.3c-4.2,6.7-12.4,13.9-24.6,21.6l48.8,25.5c10.1-7.2,20-13.5,29.9-19.1
			c9.9-5.6,19.3-10.2,28.3-13.9c8.9-3.7,17.5-6.5,25.8-8.3c8.3-1.9,16-2.8,23.4-2.8c9.5,0,17.4,2,23.6,5.9c6.3,4,9.5,9.4,9.5,16.2
			c0,7.9-5.1,15.2-15.4,21.8c-8.9-0.2-16.9-0.8-24-2.1c6.3-8.8,11.5-17.6,15.5-26.4l-10.3-0.5c-9.4,0-20.2,1.4-32.4,4.2
			c-12.5,2.8-23.4,6.1-32.7,9.9c-9.2,3.7-21.3,9.6-36.3,17.5c13.1,7.3,22.2,14.3,27.3,20.9c5.1,6.5,7.7,13.7,7.7,21.4
			C1098.8,197.8,1097.6,203.2,1095.2,209.3z M975.6,105.2l29.5,14.8c5-6.4,7.5-13.5,7.5-21.2c0-9.4-3.8-17.4-11.3-24.1
			c-7.6-6.7-20.1-10.3-37.3-10.7c-7.2,6.5-10.7,12.7-10.7,18.7c0,3.6,1.4,7,4.2,10.3C960.3,96.5,966.4,100.6,975.6,105.2z"/>
		<path class="st3" d="M1197.3,118.6c-0.3,0.8-1,2-2.3,3.7c-1.3,1.7-2.8,3.4-4.5,5.2c-1.7,1.8-3.6,3.5-5.5,5.2
			c-1.9,1.7-3.6,2.9-5.1,3.7c-0.9,0.4-1.5,0.3-1.7-0.4c-0.2-0.7-0.3-1.3-0.3-2c0-1.1-0.6-2.4-1.7-4c-1.1-1.6-2.7-3.2-4.8-4.7
			c-2.1-1.5-4.5-2.8-7.3-3.9c-2.8-1.1-5.9-1.6-9.2-1.6c-5.7,0-10.4,3.1-14,9.3c-3.6,6.2-5.4,14.4-5.4,24.7c0,6.3,1,11.9,2.9,16.9
			c1.9,5,4.6,9.2,8,12.6c3.4,3.4,7.5,6,12.3,7.8c4.8,1.8,10,2.7,15.6,2.7c7.6,0,13.7-1,18.2-2.9c4.5-1.9,8.3-4.2,11.2-6.7
			c0.1,0,0.2-0.1,0.3-0.2c0.1-0.1,0.2-0.2,0.3-0.2c0.7,0,1.1,0.2,1.4,0.7c0.3,0.5,0.4,1,0.4,1.7c0,0.5-0.1,0.9-0.4,1.2
			c-2,1.6-4.8,3.7-8.3,6.4c-3.5,2.7-7.6,5.3-12.1,7.9c-4.5,2.6-9.3,4.8-14.2,6.7c-4.9,1.9-9.8,2.8-14.6,2.8c-13.7,0-24.4-4-32.1-12
			c-7.7-8-11.5-18.9-11.5-32.8c0-10.5,2-19.4,6.1-26.6c4.1-7.2,9.1-13,15-17.3c5.9-4.3,12.2-7.4,18.9-9.3c6.7-1.9,12.5-2.8,17.6-2.8
			c4.1,0,7.8,0.3,11.1,0.9c3.3,0.6,6.1,1.3,8.4,2.2c2.3,0.9,4.1,1.8,5.4,2.7C1196.7,117.2,1197.3,118,1197.3,118.6z"/>
		<path class="st3" d="M1259.5,147.2c-0.8-4.1-1.7-7.8-2.8-11.1c-1.1-3.3-2.4-6-4-8.2c-1.6-2.2-3.5-3.9-5.8-5
			c-2.3-1.1-5.1-1.7-8.4-1.7c-2.9,0-5.6,0.5-8.1,1.6c-2.5,1.1-4.6,2.3-6.4,3.8c-1.8,1.5-3.2,2.9-4.2,4.4c-1,1.5-1.6,2.6-1.7,3.4
			c-0.1,1.1-0.7,1.6-1.8,1.6c-1.9,0-3.6-0.7-5.2-2c-1.6-1.3-2.4-2.9-2.4-4.8c0-1.1,0.1-1.9,0.4-2.4c3.1-1.7,6.8-3.6,11.2-5.6
			c4.4-2,9-3.9,13.7-5.6c4.7-1.7,9.4-3.2,14.1-4.3c4.7-1.1,8.9-1.7,12.6-1.7c5.6,0,9.9,0.8,12.9,2.4c3,1.6,5.2,3.9,6.7,6.8
			c1.5,2.9,2.4,6.4,2.7,10.3c0.3,3.9,0.6,8.2,0.9,12.7c0.4,6.8,0.9,13.4,1.6,19.7c0.7,6.3,1.7,11.9,3,16.8c1.3,4.9,3,8.8,5.1,11.8
			c2.1,3,4.6,4.5,7.7,4.5c1.5,0,3.1-0.3,4.8-0.8c1.7-0.5,3.4-1.2,5-1.9c1.6-0.7,3-1.5,4.3-2.2c1.3-0.7,2.1-1.2,2.5-1.5
			c1.2,0,1.9,0.6,2.2,1.8c0,0.7-0.1,1.3-0.4,1.8c-0.3,0.3-1.3,0.9-3,2c-1.7,1.1-3.9,2.3-6.4,3.8c-2.5,1.5-5.3,3-8.4,4.7
			c-3.1,1.7-6.1,3.2-9.1,4.7c-3,1.5-5.8,2.7-8.3,3.6c-2.5,0.9-4.5,1.4-6,1.4c-1.7,0-3.2-0.7-4.5-2.1c-1.3-1.4-2.4-3.3-3.3-5.6
			c-0.9-2.3-1.7-5-2.4-8.1c-0.7-3.1-1.3-6.3-1.8-9.6c-2.4,2-5.5,4.4-9.2,7.1c-3.7,2.7-7.8,5.3-12.2,7.7c-4.4,2.4-8.9,4.4-13.5,6.1
			c-4.6,1.7-9,2.5-13.3,2.5c-3.6,0-6.7-0.6-9.4-1.7c-2.7-1.1-4.9-2.6-6.7-4.5c-1.8-1.9-3.1-4-4-6.5c-0.9-2.5-1.3-5-1.3-7.7
			c0-4.3,1.3-7.8,3.9-10.5c2.6-2.7,6.6-5.6,12.1-8.5c2.5-1.3,6.1-3.1,10.6-5.3c4.5-2.2,9.2-4.4,13.9-6.7c4.7-2.3,9.1-4.4,13.2-6.5
			C1254.7,150.1,1257.7,148.4,1259.5,147.2z M1265.3,178.2c-0.4-2.3-0.8-4.7-1.2-7.4c-0.4-2.7-0.8-5.2-1.2-7.6
			c-0.4-2.4-0.8-4.5-1.1-6.2c-0.3-1.7-0.6-2.9-0.7-3.4c-2.1,0.8-4.5,1.7-7.2,2.8c-2.7,1.1-5.3,2.2-8,3.5c-2.7,1.3-5.2,2.5-7.6,3.8
			c-2.4,1.3-4.4,2.4-6,3.5c-3.1,2-5.4,4-7,6c-1.6,2-2.4,4.4-2.4,7.2c0,3.9,1.1,7.3,3.4,10.2c2.3,2.9,5.8,4.4,10.6,4.4
			c2.5,0,5.2-0.5,7.9-1.4c2.7-0.9,5.3-2,7.6-3.2c2.3-1.2,4.4-2.4,6.1-3.6c1.7-1.2,2.9-2.1,3.6-2.8c1.1-1.1,1.9-2,2.5-2.7
			C1265.2,180.6,1265.5,179.6,1265.3,178.2z"/>
		<path class="st3" d="M1402.3,124.4c-1.5,1.2-3.2,2.7-5.2,4.5c-2,1.8-4.1,3.5-6.3,5.2c-2.2,1.7-4.4,3.1-6.7,4.3
			c-2.3,1.2-4.5,1.8-6.6,1.8c-1.9,0-3.5-0.4-5-1.3c-1.5-0.9-2.8-1.8-4.1-2.8c-1.3-1-2.5-1.9-3.7-2.8c-1.2-0.9-2.5-1.3-3.8-1.3
			c-3.6,0-6.6,1.5-9.1,4.4c-2.5,2.9-4.5,6.7-6,11.2c-1.5,4.5-2.7,9.5-3.4,14.8c-0.7,5.3-1.1,10.5-1.1,15.4c0,4.1,0.2,7.5,0.5,10.1
			c0.3,2.6,0.8,4.7,1.5,6.2c0.7,1.5,1.6,2.6,2.7,3.1c1.1,0.5,2.5,0.8,4.1,0.8c1.7,0,3.6-0.3,5.6-0.8c0.4-0.1,0.7,0.1,0.9,0.8
			c0.2,0.7,0.3,1.2,0.3,1.6c0,0.3-0.2,0.6-0.6,0.9c-0.4,0.3-0.7,0.5-0.8,0.5c-2.9,1.2-5.9,2.5-9,3.9c-3.1,1.4-5.6,2.6-7.6,3.5
			c-1.9,0.8-4.1,1.7-6.7,2.6c-2.6,0.9-4.8,1.4-6.7,1.4c-2.1,0-3.9-0.3-5.3-1c-1.4-0.7-2.1-1.3-2.1-2c0-0.7,0.2-1.3,0.5-1.8
			c0.3-0.5,0.6-1.5,0.9-3c0.3-2,0.6-4.4,0.9-7.1c0.3-2.7,0.7-5.7,1-8.9c0.3-3.2,0.6-6.5,0.8-9.9c0.2-3.4,0.3-6.8,0.3-10.1
			c0-7.5-0.2-13.8-0.7-19c-0.5-5.2-1.3-9.4-2.5-12.6c-1.2-3.2-2.8-5.5-4.9-6.9c-2.1-1.4-4.7-2.1-7.9-2.1c-0.7,0-1.3,0-1.8,0
			c-0.5,0-1.1,0.1-1.6,0.2c-0.8,0-1.2-0.4-1.2-1.2c0-0.8,0.4-1.4,1.2-1.8c1.5-0.9,3.7-2.3,6.8-4.1c3.1-1.8,6.2-3.5,9.5-5.2
			c3.3-1.7,6.4-3.2,9.5-4.5c3.1-1.3,5.3-2,6.8-2c1.7,0,3.2,0.6,4.4,1.7c1.2,1.1,2.1,2.6,2.7,4.3c0.6,1.7,1,3.7,1.3,5.9
			c0.3,2.2,0.4,4.4,0.4,6.5c0,1.6,0,3.3-0.1,5c-0.1,1.7-0.1,3.6-0.1,5.6c6-8.8,11.4-15.6,16.2-20.5c4.8-4.9,9.3-7.3,13.6-7.3
			c1.6,0,3.2,0.7,4.7,2c1.5,1.3,3.2,2.8,4.9,4.5c1.7,1.7,3.5,3.2,5.4,4.5c1.9,1.3,3.8,2,5.8,2c1.7,0,3-0.2,3.8-0.6
			c0.8-0.4,1.5-0.7,2-1c1.1,0,1.6,0.7,1.6,2.2V124.4z"/>
		<path class="st3" d="M1483.5,186c-1.5,1.6-3.7,3.8-6.8,6.6c-3.1,2.8-6.8,5.6-11.1,8.4c-4.3,2.8-9.2,5.2-14.5,7.2c-5.3,2-11,3-17,3
			c-5.5,0-10.8-0.8-16-2.5c-5.2-1.7-9.9-4.2-14-7.6c-4.1-3.4-7.4-7.7-9.9-13c-2.5-5.3-3.7-11.6-3.7-18.9c0-6,0.4-11.2,1.2-15.5
			c0.8-4.3,1.9-8.1,3.2-11.4c1.3-3.3,2.8-6.1,4.5-8.4c1.7-2.3,3.4-4.4,5.1-6.3c2.1-2.4,4.7-4.7,7.8-6.8c3.1-2.1,6.4-4.1,9.9-5.8
			c3.5-1.7,7.3-3.1,11.2-4.1c3.9-1,7.9-1.5,11.9-1.5c7.2,0,12.8,1.2,16.9,3.6c4.1,2.4,6.1,5.7,6.1,10c0,2.7-0.8,5.1-2.4,7.4
			c1.3-0.4,3-1.1,5.1-2c2.1-0.9,4.2-1.9,6.3-2.9c2.1-1,4-1.9,5.7-2.7c1.7-0.8,2.8-1.4,3.3-1.8c0.3-0.3,0.6-0.4,0.9-0.3
			c0.3,0.1,0.5,0.3,0.5,0.7c0,1.7-0.3,3.2-1,4.3c-0.7,1.1-1.5,2-2.4,2.7c-2.1,1.3-5.2,3-9.2,5s-8.4,4.1-13.3,6.3
			c-4.9,2.2-9.9,4.4-15.1,6.6s-10.1,4.3-14.7,6.3c-4.6,2-8.6,3.8-12,5.3c-3.4,1.5-5.7,2.6-6.9,3.3c0,4.5,0.9,8.8,2.7,12.7
			c1.8,3.9,4.3,7.4,7.5,10.3c3.2,2.9,7,5.2,11.5,6.9c4.5,1.7,9.4,2.5,14.7,2.5c4.8,0,9.1-0.5,13-1.5c3.9-1,7.1-2.1,9.8-3.4
			c2.7-1.3,4.8-2.4,6.3-3.4c1.5-1,2.4-1.5,2.5-1.5c0.5,0,1.1,0.2,1.6,0.7C1483.3,185,1483.5,185.5,1483.5,186z M1413.1,155.4
			c2.3-0.8,4.8-1.8,7.7-2.9c2.9-1.1,5.7-2.4,8.4-3.7c2.7-1.3,5.2-2.6,7.5-3.8c2.3-1.2,4-2.3,5.2-3.2c2.4-1.7,3.6-4.7,3.6-8.8
			c0-1.6-0.3-3.3-0.9-5c-0.6-1.7-1.5-3.3-2.7-4.7c-1.2-1.4-2.7-2.5-4.4-3.4c-1.7-0.9-3.7-1.3-5.8-1.3c-1.9,0-3.9,0.6-6,1.9
			c-2.1,1.3-4.1,3.3-6,6.2c-1.9,2.9-3.4,6.7-4.7,11.4C1413.8,142.9,1413.1,148.6,1413.1,155.4z"/>
		<path class="st3" d="M213.3,103.1c0,21.5,0,43,0,64.6c0,6.2,0.9,12.3,3.8,18c1.5,2.9,1.7,2.9,4.1,0.9c2.3-2,4.7-3.9,6.9-5.9
			c1-0.9,1.6-0.8,2.4,0.3c2.4,3.3,2.5,3.3-0.4,6.1c-8.1,8.1-16.2,16.1-24.3,24.2c-2.4,2.4-7.4,2.4-9.8,0
			c-10.1-9.8-16.3-21.9-19.5-35.5c-0.1-0.6,0-1.6-0.7-1.7c-0.7-0.1-1.1,0.7-1.5,1.2c-9.5,9.6-19.8,18.2-31.5,25.1
			c-12.1,7.1-25.2,11.1-39.4,12c-12.7,0.8-25.1-0.4-37.1-4.7c-14.9-5.3-26.5-14.8-35.5-27.7C19.2,163,13.7,144.4,15.2,124
			c1.3-18.5,7.8-35.3,17.5-51c8.9-14.4,21-25.8,34.9-35.3c8-5.5,16.3-10.4,24.8-15.1c0.8-0.4,1.6-0.9,2.4-1.4
			c0.3-0.1,0.6-0.4,0.5-0.8c-0.1-0.4-0.6-0.4-0.9-0.3c-1.9,0.4-3.7,0.8-5.5,1.2c-5.8,1.3-11.6,2.4-17.5,3c-4.6,0.4-9.3-0.3-13.9-0.4
			c-7.6-0.2-15.1-1.3-22.7,0.4C23,27.1,14.5,34.3,8.2,44.4c-1.7,2.7-3.1,5.5-4.4,8.4c-0.2,0.5-0.4,1-0.7,1.4c-0.6,0.8-1.6,1.3-2.5,1
			c-0.9-0.3-0.6-1.3-0.6-2c0.3-11.9,2.1-23.4,7.7-34C15,5.7,26.5-1.4,41.8-2.3c9.5-0.6,18.7,1.7,27.8,3.8c9.8,2.3,19.5,4.4,29.7,3.9
			C106.4,5,113,3.2,118.8-1c2.8-2,5.7-1.5,8.7-1.1c1.3,0.2,1,1.4,1,2.3c0,7.3,0,14.5,0,21.8c0,17,0,33.9,0,50.8c0,2,0.6,3,2.4,3.9
			c7.8,3.6,15.8,6,24.5,5.4c7-0.4,13.4-2.6,19.5-6c0.9-0.6,1.3-1.3,1.3-2.3c0-11.8,0-23.7,0-35.5c0-1.1-0.5-1.9-1.4-2.5
			c-3.6-2.4-7.3-4.9-10.8-7.5c-1.6-1.2-2.5-0.8-3.6,0.6c-2.5,3.1-5.2,6-7.8,9c-0.9,1.1-1.6,1.1-2.6,0.2c-3-2.6-3.1-2.6-0.6-5.6
			c9.6-11.2,19.1-22.4,28.7-33.6c0.7-0.8,1.3-1,2.2-0.3c7.4,4.9,14.8,9.8,22.2,14.7c0.9,0.6,1.8,1.2,2.7,1.8
			c4.1,2.5,2.7,2.4,6.2-0.4c3.7-3,7.3-6.1,11-9.2c0.9-0.7,1.6-1.2,2.8-0.4c1.3,0.9,1.2,1.4,0.3,2.5c-3.8,4.8-7,10-9.3,15.8
			c-1.9,4.8-2.9,9.8-2.9,15C213.2,59.9,213.2,81.5,213.3,103.1L213.3,103.1z M120.8,8.7c-0.8,0.7-1.1,1-1.4,1.4
			c-7.6,8.6-11.4,18.5-11.4,30c0,22.3,0,44.6,0,67c0,9.6-2.2,18.8-6.3,27.5c-6.2,13.2-16.1,23-28.1,31c-1.5,1-1.6,1.5-0.1,2.5
			c2.3,1.6,4.6,3.2,7.1,4.6c11.5,6.4,24,8.7,37,9.3c3.2,0.1,3.2,0.1,3.2-3.1c0-55.8,0-111.6,0-167.4C120.8,10.8,120.8,10,120.8,8.7z
			 M103.3,22.7c-3.7,2-7.1,4.2-10.6,6.6c-13.6,9.7-25.1,21.3-33,36.2c-9.1,17.1-11.9,35.5-10.3,54.7c1.3,15.1,7.2,28.4,16,40.6
			c1.4,2,1.7,1.9,3.4,0c6.8-8.3,10.1-17.8,10.3-28.4c0.1-6.5,0-13,0-19.6c0-10.5,0.1-21-0.1-31.5c-0.2-6.5,0.1-12.9,1.6-19.2
			c2.5-11,7.7-20.6,14.4-29.5C97.6,29.2,100.5,26,103.3,22.7z M128.3,152.1c0.1,0,0.1,0,0.3,0c0,8.4,0,16.8,0,25.2
			c0,4.1,0,4.1,4.1,3.6c15.2-2.2,29.1-8,41.9-16.3c1.1-0.7,1.5-1.6,1.5-2.9c0-12.3,0-24.6,0-36.9c0-1.2-0.4-2-1.6-2.5
			c-15-8-29.9-7.3-44.8,0.2c-1,0.5-1.4,1.3-1.4,2.4C128.3,134,128.3,143,128.3,152.1z M128.6,99.9L128.6,99.9c0,4.8,0,9.7,0,14.5
			c0,1.4,0.2,1.9,1.7,1.2c1.4-0.6,2.9-1.1,4.3-1.6c6.6-2.2,13.2-3.4,20.2-3c6.9,0.4,13.4,2.2,19.7,4.7c1.2,0.5,1.5,0.2,1.5-1
			c0-10,0-20,0-30c0-1.3-0.4-1.6-1.7-1.1c-2.4,1-4.9,1.9-7.4,2.7c-5,1.6-10.2,2.5-15.5,2.4c-7.2-0.2-14-2.1-20.7-4.8
			c-2-0.8-2.1-0.7-2.1,1.5C128.5,90.1,128.6,94.9,128.6,99.9z"/>
	</g>
</g>
<g id="Calque_2">
</g>
</svg>
