<?xml version="1.0" encoding="utf-8"?>
<!-- Generator: $$$/GeneralStr/196=Adobe Illustrator 27.6.0, SVG Export Plug-In . SVG Version: 6.00 Build 0)  -->
<svg version="1.1" id="Calque_1" xmlns="http://www.w3.org/2000/svg" xmlns:xlink="http://www.w3.org/1999/xlink" x="0px" y="0px"
	 viewBox="0 0 321 339.4" style="enable-background:new 0 0 321 339.4;" xml:space="preserve">
<path d="M290.2,253.1c-1.1,2.5-0.9,5.3-1,8c-0.5,8.4-1.3,16.8-1.9,25.1c-0.2,3-0.5,5.9-0.7,8.9c-0.3,5.9-0.9,11.8-1.4,17.7
	c-0.2,2.6-0.4,5.1-0.5,7.7c-0.4,5.6-0.7,11.2-1,16.8c-0.1,1.9-1.4,2.1-2.7,2.1c-2.3,0-4.7,0-7,0c-78-0.2-156.1-0.4-234.1-0.6
	c-3.8,0-3.9-0.3-4.1-4.1c-0.3-6.9-1.2-13.8-1.4-20.7c-0.1-4.2-0.5-8.4-1.1-12.5c-0.7-5.5-0.1-11.1-0.8-16.6
	c-0.9-7.1-0.7-14.3-1.3-21.3c-0.8-8.3-0.9-16.6-2-24.8c0-0.7,0.5-1.5-0.3-2c0-0.2-0.1-0.3-0.2-0.5c0-0.3,0-0.7,0-1
	c0-1.9,0.1-3.8,0.1-5.7c-0.1-1.8,0.5-3.6-0.6-5.3c0-1,0-2,0-3c0.1-4-1.4-7.9-1-12c-0.2-0.7-0.3-1.3-0.5-2c0.2-4.4-0.3-8.7-0.9-13.1
	c0-0.5-0.1-0.9-0.1-1.4c0.4-4.5-0.7-8.9-0.5-13.4c0.1-2.2,0.3-4.5,0-6.7c-1.3-8.4-1.7-16.8-2.3-25.3c-0.6-7.2-1-14.5-1.5-21.7
	c-0.5-7-0.7-14-1.5-20.9c-0.4-3.5-0.5-7.1-0.5-10.6c0-1.7-0.6-2.1-2.2-2c-3.6,0.1-7.2,0-10.7,0c-1.8-1.5-4.5-1.6-6.2-3.3
	c0-0.4-0.1-0.8-0.1-1.2c0-10.7,0-21.3,0-32c0-0.9,0.4-1.6,1-2.2c0.2,0,0.5-0.1,0.7-0.1c0.2,0,0.3,0.1,0.5,0.1
	c28.1,0.1,56.3,0.1,84.4,0.3c2,0,2.7-0.7,2.7-2.7c-0.1-14,0-28,0-42c0-2.2,0.1-4.3,0-6.5c0-1.6,0.7-2.3,2.3-2.2c0.8,0,1.7,0,2.5,0
	c44.9,0.1,89.8,0.2,134.6,0.3c3,0,3.2,0.2,3.2,3.3c0,15.7,0,31.3-0.1,47c0,2.4,0.6,3.2,3.1,3.2c18.1,0,36.3,0.1,54.4,0.2
	c10.4,0,20.8,0.2,31.2,0.2c0.1,0.1,0.3,0.3,0.4,0.4c0,0.5,0,1,0,1.5c-0.1,11-0.1,21.9-0.1,32.9c0,0,0-0.1,0-0.1
	c-0.2,0.2-0.3,0.4-0.5,0.6c0,0,0,0,0,0c-0.6,0.1-0.9,0.5-0.9,1.1l-0.2,0c0,0-0.2,0.1-0.2,0.1c-3.7,2.5-8,1.9-12.1,2
	c-0.8,0-1.7,0-2.5,0c-3.1,0-3.3,0.2-3.3,3.1c0,1.7,0,3.5-0.1,5.2c-0.5,6.2-1.5,12.4-1.3,18.6c0,0.3,0,0.7,0,1
	c-0.2,0.4-0.5,0.9-0.5,1.3c0.1,8.4-1.4,16.7-1.6,25.1c-0.1,2.4-0.2,4.9-0.5,7.4c-0.7,6.9-1.3,13.7-1.4,20.6c0,1,0,2,0,3
	c-0.8,2.3-1.2,4.7-1.1,7.2c0.2,2.8,0,5.8-0.4,8.4c-0.5,3.5-0.5,7-1,10.5c-0.8,5.9-0.6,11.9-1.2,17.8c-0.3,2.6-0.2,5.1-0.5,7.7
	c-0.6,6.8-1.5,13.6-1.4,20.4C290.2,251.1,290.2,252.1,290.2,253.1z M260.7,111.1L260.7,111.1c1-5.4,0.9-10.8,1.5-16.1
	c0.2-2-0.5-2.6-2.5-2.6c-8.5,0.1-16.9,0-25.4,0c-6.8,0-13.6,0.1-20.4,0.1c-4.4-0.5-8.8-0.2-13.1-0.2c-3.6,0-7.3-0.4-10.9,0.2
	c-6.3-0.5-12.6-0.4-18.9-0.1c-0.4-0.2-0.7-0.2-1.1,0c-2.3-0.3-4.6-0.4-6.9,0l-0.2,0c-0.6-0.3-1.2-0.3-1.8-0.1c-0.2,0-0.5,0-0.7,0
	c-0.8-0.3-1.5-0.2-2.3,0l-0.1-0.1l-0.1,0.1c-4.1-0.1-8.1-0.2-12.2-0.2c-28-0.1-55.9-0.1-83.9-0.2c-3.1,0-3.2,0.1-3,3.2
	c0.2,3.8,0.3,7.6,0.5,11.4c0.1,1.5,0.3,3.1,0.9,4.5c-0.1,5.7,0,11.4,0.6,17c0.1,3,0.3,6.1,0.4,9.1c0,1.2,0.1,2.3,0.6,3.3
	c-0.4,4.5,0.6,8.8,0.8,13.3c0.5,9.8,1.4,19.6,1.9,29.3c0.4,6.3,1.3,12.6,1.2,19c0.2,3.2,0.3,6.4,0.4,9.6c0,0.5,0.3,0.9,0.6,1.3
	c0,0.9,0,1.7,0,2.6c0.7,3.7,0.3,7.5,0.8,11.2c0.5,4.2,0.5,8.4,0.6,12.6c0,0.6,0.3,1.1,0.6,1.6c0,0.4,0,0.7,0,1.1
	c-0.3,2.3,0.3,4.6,0.4,6.9c0.3,7.5,1,15,1.5,22.4c0.5,8.2,1.3,16.4,1.6,24.7c0.1,1.9,0.8,2.8,2.7,2.6c0.7,0,1.3,0,2,0
	c34.3,0.1,68.6,0.2,102.9,0.3c21.1,0,42.1,0.1,63.2,0.1c4.4,0,4.5,0,4.7-4.5c0.2-4.4,0.8-8.7,0.9-13.1c0.2-9.7,1.9-19.3,1.7-28.9
	c0.8-4,1-8,1-12c0.8-3,0.4-6,0.8-9c0-0.7,0-1.4,0-2.1c0.1-0.1,0.1-0.3,0-0.4c0.8-6.6,1.2-13.2,1.7-19.8c0.2-2.6,0.1-5.3,0.5-7.9
	c1.1-6.1,0.8-12.3,1.4-18.4c0.3-3.6,0.6-7.3,0.7-10.9c0.1-4.3,0.7-8.7,0.9-13c0.6-4.5,1.2-8.9,0.9-13.4c0-0.3,0.1-0.7,0.1-1
	c0.6-4.1,1.2-8.3,0.9-12.5c0-0.2,0.1-0.4,0.1-0.6c0.4-0.2,0.5-0.7,0.5-1.1C259.4,124,261.1,117.6,260.7,111.1z M194.6,52
	c0-3.1,0-6.2,0.1-9.2c0.1-1.7-0.7-2.1-2.2-2.1c-21.3,0-42.6-0.1-63.9-0.1c-1.9,0-2.5,0.8-2.5,2.6c0.1,2.7,0.1,5.3,0,8
	c-0.2,2.2,0.7,2.6,2.7,2.6c11.6-0.1,23.1,0,34.7,0c9.7,0,19.5,0.1,29.2,0c0.7,0,2,0.8,1.9-1C194.6,52.4,194.6,52.2,194.6,52z"/>
<path d="M143,221.9c-0.2,0.6-0.2,1.2,0,1.8c-0.2,0.4-0.2,0.8,0,1.2c-0.5,4.7-0.2,9.5-0.2,14.2c-0.1,7.5,0,15-0.1,22.5
	c0,1-0.1,2-0.2,3c-0.4,2.1-1.4,3.1-3.9,3c-9.6-0.2-19.2-0.1-28.7-0.1c-3.4,0-3.4,0-3.4-3.5c0.1-45.7,0.2-91.5,0.3-137.2
	c0-0.4,0-0.8-0.1-1.2c0.3-0.3,0.6-0.6,0.9-1c4.5,0.1,8.9,0.1,13.4,0.2c6.9,0.1,13.7,0.2,20.6,0.2c1,0.3,0.8,1.5,1.4,2.1
	c0,15.3,0,30.6,0,46c0,12.2-0.1,24.3-0.1,36.5c0,0.9,0.1,1.8,0.2,2.7C142.8,215.5,142.8,218.7,143,221.9z"/>
<path d="M177.3,186.8c0.4-3.9,0.2-7.8,0.2-11.7c0-11.8,0-23.7,0-35.5c0.1-0.1,0.1-0.3,0-0.4c0-2.5,0-5,0-7.5c0-1.3,0-2.7,0.1-4
	c0.1-0.3,0.1-0.7,0.2-1c0.1-0.1,0.1-0.2,0-0.3c0.2-0.2,0.3-0.4,0.5-0.7c0,0,0,0,0,0c0.8-0.6,1.7-0.6,2.6-0.6c9.8,0,19.7,0,29.5,0.1
	c3.5,0,3.6,0.1,3.6,3.7c-0.1,32.7-0.1,65.5-0.2,98.2c0,12.5-0.1,25-0.1,37.5c0,3.1-0.2,3.3-3.2,3.3c-9.9,0-19.8-0.1-29.7,0
	c-2.2,0-3.3-0.6-3.3-3.2c0.1-24.9,0.1-49.8,0.1-74.7c0-0.8-0.1-1.6-0.2-2.5c0.1-0.1,0.2-0.1,0.2-0.2
	C177.3,187.1,177.3,186.9,177.3,186.8z"/>
</svg>
